<svg width="56" height="57" viewBox="0 0 56 57" fill="none" xmlns="http://www.w3.org/2000/svg">
<path d="M35.1751 20.8809V21.5273C35.1751 26.4248 35.1751 31.3224 35.1751 36.2154C35.191 36.6146 35.3307 36.9989 35.5747 37.3152C39.8204 42.654 44.8248 47.3424 50.4289 51.2312C51.5511 52.0168 52.1796 53.0268 51.9147 54.4498C51.8284 54.9106 51.6336 55.3442 51.3464 55.7148C51.0593 56.0853 50.6881 56.3822 50.2635 56.5809C49.8389 56.7796 49.3731 56.8744 48.9047 56.8574C48.4362 56.8405 47.9785 56.7123 47.5694 56.4834C46.5359 55.8361 45.5393 55.1317 44.5842 54.3735C38.9421 50.1268 33.9277 45.105 29.6896 39.4565C29.6323 39.3464 29.5528 39.2493 29.4562 39.1714C29.3595 39.0936 29.2477 39.0366 29.1279 39.0041C29.0081 38.9716 28.8829 38.9643 28.7601 38.9827C28.6373 39.0011 28.5197 39.0447 28.4147 39.1108C24.8549 40.5024 21.2816 41.8491 17.7038 43.1914C17.5316 43.2424 17.376 43.3383 17.2529 43.4693C17.1299 43.6002 17.0438 43.7615 17.0036 43.9365C15.9666 47.438 14.8802 50.9215 13.8612 54.4274C13.2058 56.6944 11.1454 57.3049 9.5383 56.5462C8.94251 56.2626 8.46272 55.7823 8.17979 55.1862C7.89687 54.5901 7.8281 53.9146 7.9851 53.2737C8.93228 49.9743 9.93782 46.6928 10.9209 43.3979C11.1947 42.5001 11.509 41.5753 11.7514 40.6506C11.8903 40.0667 12.1784 39.5288 12.5876 39.0897C12.9968 38.6506 13.513 38.3253 14.0857 38.1457C16.0654 37.423 18.0271 36.6688 19.9888 35.9012C20.1022 35.8492 20.2019 35.7714 20.2798 35.6739C20.3578 35.5765 20.4119 35.4621 20.4377 35.3401C20.4377 30.5727 20.4377 25.8098 20.4377 21.0425C20.4282 20.956 20.4117 20.8704 20.3883 20.7866L16.9587 20.5397C12.1126 20.1517 7.30757 19.3589 2.59377 18.1695C1.1079 17.8014 0.259472 16.5131 0.560237 15.1529C0.878958 13.6984 2.1718 12.9084 3.725 13.1867C6.77306 13.7747 9.80764 14.4616 12.8736 14.9239C15.4546 15.3093 18.0546 15.5536 20.6621 15.6557C24.204 15.7993 27.7548 15.7903 31.3011 15.7813C38.2436 15.789 45.1607 14.9432 51.8968 13.263C52.2567 13.1369 52.638 13.0835 53.0186 13.1058C53.3993 13.1282 53.7717 13.2259 54.1144 13.3932C54.5986 13.6377 54.9911 14.0318 55.2337 14.5169C55.4762 15.0021 55.556 15.5525 55.4611 16.0866C55.4024 16.5919 55.1833 17.0652 54.8358 17.4368C54.4884 17.8085 54.031 18.059 53.5308 18.1516C49.9396 18.8563 46.3708 19.5656 42.7571 20.1222C40.2612 20.4858 37.7608 20.625 35.1751 20.8809Z" fill="black"/>
<path d="M27.9922 0.518616C29.1818 0.524824 30.3429 0.883072 31.3291 1.5482C32.3154 2.21332 33.0826 3.15555 33.5342 4.25609C33.9857 5.35663 34.1013 6.56622 33.8664 7.73238C33.6315 8.89853 33.0567 9.96904 32.2142 10.8089C31.3718 11.6488 30.2996 12.2206 29.1328 12.452C27.966 12.6834 26.7567 12.5642 25.6575 12.1094C24.5583 11.6546 23.6184 10.8845 22.9562 9.89631C22.294 8.90809 21.9392 7.74593 21.9365 6.55636C21.9448 4.9545 22.5861 3.42087 23.7204 2.28985C24.8548 1.15883 26.3903 0.522149 27.9922 0.518616V0.518616Z" fill="black"/>
</svg>
