<svg width="88" height="88" viewBox="0 0 88 88" fill="none" xmlns="http://www.w3.org/2000/svg">
<path d="M51.1751 36.8809V37.5273C51.1751 42.4248 51.1751 47.3224 51.1751 52.2154C51.191 52.6146 51.3307 52.9989 51.5747 53.3152C55.8204 58.654 60.8248 63.3424 66.4289 67.2312C67.5511 68.0168 68.1796 69.0268 67.9147 70.4498C67.8284 70.9106 67.6336 71.3442 67.3464 71.7148C67.0593 72.0853 66.6881 72.3822 66.2635 72.5809C65.8389 72.7796 65.3731 72.8744 64.9047 72.8574C64.4362 72.8405 63.9785 72.7123 63.5694 72.4834C62.5359 71.8361 61.5393 71.1317 60.5842 70.3735C54.9421 66.1268 49.9277 61.105 45.6896 55.4565C45.6323 55.3464 45.5528 55.2493 45.4562 55.1714C45.3595 55.0936 45.2477 55.0366 45.1279 55.0041C45.0081 54.9716 44.8829 54.9643 44.7601 54.9827C44.6373 55.0011 44.5197 55.0447 44.4147 55.1108C40.8549 56.5024 37.2816 57.8491 33.7038 59.1914C33.5316 59.2424 33.376 59.3383 33.2529 59.4693C33.1299 59.6002 33.0438 59.7615 33.0036 59.9365C31.9666 63.438 30.8802 66.9215 29.8612 70.4274C29.2058 72.6944 27.1454 73.3049 25.5383 72.5462C24.9425 72.2626 24.4627 71.7823 24.1798 71.1862C23.8969 70.5901 23.8281 69.9146 23.9851 69.2737C24.9323 65.9743 25.9378 62.6928 26.9209 59.3979C27.1947 58.5001 27.509 57.5753 27.7514 56.6506C27.8903 56.0667 28.1784 55.5288 28.5876 55.0897C28.9968 54.6506 29.513 54.3253 30.0857 54.1457C32.0654 53.423 34.0271 52.6688 35.9888 51.9012C36.1022 51.8492 36.2019 51.7714 36.2798 51.6739C36.3578 51.5765 36.4119 51.4621 36.4377 51.3401C36.4377 46.5727 36.4377 41.8098 36.4377 37.0425C36.4282 36.956 36.4117 36.8704 36.3883 36.7866L32.9587 36.5397C28.1126 36.1517 23.3076 35.3589 18.5938 34.1695C17.1079 33.8014 16.2595 32.5131 16.5602 31.1529C16.879 29.6984 18.1718 28.9084 19.725 29.1867C22.7731 29.7747 25.8076 30.4616 28.8736 30.9239C31.4546 31.3093 34.0546 31.5536 36.6621 31.6557C40.204 31.7993 43.7548 31.7903 47.3011 31.7813C54.2436 31.789 61.1607 30.9432 67.8968 29.263C68.2567 29.1369 68.638 29.0835 69.0186 29.1058C69.3993 29.1282 69.7717 29.2259 70.1144 29.3932C70.5986 29.6377 70.9911 30.0318 71.2337 30.5169C71.4762 31.0021 71.556 31.5525 71.4611 32.0866C71.4024 32.5919 71.1833 33.0652 70.8358 33.4368C70.4884 33.8085 70.031 34.059 69.5308 34.1516C65.9396 34.8563 62.3708 35.5656 58.7571 36.1222C56.2612 36.4858 53.7608 36.625 51.1751 36.8809Z" fill="black"/>
<path d="M43.9922 16.5186C45.1818 16.5248 46.3429 16.8831 47.3291 17.5482C48.3154 18.2133 49.0826 19.1555 49.5342 20.2561C49.9857 21.3566 50.1013 22.5662 49.8664 23.7324C49.6315 24.8985 49.0567 25.969 48.2142 26.8089C47.3718 27.6488 46.2996 28.2206 45.1328 28.452C43.966 28.6834 42.7567 28.5642 41.6575 28.1094C40.5583 27.6546 39.6184 26.8845 38.9562 25.8963C38.294 24.9081 37.9392 23.7459 37.9365 22.5564C37.9448 20.9545 38.5861 19.4209 39.7204 18.2899C40.8548 17.1588 42.3903 16.5221 43.9922 16.5186Z" fill="black"/>
</svg>
