<svg width="68" height="68" viewBox="0 0 68 68" fill="none" xmlns="http://www.w3.org/2000/svg">
<path d="M40.585 43.2727C39.9862 41.5223 39.4334 39.8947 38.8346 38.1544L35.5077 40.9951C33.7471 42.5305 31.2647 41.8345 30.6249 39.5927C29.9391 37.1769 29.33 34.7406 28.7568 32.294C28.6509 31.91 28.6244 31.5084 28.6789 31.1138C28.7334 30.7191 28.8677 30.3398 29.0737 29.9988C29.2796 29.6578 29.5529 29.3623 29.8768 29.1304C30.2007 28.8985 30.5684 28.735 30.9576 28.6498C32.4931 28.2455 33.9364 29.0798 34.4892 30.7483C34.7554 31.5621 34.9498 32.3964 35.216 33.3638C36.0042 32.6574 36.6952 32.0535 37.3708 31.4342C39.3413 29.6223 41.8185 28.8443 44.306 28.225C45.647 27.8872 46.8651 28.6243 47.6789 29.7605C48.0817 30.3468 48.394 30.9904 48.6053 31.6696C49.931 35.7386 51.2208 39.8128 52.5157 43.892C53.5138 47.0448 51.4511 49.9469 48.1293 49.993C44.9611 50.0339 41.7878 49.993 38.6196 49.993C37.0842 49.993 36.7208 50.341 36.7208 51.9123C36.7208 55.8892 36.7208 59.8661 36.7208 63.8429C36.7208 65.6753 35.6971 66.9753 34.1002 67.3285C33.6245 67.4486 33.1279 67.4608 32.6468 67.3643C32.1658 67.2677 31.7124 67.0648 31.3198 66.7704C30.9273 66.476 30.6056 66.0976 30.3782 65.6628C30.1508 65.228 30.0235 64.7478 30.0056 64.2575C29.934 62.7681 29.9749 61.2736 29.9749 59.7842C29.9749 56.0888 29.9749 52.3917 29.9749 48.6929C29.9749 45.2176 31.925 43.2932 35.4105 43.2829C37.0995 43.2676 38.7681 43.2727 40.585 43.2727Z" fill="#ffffff"/>
<path d="M47.0015 52.7619C48.7724 52.7619 50.5433 52.7619 52.3143 52.7619C53.9572 52.7619 54.8324 53.6576 54.8376 55.321C54.8376 58.5865 54.8376 61.8502 54.8376 65.1122C54.8376 66.6989 54.0442 67.5843 52.4678 67.5997C48.8032 67.6406 45.1368 67.6406 41.4687 67.5997C39.8871 67.5997 39.145 66.7808 39.1348 65.2197C39.1348 61.8621 39.1348 58.5063 39.1348 55.1521C39.1348 53.5859 39.9895 52.7824 41.5915 52.7721C43.3932 52.7517 45.1999 52.7619 47.0015 52.7619Z" fill="#ffffff"/>
<path d="M37.6266 15.6136C38.4732 15.5977 39.3144 15.7525 40.0999 16.0687C40.8854 16.3849 41.5992 16.856 42.1986 17.4541C42.7981 18.0521 43.271 18.7648 43.5891 19.5495C43.9071 20.3343 44.0639 21.175 44.05 22.0217C44.05 25.7375 41.1838 28.527 37.3963 28.5168C33.9875 28.5168 31.152 25.5379 31.1623 21.9654C31.1565 21.1201 31.3206 20.2823 31.6449 19.5017C31.9692 18.7211 32.4469 18.0136 33.0499 17.4211C33.6528 16.8287 34.3686 16.3634 35.1548 16.0529C35.941 15.7424 36.7816 15.593 37.6266 15.6136Z" fill="#ffffff"/>
<mask id="path-5-outside-1_685_874" maskUnits="userSpaceOnUse" x="14" y="10.6628" width="16" height="16" fill="black">
<rect fill="white" x="14" y="10.6628" width="16" height="16"/>
<path d="M29 18.4567C28.9955 18.3719 28.9613 18.2914 28.9037 18.2296C28.846 18.1678 28.7686 18.1286 28.685 18.1189L27.8221 17.9779C27.7833 17.9715 27.7476 17.9526 27.7203 17.924C27.693 17.8954 27.6756 17.8587 27.6707 17.8193C27.6542 17.7123 27.637 17.6012 27.6135 17.4958C27.6059 17.4575 27.6103 17.4178 27.6262 17.3821C27.6421 17.3465 27.6686 17.3168 27.702 17.2971L28.4686 16.8673C28.5447 16.8281 28.6039 16.7621 28.635 16.6817C28.666 16.6013 28.6667 16.5122 28.6369 16.4314L28.5039 16.061C28.4748 15.9799 28.417 15.9125 28.3417 15.8717C28.2664 15.8309 28.1788 15.8196 28.0957 15.8399L27.2359 16.0097C27.1974 16.0167 27.1578 16.0112 27.1226 15.994C27.0874 15.9769 27.0585 15.949 27.04 15.9143C26.9899 15.8195 26.9353 15.723 26.8785 15.6282C26.8578 15.5944 26.8481 15.555 26.8508 15.5154C26.8534 15.4758 26.8683 15.438 26.8933 15.4074L27.4654 14.7401C27.5235 14.6771 27.5569 14.5949 27.5593 14.5088C27.5617 14.4228 27.533 14.3388 27.4785 14.2726L27.2288 13.9699C27.1745 13.9034 27.0977 13.8597 27.0132 13.8471C26.9288 13.8346 26.8428 13.8541 26.7718 13.9019L26.0189 14.3582C25.9856 14.3784 25.9466 14.3872 25.9079 14.3834C25.8692 14.3795 25.8327 14.3632 25.8039 14.3368C25.7208 14.2631 25.6356 14.1921 25.5559 14.1265C25.5253 14.1021 25.5031 14.0685 25.4927 14.0306C25.4823 13.9926 25.4842 13.9523 25.498 13.9155L25.8096 13.0865C25.8436 13.0074 25.8475 12.9185 25.8208 12.8366C25.7941 12.7547 25.7385 12.6856 25.6646 12.6424L25.325 12.4423C25.2511 12.3993 25.164 12.3853 25.0805 12.403C24.9969 12.4208 24.9228 12.469 24.8724 12.5385L24.3221 13.2363C24.3023 13.2667 24.2727 13.2891 24.2383 13.2998C24.2039 13.3104 24.1669 13.3087 24.1337 13.2948C24.1131 13.2863 23.9395 13.2146 23.8045 13.1691C23.7675 13.1569 23.7353 13.1331 23.7127 13.1011C23.69 13.0691 23.6781 13.0307 23.6787 12.9914L23.6918 12.1056C23.6965 12.0191 23.6698 11.9339 23.6167 11.8658C23.5636 11.7978 23.4878 11.7516 23.4034 11.736L23.018 11.668C22.9341 11.6534 22.8477 11.67 22.775 11.7148C22.7022 11.7596 22.6481 11.8296 22.6226 11.9116L22.3365 12.7546C22.3235 12.792 22.299 12.8242 22.2666 12.8465C22.2341 12.8688 22.1954 12.8801 22.1562 12.8786H21.828C21.7891 12.8794 21.7509 12.8678 21.7189 12.8454C21.6868 12.823 21.6626 12.791 21.6497 12.7539L21.365 11.9157C21.3399 11.833 21.2859 11.7624 21.213 11.7171C21.14 11.6717 21.0533 11.6548 20.9688 11.6694L20.5828 11.7373C20.499 11.7529 20.4236 11.7986 20.3706 11.866C20.3176 11.9334 20.2907 12.018 20.2948 12.1039L20.3082 12.9927C20.3085 13.0326 20.296 13.0715 20.2726 13.1037C20.2492 13.1358 20.2161 13.1595 20.1783 13.1711C20.1013 13.2013 19.934 13.2659 19.8579 13.2944C19.7906 13.3189 19.7173 13.2921 19.658 13.2231L19.1108 12.5436C19.0606 12.4737 18.9866 12.425 18.903 12.4069C18.8193 12.3887 18.732 12.4025 18.6578 12.4454L18.3193 12.6435C18.2446 12.6867 18.1884 12.7564 18.1616 12.839C18.1347 12.9216 18.1391 13.0114 18.1739 13.0909L18.4852 13.9179C18.4988 13.9548 18.5006 13.995 18.4903 14.033C18.48 14.071 18.4582 14.1047 18.428 14.1295C18.3462 14.1975 18.2624 14.2654 18.1789 14.3409C18.1503 14.367 18.1141 14.3833 18.0756 14.3872C18.0372 14.3911 17.9985 14.3825 17.9652 14.3626L17.2212 13.8975C17.1497 13.8506 17.0638 13.8316 16.9794 13.8441C16.8951 13.8566 16.8182 13.8998 16.7631 13.9654L16.5144 14.2675C16.4592 14.3332 16.4299 14.4173 16.4322 14.5035C16.4345 14.5897 16.4682 14.672 16.5269 14.7346L17.1017 15.4012C17.1272 15.4313 17.1424 15.4688 17.1452 15.5083C17.1479 15.5478 17.138 15.5871 17.1168 15.6204C17.0593 15.7128 17.0044 15.81 16.9546 15.9071C16.936 15.9421 16.9069 15.9702 16.8714 15.9874C16.836 16.0046 16.7961 16.0101 16.7574 16.0029L15.8989 15.8355C15.8158 15.8152 15.7282 15.8266 15.6528 15.8674C15.5775 15.9081 15.5196 15.9755 15.4903 16.0566L15.3557 16.4263C15.326 16.5072 15.3267 16.5964 15.3577 16.6769C15.3887 16.7573 15.4479 16.8235 15.524 16.8629L16.2906 17.2927C16.3251 17.3119 16.3525 17.3419 16.3685 17.3782C16.3846 17.4145 16.3886 17.455 16.3798 17.4938L16.3717 17.5369C16.3542 17.6317 16.3381 17.7214 16.3226 17.8169C16.3173 17.8558 16.2999 17.892 16.2729 17.9203C16.2459 17.9486 16.2108 17.9676 16.1725 17.9745L15.3079 18.1155C15.2234 18.126 15.1455 18.1672 15.0888 18.2314C15.0322 18.2956 15.0006 18.3785 15 18.4645V18.8579C14.9995 18.9442 15.0308 19.0277 15.0877 19.0921C15.1447 19.1565 15.2233 19.1972 15.3083 19.2065L16.1725 19.3472C16.2113 19.3535 16.2471 19.3724 16.2744 19.401C16.3017 19.4296 16.3191 19.4664 16.3239 19.5058C16.3404 19.6132 16.3576 19.7239 16.3812 19.8293C16.3887 19.8676 16.3843 19.9073 16.3684 19.9429C16.3526 19.9786 16.3261 20.0083 16.2926 20.028L15.5264 20.4585C15.4502 20.4977 15.391 20.5637 15.36 20.6441C15.329 20.7245 15.3283 20.8135 15.3581 20.8944L15.4927 21.2647C15.5219 21.3458 15.5797 21.4132 15.655 21.454C15.7303 21.4948 15.8178 21.5061 15.9009 21.4859L16.7608 21.3177C16.7992 21.3107 16.8389 21.3161 16.8741 21.3333C16.9093 21.3504 16.9382 21.3784 16.9566 21.4132C17.0071 21.5083 17.0613 21.6045 17.1182 21.6993C17.1389 21.733 17.1487 21.7725 17.146 21.8121C17.1434 21.8517 17.1284 21.8895 17.1034 21.9201L16.5313 22.587C16.4725 22.6496 16.4383 22.7316 16.4352 22.8178C16.4321 22.9039 16.4603 22.9882 16.5144 23.0549L16.7638 23.3576C16.8181 23.4241 16.8949 23.4679 16.9793 23.4805C17.0638 23.493 17.1499 23.4734 17.2208 23.4256L17.9737 22.9693C18.007 22.9491 18.046 22.9403 18.0847 22.9441C18.1234 22.948 18.1599 22.9643 18.1887 22.9907C18.2722 23.0644 18.357 23.1354 18.4367 23.201C18.4673 23.2254 18.4894 23.259 18.4999 23.2969C18.5104 23.3348 18.5086 23.3751 18.495 23.412L18.183 24.241C18.149 24.3201 18.1451 24.409 18.1718 24.4909C18.1986 24.5727 18.2541 24.6418 18.328 24.685L18.6683 24.8834C18.7422 24.9265 18.8292 24.9406 18.9127 24.9229C18.9963 24.9052 19.0704 24.8571 19.1209 24.7876L19.6779 24.0962C19.725 24.0375 19.799 24.0113 19.8539 24.0337C19.971 24.0826 20.0494 24.1102 20.1884 24.1571C20.2254 24.1693 20.2576 24.1931 20.2803 24.225C20.303 24.257 20.315 24.2954 20.3146 24.3347L20.3012 25.2198C20.2966 25.3063 20.3234 25.3914 20.3764 25.4594C20.4295 25.5275 20.5053 25.5737 20.5896 25.5895L20.9749 25.6574C21.0589 25.6722 21.1453 25.6556 21.2181 25.6108C21.2908 25.566 21.345 25.496 21.3703 25.4138L21.6564 24.5722C21.6693 24.5348 21.6939 24.5025 21.7263 24.4802C21.7588 24.4579 21.7975 24.4467 21.8368 24.4482H22.1649C22.2039 24.4474 22.2421 24.459 22.2741 24.4814C22.3062 24.5037 22.3304 24.5358 22.3433 24.5729L22.6283 25.4111C22.6504 25.4838 22.695 25.5476 22.7556 25.5929C22.8161 25.6382 22.8895 25.6627 22.9649 25.6628C22.9849 25.6629 23.005 25.6611 23.0248 25.6574L23.4108 25.5895C23.4946 25.5739 23.57 25.5282 23.623 25.4608C23.676 25.3934 23.7029 25.3088 23.6988 25.2229L23.6854 24.3341C23.6851 24.2949 23.6972 24.2567 23.7199 24.2249C23.7426 24.1932 23.7747 24.1695 23.8116 24.1574C23.9408 24.1136 24.0317 24.0782 24.1114 24.047L24.1316 24.0392C24.236 24.0028 24.2864 24.047 24.3157 24.0837L24.8794 24.7846C24.93 24.8539 25.004 24.902 25.0875 24.9197C25.1709 24.9374 25.2579 24.9234 25.3317 24.8804L25.6706 24.6823C25.7448 24.6391 25.8005 24.5698 25.8273 24.4877C25.854 24.4056 25.8499 24.3165 25.8157 24.2372L25.5047 23.4103C25.491 23.3734 25.4891 23.3332 25.4993 23.2952C25.5095 23.2572 25.5313 23.2234 25.5616 23.1986C25.6434 23.1307 25.7272 23.0627 25.8106 22.9873C25.8395 22.961 25.8759 22.9448 25.9145 22.941C25.9532 22.9372 25.992 22.9461 26.0253 22.9662L26.7788 23.4215C26.8503 23.4685 26.9362 23.4875 27.0206 23.475C27.1049 23.4625 27.1819 23.4193 27.2369 23.3535L27.4859 23.0512C27.5412 22.9854 27.5704 22.9014 27.5681 22.8152C27.5658 22.729 27.5321 22.6467 27.4735 22.584L26.8993 21.9157C26.8738 21.8857 26.8586 21.8481 26.8558 21.8087C26.8531 21.7692 26.8631 21.7299 26.8842 21.6966C26.9417 21.6045 26.9966 21.5073 27.0464 21.4098C27.0651 21.3749 27.0942 21.3469 27.1296 21.3297C27.1651 21.3125 27.2049 21.307 27.2436 21.314L28.1011 21.4828C28.1842 21.5031 28.2718 21.4917 28.3472 21.4509C28.4225 21.4101 28.4804 21.3428 28.5097 21.2617L28.6426 20.892C28.6723 20.8111 28.6716 20.722 28.6406 20.6416C28.6096 20.5612 28.5504 20.4951 28.4743 20.4558L27.707 20.0253C27.673 20.0059 27.6461 19.976 27.6303 19.9399C27.6145 19.9039 27.6106 19.8636 27.6192 19.8252L27.6273 19.782C27.6448 19.6872 27.6609 19.5975 27.6764 19.5021C27.6817 19.4632 27.6991 19.427 27.7261 19.3987C27.7531 19.3704 27.7882 19.3514 27.8265 19.3444L28.6911 19.2038C28.7758 19.1934 28.8539 19.1523 28.9108 19.088C28.9677 19.0237 28.9994 18.9407 29 18.8545V18.4567ZM19.4945 21.6503C19.4525 21.724 19.3939 21.7865 19.3234 21.8328C19.2528 21.8791 19.1724 21.9078 19.0888 21.9166C19.0051 21.9255 18.9205 21.9141 18.8421 21.8835C18.7636 21.8529 18.6934 21.804 18.6373 21.7407C17.8791 20.8944 17.4605 19.7932 17.4631 18.6521C17.4657 17.511 17.8894 16.4119 18.6514 15.5691C18.7078 15.5058 18.7783 15.457 18.8571 15.4266C18.9358 15.3963 19.0206 15.3852 19.1044 15.3944C19.1882 15.4036 19.2686 15.4328 19.3391 15.4795C19.4095 15.5262 19.468 15.5892 19.5096 15.6632L21.0459 18.3931C21.092 18.4745 21.1163 18.5667 21.1163 18.6605C21.1163 18.7543 21.092 18.8465 21.0459 18.9279L19.4945 21.6503ZM22 23.2533C21.6797 23.2534 21.3604 23.2192 21.0473 23.1514C20.9657 23.133 20.8896 23.0954 20.825 23.0418C20.7605 22.9882 20.7094 22.9199 20.6759 22.8426C20.6424 22.7653 20.6273 22.6812 20.6321 22.5969C20.6368 22.5127 20.6611 22.4307 20.703 22.3577L22.2511 19.6397C22.2976 19.5578 22.3648 19.4897 22.4457 19.4424C22.5267 19.3951 22.6186 19.3702 22.7121 19.3703H25.813C25.8965 19.3701 25.9789 19.3899 26.0535 19.4279C26.128 19.4659 26.1927 19.5211 26.2422 19.589C26.2916 19.6569 26.3246 19.7357 26.3383 19.8189C26.352 19.902 26.3462 19.9873 26.3212 20.0678C25.7325 21.9133 24.0192 23.2533 22 23.2533ZM22.2527 17.6847L20.7212 14.9619C20.6797 14.8888 20.6558 14.8069 20.6514 14.7227C20.6471 14.6386 20.6624 14.5546 20.6962 14.4775C20.73 14.4004 20.7813 14.3325 20.8459 14.2791C20.9105 14.2257 20.9866 14.1885 21.0681 14.1703C21.3745 14.1051 21.6869 14.0723 22 14.0725C24.0192 14.0725 25.7325 15.4125 26.3201 17.259C26.3452 17.3395 26.351 17.4248 26.3373 17.5079C26.3236 17.5911 26.2906 17.6699 26.2411 17.7378C26.1917 17.8057 26.127 17.8609 26.0524 17.8989C25.9779 17.9369 25.8955 17.9567 25.812 17.9565H22.7158C22.6217 17.9567 22.5292 17.9317 22.4479 17.8839C22.3665 17.8361 22.2991 17.7674 22.2527 17.6847Z"/>
</mask>
<path d="M29 18.4567C28.9955 18.3719 28.9613 18.2914 28.9037 18.2296C28.846 18.1678 28.7686 18.1286 28.685 18.1189L27.8221 17.9779C27.7833 17.9715 27.7476 17.9526 27.7203 17.924C27.693 17.8954 27.6756 17.8587 27.6707 17.8193C27.6542 17.7123 27.637 17.6012 27.6135 17.4958C27.6059 17.4575 27.6103 17.4178 27.6262 17.3821C27.6421 17.3465 27.6686 17.3168 27.702 17.2971L28.4686 16.8673C28.5447 16.8281 28.6039 16.7621 28.635 16.6817C28.666 16.6013 28.6667 16.5122 28.6369 16.4314L28.5039 16.061C28.4748 15.9799 28.417 15.9125 28.3417 15.8717C28.2664 15.8309 28.1788 15.8196 28.0957 15.8399L27.2359 16.0097C27.1974 16.0167 27.1578 16.0112 27.1226 15.994C27.0874 15.9769 27.0585 15.949 27.04 15.9143C26.9899 15.8195 26.9353 15.723 26.8785 15.6282C26.8578 15.5944 26.8481 15.555 26.8508 15.5154C26.8534 15.4758 26.8683 15.438 26.8933 15.4074L27.4654 14.7401C27.5235 14.6771 27.5569 14.5949 27.5593 14.5088C27.5617 14.4228 27.533 14.3388 27.4785 14.2726L27.2288 13.9699C27.1745 13.9034 27.0977 13.8597 27.0132 13.8471C26.9288 13.8346 26.8428 13.8541 26.7718 13.9019L26.0189 14.3582C25.9856 14.3784 25.9466 14.3872 25.9079 14.3834C25.8692 14.3795 25.8327 14.3632 25.8039 14.3368C25.7208 14.2631 25.6356 14.1921 25.5559 14.1265C25.5253 14.1021 25.5031 14.0685 25.4927 14.0306C25.4823 13.9926 25.4842 13.9523 25.498 13.9155L25.8096 13.0865C25.8436 13.0074 25.8475 12.9185 25.8208 12.8366C25.7941 12.7547 25.7385 12.6856 25.6646 12.6424L25.325 12.4423C25.2511 12.3993 25.164 12.3853 25.0805 12.403C24.9969 12.4208 24.9228 12.469 24.8724 12.5385L24.3221 13.2363C24.3023 13.2667 24.2727 13.2891 24.2383 13.2998C24.2039 13.3104 24.1669 13.3087 24.1337 13.2948C24.1131 13.2863 23.9395 13.2146 23.8045 13.1691C23.7675 13.1569 23.7353 13.1331 23.7127 13.1011C23.69 13.0691 23.6781 13.0307 23.6787 12.9914L23.6918 12.1056C23.6965 12.0191 23.6698 11.9339 23.6167 11.8658C23.5636 11.7978 23.4878 11.7516 23.4034 11.736L23.018 11.668C22.9341 11.6534 22.8477 11.67 22.775 11.7148C22.7022 11.7596 22.6481 11.8296 22.6226 11.9116L22.3365 12.7546C22.3235 12.792 22.299 12.8242 22.2666 12.8465C22.2341 12.8688 22.1954 12.8801 22.1562 12.8786H21.828C21.7891 12.8794 21.7509 12.8678 21.7189 12.8454C21.6868 12.823 21.6626 12.791 21.6497 12.7539L21.365 11.9157C21.3399 11.833 21.2859 11.7624 21.213 11.7171C21.14 11.6717 21.0533 11.6548 20.9688 11.6694L20.5828 11.7373C20.499 11.7529 20.4236 11.7986 20.3706 11.866C20.3176 11.9334 20.2907 12.018 20.2948 12.1039L20.3082 12.9927C20.3085 13.0326 20.296 13.0715 20.2726 13.1037C20.2492 13.1358 20.2161 13.1595 20.1783 13.1711C20.1013 13.2013 19.934 13.2659 19.8579 13.2944C19.7906 13.3189 19.7173 13.2921 19.658 13.2231L19.1108 12.5436C19.0606 12.4737 18.9866 12.425 18.903 12.4069C18.8193 12.3887 18.732 12.4025 18.6578 12.4454L18.3193 12.6435C18.2446 12.6867 18.1884 12.7564 18.1616 12.839C18.1347 12.9216 18.1391 13.0114 18.1739 13.0909L18.4852 13.9179C18.4988 13.9548 18.5006 13.995 18.4903 14.033C18.48 14.071 18.4582 14.1047 18.428 14.1295C18.3462 14.1975 18.2624 14.2654 18.1789 14.3409C18.1503 14.367 18.1141 14.3833 18.0756 14.3872C18.0372 14.3911 17.9985 14.3825 17.9652 14.3626L17.2212 13.8975C17.1497 13.8506 17.0638 13.8316 16.9794 13.8441C16.8951 13.8566 16.8182 13.8998 16.7631 13.9654L16.5144 14.2675C16.4592 14.3332 16.4299 14.4173 16.4322 14.5035C16.4345 14.5897 16.4682 14.672 16.5269 14.7346L17.1017 15.4012C17.1272 15.4313 17.1424 15.4688 17.1452 15.5083C17.1479 15.5478 17.138 15.5871 17.1168 15.6204C17.0593 15.7128 17.0044 15.81 16.9546 15.9071C16.936 15.9421 16.9069 15.9702 16.8714 15.9874C16.836 16.0046 16.7961 16.0101 16.7574 16.0029L15.8989 15.8355C15.8158 15.8152 15.7282 15.8266 15.6528 15.8674C15.5775 15.9081 15.5196 15.9755 15.4903 16.0566L15.3557 16.4263C15.326 16.5072 15.3267 16.5964 15.3577 16.6769C15.3887 16.7573 15.4479 16.8235 15.524 16.8629L16.2906 17.2927C16.3251 17.3119 16.3525 17.3419 16.3685 17.3782C16.3846 17.4145 16.3886 17.455 16.3798 17.4938L16.3717 17.5369C16.3542 17.6317 16.3381 17.7214 16.3226 17.8169C16.3173 17.8558 16.2999 17.892 16.2729 17.9203C16.2459 17.9486 16.2108 17.9676 16.1725 17.9745L15.3079 18.1155C15.2234 18.126 15.1455 18.1672 15.0888 18.2314C15.0322 18.2956 15.0006 18.3785 15 18.4645V18.8579C14.9995 18.9442 15.0308 19.0277 15.0877 19.0921C15.1447 19.1565 15.2233 19.1972 15.3083 19.2065L16.1725 19.3472C16.2113 19.3535 16.2471 19.3724 16.2744 19.401C16.3017 19.4296 16.3191 19.4664 16.3239 19.5058C16.3404 19.6132 16.3576 19.7239 16.3812 19.8293C16.3887 19.8676 16.3843 19.9073 16.3684 19.9429C16.3526 19.9786 16.3261 20.0083 16.2926 20.028L15.5264 20.4585C15.4502 20.4977 15.391 20.5637 15.36 20.6441C15.329 20.7245 15.3283 20.8135 15.3581 20.8944L15.4927 21.2647C15.5219 21.3458 15.5797 21.4132 15.655 21.454C15.7303 21.4948 15.8178 21.5061 15.9009 21.4859L16.7608 21.3177C16.7992 21.3107 16.8389 21.3161 16.8741 21.3333C16.9093 21.3504 16.9382 21.3784 16.9566 21.4132C17.0071 21.5083 17.0613 21.6045 17.1182 21.6993C17.1389 21.733 17.1487 21.7725 17.146 21.8121C17.1434 21.8517 17.1284 21.8895 17.1034 21.9201L16.5313 22.587C16.4725 22.6496 16.4383 22.7316 16.4352 22.8178C16.4321 22.9039 16.4603 22.9882 16.5144 23.0549L16.7638 23.3576C16.8181 23.4241 16.8949 23.4679 16.9793 23.4805C17.0638 23.493 17.1499 23.4734 17.2208 23.4256L17.9737 22.9693C18.007 22.9491 18.046 22.9403 18.0847 22.9441C18.1234 22.948 18.1599 22.9643 18.1887 22.9907C18.2722 23.0644 18.357 23.1354 18.4367 23.201C18.4673 23.2254 18.4894 23.259 18.4999 23.2969C18.5104 23.3348 18.5086 23.3751 18.495 23.412L18.183 24.241C18.149 24.3201 18.1451 24.409 18.1718 24.4909C18.1986 24.5727 18.2541 24.6418 18.328 24.685L18.6683 24.8834C18.7422 24.9265 18.8292 24.9406 18.9127 24.9229C18.9963 24.9052 19.0704 24.8571 19.1209 24.7876L19.6779 24.0962C19.725 24.0375 19.799 24.0113 19.8539 24.0337C19.971 24.0826 20.0494 24.1102 20.1884 24.1571C20.2254 24.1693 20.2576 24.1931 20.2803 24.225C20.303 24.257 20.315 24.2954 20.3146 24.3347L20.3012 25.2198C20.2966 25.3063 20.3234 25.3914 20.3764 25.4594C20.4295 25.5275 20.5053 25.5737 20.5896 25.5895L20.9749 25.6574C21.0589 25.6722 21.1453 25.6556 21.2181 25.6108C21.2908 25.566 21.345 25.496 21.3703 25.4138L21.6564 24.5722C21.6693 24.5348 21.6939 24.5025 21.7263 24.4802C21.7588 24.4579 21.7975 24.4467 21.8368 24.4482H22.1649C22.2039 24.4474 22.2421 24.459 22.2741 24.4814C22.3062 24.5037 22.3304 24.5358 22.3433 24.5729L22.6283 25.4111C22.6504 25.4838 22.695 25.5476 22.7556 25.5929C22.8161 25.6382 22.8895 25.6627 22.9649 25.6628C22.9849 25.6629 23.005 25.6611 23.0248 25.6574L23.4108 25.5895C23.4946 25.5739 23.57 25.5282 23.623 25.4608C23.676 25.3934 23.7029 25.3088 23.6988 25.2229L23.6854 24.3341C23.6851 24.2949 23.6972 24.2567 23.7199 24.2249C23.7426 24.1932 23.7747 24.1695 23.8116 24.1574C23.9408 24.1136 24.0317 24.0782 24.1114 24.047L24.1316 24.0392C24.236 24.0028 24.2864 24.047 24.3157 24.0837L24.8794 24.7846C24.93 24.8539 25.004 24.902 25.0875 24.9197C25.1709 24.9374 25.2579 24.9234 25.3317 24.8804L25.6706 24.6823C25.7448 24.6391 25.8005 24.5698 25.8273 24.4877C25.854 24.4056 25.8499 24.3165 25.8157 24.2372L25.5047 23.4103C25.491 23.3734 25.4891 23.3332 25.4993 23.2952C25.5095 23.2572 25.5313 23.2234 25.5616 23.1986C25.6434 23.1307 25.7272 23.0627 25.8106 22.9873C25.8395 22.961 25.8759 22.9448 25.9145 22.941C25.9532 22.9372 25.992 22.9461 26.0253 22.9662L26.7788 23.4215C26.8503 23.4685 26.9362 23.4875 27.0206 23.475C27.1049 23.4625 27.1819 23.4193 27.2369 23.3535L27.4859 23.0512C27.5412 22.9854 27.5704 22.9014 27.5681 22.8152C27.5658 22.729 27.5321 22.6467 27.4735 22.584L26.8993 21.9157C26.8738 21.8857 26.8586 21.8481 26.8558 21.8087C26.8531 21.7692 26.8631 21.7299 26.8842 21.6966C26.9417 21.6045 26.9966 21.5073 27.0464 21.4098C27.0651 21.3749 27.0942 21.3469 27.1296 21.3297C27.1651 21.3125 27.2049 21.307 27.2436 21.314L28.1011 21.4828C28.1842 21.5031 28.2718 21.4917 28.3472 21.4509C28.4225 21.4101 28.4804 21.3428 28.5097 21.2617L28.6426 20.892C28.6723 20.8111 28.6716 20.722 28.6406 20.6416C28.6096 20.5612 28.5504 20.4951 28.4743 20.4558L27.707 20.0253C27.673 20.0059 27.6461 19.976 27.6303 19.9399C27.6145 19.9039 27.6106 19.8636 27.6192 19.8252L27.6273 19.782C27.6448 19.6872 27.6609 19.5975 27.6764 19.5021C27.6817 19.4632 27.6991 19.427 27.7261 19.3987C27.7531 19.3704 27.7882 19.3514 27.8265 19.3444L28.6911 19.2038C28.7758 19.1934 28.8539 19.1523 28.9108 19.088C28.9677 19.0237 28.9994 18.9407 29 18.8545V18.4567ZM19.4945 21.6503C19.4525 21.724 19.3939 21.7865 19.3234 21.8328C19.2528 21.8791 19.1724 21.9078 19.0888 21.9166C19.0051 21.9255 18.9205 21.9141 18.8421 21.8835C18.7636 21.8529 18.6934 21.804 18.6373 21.7407C17.8791 20.8944 17.4605 19.7932 17.4631 18.6521C17.4657 17.511 17.8894 16.4119 18.6514 15.5691C18.7078 15.5058 18.7783 15.457 18.8571 15.4266C18.9358 15.3963 19.0206 15.3852 19.1044 15.3944C19.1882 15.4036 19.2686 15.4328 19.3391 15.4795C19.4095 15.5262 19.468 15.5892 19.5096 15.6632L21.0459 18.3931C21.092 18.4745 21.1163 18.5667 21.1163 18.6605C21.1163 18.7543 21.092 18.8465 21.0459 18.9279L19.4945 21.6503ZM22 23.2533C21.6797 23.2534 21.3604 23.2192 21.0473 23.1514C20.9657 23.133 20.8896 23.0954 20.825 23.0418C20.7605 22.9882 20.7094 22.9199 20.6759 22.8426C20.6424 22.7653 20.6273 22.6812 20.6321 22.5969C20.6368 22.5127 20.6611 22.4307 20.703 22.3577L22.2511 19.6397C22.2976 19.5578 22.3648 19.4897 22.4457 19.4424C22.5267 19.3951 22.6186 19.3702 22.7121 19.3703H25.813C25.8965 19.3701 25.9789 19.3899 26.0535 19.4279C26.128 19.4659 26.1927 19.5211 26.2422 19.589C26.2916 19.6569 26.3246 19.7357 26.3383 19.8189C26.352 19.902 26.3462 19.9873 26.3212 20.0678C25.7325 21.9133 24.0192 23.2533 22 23.2533ZM22.2527 17.6847L20.7212 14.9619C20.6797 14.8888 20.6558 14.8069 20.6514 14.7227C20.6471 14.6386 20.6624 14.5546 20.6962 14.4775C20.73 14.4004 20.7813 14.3325 20.8459 14.2791C20.9105 14.2257 20.9866 14.1885 21.0681 14.1703C21.3745 14.1051 21.6869 14.0723 22 14.0725C24.0192 14.0725 25.7325 15.4125 26.3201 17.259C26.3452 17.3395 26.351 17.4248 26.3373 17.5079C26.3236 17.5911 26.2906 17.6699 26.2411 17.7378C26.1917 17.8057 26.127 17.8609 26.0524 17.8989C25.9779 17.9369 25.8955 17.9567 25.812 17.9565H22.7158C22.6217 17.9567 22.5292 17.9317 22.4479 17.8839C22.3665 17.8361 22.2991 17.7674 22.2527 17.6847Z" fill="#ffffff"/>
<path d="M29 18.4567C28.9955 18.3719 28.9613 18.2914 28.9037 18.2296C28.846 18.1678 28.7686 18.1286 28.685 18.1189L27.8221 17.9779C27.7833 17.9715 27.7476 17.9526 27.7203 17.924C27.693 17.8954 27.6756 17.8587 27.6707 17.8193C27.6542 17.7123 27.637 17.6012 27.6135 17.4958C27.6059 17.4575 27.6103 17.4178 27.6262 17.3821C27.6421 17.3465 27.6686 17.3168 27.702 17.2971L28.4686 16.8673C28.5447 16.8281 28.6039 16.7621 28.635 16.6817C28.666 16.6013 28.6667 16.5122 28.6369 16.4314L28.5039 16.061C28.4748 15.9799 28.417 15.9125 28.3417 15.8717C28.2664 15.8309 28.1788 15.8196 28.0957 15.8399L27.2359 16.0097C27.1974 16.0167 27.1578 16.0112 27.1226 15.994C27.0874 15.9769 27.0585 15.949 27.04 15.9143C26.9899 15.8195 26.9353 15.723 26.8785 15.6282C26.8578 15.5944 26.8481 15.555 26.8508 15.5154C26.8534 15.4758 26.8683 15.438 26.8933 15.4074L27.4654 14.7401C27.5235 14.6771 27.5569 14.5949 27.5593 14.5088C27.5617 14.4228 27.533 14.3388 27.4785 14.2726L27.2288 13.9699C27.1745 13.9034 27.0977 13.8597 27.0132 13.8471C26.9288 13.8346 26.8428 13.8541 26.7718 13.9019L26.0189 14.3582C25.9856 14.3784 25.9466 14.3872 25.9079 14.3834C25.8692 14.3795 25.8327 14.3632 25.8039 14.3368C25.7208 14.2631 25.6356 14.1921 25.5559 14.1265C25.5253 14.1021 25.5031 14.0685 25.4927 14.0306C25.4823 13.9926 25.4842 13.9523 25.498 13.9155L25.8096 13.0865C25.8436 13.0074 25.8475 12.9185 25.8208 12.8366C25.7941 12.7547 25.7385 12.6856 25.6646 12.6424L25.325 12.4423C25.2511 12.3993 25.164 12.3853 25.0805 12.403C24.9969 12.4208 24.9228 12.469 24.8724 12.5385L24.3221 13.2363C24.3023 13.2667 24.2727 13.2891 24.2383 13.2998C24.2039 13.3104 24.1669 13.3087 24.1337 13.2948C24.1131 13.2863 23.9395 13.2146 23.8045 13.1691C23.7675 13.1569 23.7353 13.1331 23.7127 13.1011C23.69 13.0691 23.6781 13.0307 23.6787 12.9914L23.6918 12.1056C23.6965 12.0191 23.6698 11.9339 23.6167 11.8658C23.5636 11.7978 23.4878 11.7516 23.4034 11.736L23.018 11.668C22.9341 11.6534 22.8477 11.67 22.775 11.7148C22.7022 11.7596 22.6481 11.8296 22.6226 11.9116L22.3365 12.7546C22.3235 12.792 22.299 12.8242 22.2666 12.8465C22.2341 12.8688 22.1954 12.8801 22.1562 12.8786H21.828C21.7891 12.8794 21.7509 12.8678 21.7189 12.8454C21.6868 12.823 21.6626 12.791 21.6497 12.7539L21.365 11.9157C21.3399 11.833 21.2859 11.7624 21.213 11.7171C21.14 11.6717 21.0533 11.6548 20.9688 11.6694L20.5828 11.7373C20.499 11.7529 20.4236 11.7986 20.3706 11.866C20.3176 11.9334 20.2907 12.018 20.2948 12.1039L20.3082 12.9927C20.3085 13.0326 20.296 13.0715 20.2726 13.1037C20.2492 13.1358 20.2161 13.1595 20.1783 13.1711C20.1013 13.2013 19.934 13.2659 19.8579 13.2944C19.7906 13.3189 19.7173 13.2921 19.658 13.2231L19.1108 12.5436C19.0606 12.4737 18.9866 12.425 18.903 12.4069C18.8193 12.3887 18.732 12.4025 18.6578 12.4454L18.3193 12.6435C18.2446 12.6867 18.1884 12.7564 18.1616 12.839C18.1347 12.9216 18.1391 13.0114 18.1739 13.0909L18.4852 13.9179C18.4988 13.9548 18.5006 13.995 18.4903 14.033C18.48 14.071 18.4582 14.1047 18.428 14.1295C18.3462 14.1975 18.2624 14.2654 18.1789 14.3409C18.1503 14.367 18.1141 14.3833 18.0756 14.3872C18.0372 14.3911 17.9985 14.3825 17.9652 14.3626L17.2212 13.8975C17.1497 13.8506 17.0638 13.8316 16.9794 13.8441C16.8951 13.8566 16.8182 13.8998 16.7631 13.9654L16.5144 14.2675C16.4592 14.3332 16.4299 14.4173 16.4322 14.5035C16.4345 14.5897 16.4682 14.672 16.5269 14.7346L17.1017 15.4012C17.1272 15.4313 17.1424 15.4688 17.1452 15.5083C17.1479 15.5478 17.138 15.5871 17.1168 15.6204C17.0593 15.7128 17.0044 15.81 16.9546 15.9071C16.936 15.9421 16.9069 15.9702 16.8714 15.9874C16.836 16.0046 16.7961 16.0101 16.7574 16.0029L15.8989 15.8355C15.8158 15.8152 15.7282 15.8266 15.6528 15.8674C15.5775 15.9081 15.5196 15.9755 15.4903 16.0566L15.3557 16.4263C15.326 16.5072 15.3267 16.5964 15.3577 16.6769C15.3887 16.7573 15.4479 16.8235 15.524 16.8629L16.2906 17.2927C16.3251 17.3119 16.3525 17.3419 16.3685 17.3782C16.3846 17.4145 16.3886 17.455 16.3798 17.4938L16.3717 17.5369C16.3542 17.6317 16.3381 17.7214 16.3226 17.8169C16.3173 17.8558 16.2999 17.892 16.2729 17.9203C16.2459 17.9486 16.2108 17.9676 16.1725 17.9745L15.3079 18.1155C15.2234 18.126 15.1455 18.1672 15.0888 18.2314C15.0322 18.2956 15.0006 18.3785 15 18.4645V18.8579C14.9995 18.9442 15.0308 19.0277 15.0877 19.0921C15.1447 19.1565 15.2233 19.1972 15.3083 19.2065L16.1725 19.3472C16.2113 19.3535 16.2471 19.3724 16.2744 19.401C16.3017 19.4296 16.3191 19.4664 16.3239 19.5058C16.3404 19.6132 16.3576 19.7239 16.3812 19.8293C16.3887 19.8676 16.3843 19.9073 16.3684 19.9429C16.3526 19.9786 16.3261 20.0083 16.2926 20.028L15.5264 20.4585C15.4502 20.4977 15.391 20.5637 15.36 20.6441C15.329 20.7245 15.3283 20.8135 15.3581 20.8944L15.4927 21.2647C15.5219 21.3458 15.5797 21.4132 15.655 21.454C15.7303 21.4948 15.8178 21.5061 15.9009 21.4859L16.7608 21.3177C16.7992 21.3107 16.8389 21.3161 16.8741 21.3333C16.9093 21.3504 16.9382 21.3784 16.9566 21.4132C17.0071 21.5083 17.0613 21.6045 17.1182 21.6993C17.1389 21.733 17.1487 21.7725 17.146 21.8121C17.1434 21.8517 17.1284 21.8895 17.1034 21.9201L16.5313 22.587C16.4725 22.6496 16.4383 22.7316 16.4352 22.8178C16.4321 22.9039 16.4603 22.9882 16.5144 23.0549L16.7638 23.3576C16.8181 23.4241 16.8949 23.4679 16.9793 23.4805C17.0638 23.493 17.1499 23.4734 17.2208 23.4256L17.9737 22.9693C18.007 22.9491 18.046 22.9403 18.0847 22.9441C18.1234 22.948 18.1599 22.9643 18.1887 22.9907C18.2722 23.0644 18.357 23.1354 18.4367 23.201C18.4673 23.2254 18.4894 23.259 18.4999 23.2969C18.5104 23.3348 18.5086 23.3751 18.495 23.412L18.183 24.241C18.149 24.3201 18.1451 24.409 18.1718 24.4909C18.1986 24.5727 18.2541 24.6418 18.328 24.685L18.6683 24.8834C18.7422 24.9265 18.8292 24.9406 18.9127 24.9229C18.9963 24.9052 19.0704 24.8571 19.1209 24.7876L19.6779 24.0962C19.725 24.0375 19.799 24.0113 19.8539 24.0337C19.971 24.0826 20.0494 24.1102 20.1884 24.1571C20.2254 24.1693 20.2576 24.1931 20.2803 24.225C20.303 24.257 20.315 24.2954 20.3146 24.3347L20.3012 25.2198C20.2966 25.3063 20.3234 25.3914 20.3764 25.4594C20.4295 25.5275 20.5053 25.5737 20.5896 25.5895L20.9749 25.6574C21.0589 25.6722 21.1453 25.6556 21.2181 25.6108C21.2908 25.566 21.345 25.496 21.3703 25.4138L21.6564 24.5722C21.6693 24.5348 21.6939 24.5025 21.7263 24.4802C21.7588 24.4579 21.7975 24.4467 21.8368 24.4482H22.1649C22.2039 24.4474 22.2421 24.459 22.2741 24.4814C22.3062 24.5037 22.3304 24.5358 22.3433 24.5729L22.6283 25.4111C22.6504 25.4838 22.695 25.5476 22.7556 25.5929C22.8161 25.6382 22.8895 25.6627 22.9649 25.6628C22.9849 25.6629 23.005 25.6611 23.0248 25.6574L23.4108 25.5895C23.4946 25.5739 23.57 25.5282 23.623 25.4608C23.676 25.3934 23.7029 25.3088 23.6988 25.2229L23.6854 24.3341C23.6851 24.2949 23.6972 24.2567 23.7199 24.2249C23.7426 24.1932 23.7747 24.1695 23.8116 24.1574C23.9408 24.1136 24.0317 24.0782 24.1114 24.047L24.1316 24.0392C24.236 24.0028 24.2864 24.047 24.3157 24.0837L24.8794 24.7846C24.93 24.8539 25.004 24.902 25.0875 24.9197C25.1709 24.9374 25.2579 24.9234 25.3317 24.8804L25.6706 24.6823C25.7448 24.6391 25.8005 24.5698 25.8273 24.4877C25.854 24.4056 25.8499 24.3165 25.8157 24.2372L25.5047 23.4103C25.491 23.3734 25.4891 23.3332 25.4993 23.2952C25.5095 23.2572 25.5313 23.2234 25.5616 23.1986C25.6434 23.1307 25.7272 23.0627 25.8106 22.9873C25.8395 22.961 25.8759 22.9448 25.9145 22.941C25.9532 22.9372 25.992 22.9461 26.0253 22.9662L26.7788 23.4215C26.8503 23.4685 26.9362 23.4875 27.0206 23.475C27.1049 23.4625 27.1819 23.4193 27.2369 23.3535L27.4859 23.0512C27.5412 22.9854 27.5704 22.9014 27.5681 22.8152C27.5658 22.729 27.5321 22.6467 27.4735 22.584L26.8993 21.9157C26.8738 21.8857 26.8586 21.8481 26.8558 21.8087C26.8531 21.7692 26.8631 21.7299 26.8842 21.6966C26.9417 21.6045 26.9966 21.5073 27.0464 21.4098C27.0651 21.3749 27.0942 21.3469 27.1296 21.3297C27.1651 21.3125 27.2049 21.307 27.2436 21.314L28.1011 21.4828C28.1842 21.5031 28.2718 21.4917 28.3472 21.4509C28.4225 21.4101 28.4804 21.3428 28.5097 21.2617L28.6426 20.892C28.6723 20.8111 28.6716 20.722 28.6406 20.6416C28.6096 20.5612 28.5504 20.4951 28.4743 20.4558L27.707 20.0253C27.673 20.0059 27.6461 19.976 27.6303 19.9399C27.6145 19.9039 27.6106 19.8636 27.6192 19.8252L27.6273 19.782C27.6448 19.6872 27.6609 19.5975 27.6764 19.5021C27.6817 19.4632 27.6991 19.427 27.7261 19.3987C27.7531 19.3704 27.7882 19.3514 27.8265 19.3444L28.6911 19.2038C28.7758 19.1934 28.8539 19.1523 28.9108 19.088C28.9677 19.0237 28.9994 18.9407 29 18.8545V18.4567ZM19.4945 21.6503C19.4525 21.724 19.3939 21.7865 19.3234 21.8328C19.2528 21.8791 19.1724 21.9078 19.0888 21.9166C19.0051 21.9255 18.9205 21.9141 18.8421 21.8835C18.7636 21.8529 18.6934 21.804 18.6373 21.7407C17.8791 20.8944 17.4605 19.7932 17.4631 18.6521C17.4657 17.511 17.8894 16.4119 18.6514 15.5691C18.7078 15.5058 18.7783 15.457 18.8571 15.4266C18.9358 15.3963 19.0206 15.3852 19.1044 15.3944C19.1882 15.4036 19.2686 15.4328 19.3391 15.4795C19.4095 15.5262 19.468 15.5892 19.5096 15.6632L21.0459 18.3931C21.092 18.4745 21.1163 18.5667 21.1163 18.6605C21.1163 18.7543 21.092 18.8465 21.0459 18.9279L19.4945 21.6503ZM22 23.2533C21.6797 23.2534 21.3604 23.2192 21.0473 23.1514C20.9657 23.133 20.8896 23.0954 20.825 23.0418C20.7605 22.9882 20.7094 22.9199 20.6759 22.8426C20.6424 22.7653 20.6273 22.6812 20.6321 22.5969C20.6368 22.5127 20.6611 22.4307 20.703 22.3577L22.2511 19.6397C22.2976 19.5578 22.3648 19.4897 22.4457 19.4424C22.5267 19.3951 22.6186 19.3702 22.7121 19.3703H25.813C25.8965 19.3701 25.9789 19.3899 26.0535 19.4279C26.128 19.4659 26.1927 19.5211 26.2422 19.589C26.2916 19.6569 26.3246 19.7357 26.3383 19.8189C26.352 19.902 26.3462 19.9873 26.3212 20.0678C25.7325 21.9133 24.0192 23.2533 22 23.2533ZM22.2527 17.6847L20.7212 14.9619C20.6797 14.8888 20.6558 14.8069 20.6514 14.7227C20.6471 14.6386 20.6624 14.5546 20.6962 14.4775C20.73 14.4004 20.7813 14.3325 20.8459 14.2791C20.9105 14.2257 20.9866 14.1885 21.0681 14.1703C21.3745 14.1051 21.6869 14.0723 22 14.0725C24.0192 14.0725 25.7325 15.4125 26.3201 17.259C26.3452 17.3395 26.351 17.4248 26.3373 17.5079C26.3236 17.5911 26.2906 17.6699 26.2411 17.7378C26.1917 17.8057 26.127 17.8609 26.0524 17.8989C25.9779 17.9369 25.8955 17.9567 25.812 17.9565H22.7158C22.6217 17.9567 22.5292 17.9317 22.4479 17.8839C22.3665 17.8361 22.2991 17.7674 22.2527 17.6847Z" stroke="#ffffff" stroke-width="0.6" mask="url(#path-5-outside-1_685_874)"/>
<mask id="path-6-outside-2_685_874" maskUnits="userSpaceOnUse" x="23.9681" y="1.63049" width="15.0647" height="15.0647" fill="black">
<rect fill="white" x="23.9681" y="1.63049" width="15.0647" height="15.0647"/>
<path d="M35.4429 11.3364C35.4681 11.288 35.4755 11.2323 35.4638 11.1793C35.4521 11.1262 35.422 11.0792 35.3789 11.0465L34.9473 10.6864C34.9279 10.6702 34.9143 10.6481 34.9086 10.6233C34.9028 10.5986 34.9052 10.5725 34.9153 10.5491C34.9412 10.4845 34.968 10.4174 34.9894 10.3514C34.9977 10.3277 35.0131 10.3071 35.0336 10.2926C35.054 10.278 35.0784 10.2702 35.1033 10.2703L35.6682 10.2829C35.7231 10.2861 35.7775 10.2689 35.8209 10.2345C35.8644 10.2002 35.8939 10.1511 35.9038 10.0966L35.9512 9.84811C35.9616 9.79368 35.9517 9.73748 35.9233 9.69027C35.8949 9.64306 35.8502 9.60817 35.7975 9.59226L35.266 9.40528C35.2425 9.39656 35.2223 9.38056 35.2084 9.35958C35.1946 9.33859 35.1877 9.31369 35.1888 9.28842C35.192 9.21956 35.1934 9.14832 35.1929 9.07726C35.1925 9.05181 35.2 9.02681 35.2144 9.00576C35.2288 8.98471 35.2494 8.96865 35.2732 8.95985L35.808 8.77743C35.8608 8.76155 35.9061 8.72695 35.9356 8.68011C35.965 8.63326 35.9766 8.57738 35.9681 8.52292L35.9288 8.27373C35.9204 8.21919 35.8922 8.16988 35.8496 8.13534C35.8069 8.1008 35.7529 8.08348 35.698 8.08675L35.1321 8.0933C35.107 8.09357 35.0826 8.08573 35.0624 8.07094C35.0422 8.05615 35.0274 8.0352 35.02 8.01117C34.9981 7.94319 34.9742 7.87605 34.9515 7.81369C34.9425 7.79018 34.9412 7.76435 34.9479 7.73995C34.9545 7.71554 34.9687 7.69383 34.9884 7.67797L35.4318 7.3209C35.4765 7.2882 35.5077 7.24027 35.5197 7.18621C35.5316 7.13215 35.5234 7.07573 35.4967 7.02767L35.3741 6.80591C35.3472 6.75792 35.3036 6.72172 35.2516 6.70424C35.1995 6.68677 35.1427 6.68925 35.0921 6.71121L34.5594 6.9177C34.5385 6.92802 34.5148 6.93075 34.4923 6.92541C34.4698 6.92008 34.4499 6.90701 34.436 6.88846C34.4274 6.87705 34.3547 6.78061 34.2949 6.7113C34.2784 6.69246 34.2683 6.66875 34.2662 6.64365C34.2641 6.61855 34.2701 6.59337 34.2833 6.5718L34.58 6.08576C34.6109 6.03941 34.6239 5.98349 34.6168 5.92847C34.6096 5.87345 34.5827 5.82311 34.5412 5.78686L34.35 5.62331C34.3084 5.58777 34.2551 5.56874 34.2002 5.56978C34.1453 5.57081 34.0925 5.59183 34.0515 5.62893L33.6177 6.00207C33.5983 6.01854 33.5741 6.02837 33.5489 6.03012C33.5236 6.03186 33.4985 6.02543 33.4773 6.01177L33.2957 5.90453C33.2738 5.89225 33.2565 5.87334 33.2461 5.85048C33.2357 5.82762 33.2327 5.80198 33.2377 5.77722L33.354 5.22017C33.3671 5.16621 33.3603 5.10946 33.3348 5.06053C33.3092 5.0116 33.2667 4.97385 33.2152 4.95435L32.9793 4.86581C32.9278 4.84701 32.8711 4.84767 32.8198 4.86768C32.7684 4.88769 32.7259 4.92568 32.7 4.97461L32.417 5.47103C32.4041 5.4932 32.3845 5.51066 32.361 5.5208C32.3376 5.53094 32.3115 5.53323 32.2868 5.52732C32.2342 5.51887 32.1206 5.49994 32.0691 5.49088C32.0239 5.48243 31.992 5.44359 31.9818 5.38605L31.9009 4.83105C31.896 4.77595 31.8709 4.7248 31.8305 4.68743C31.7902 4.65007 31.7374 4.62914 31.6823 4.62865L31.4301 4.62766C31.3746 4.62721 31.3207 4.64741 31.2789 4.68437C31.237 4.72134 31.2101 4.77244 31.2034 4.82785L31.1054 5.38738C31.1009 5.41224 31.0887 5.43511 31.0706 5.45277C31.0526 5.47044 31.0295 5.48201 31.0046 5.48586C30.9371 5.49675 30.8685 5.50697 30.7977 5.52145C30.7732 5.52658 30.7479 5.52373 30.7253 5.51333C30.7028 5.50293 30.6842 5.48552 30.6723 5.46365L30.4124 4.96298C30.3881 4.91366 30.3468 4.87505 30.296 4.85442C30.2452 4.83379 30.1885 4.83254 30.1366 4.85091L29.9002 4.93683C29.8481 4.95518 29.8045 4.99213 29.7776 5.0406C29.7507 5.08906 29.7424 5.14565 29.7544 5.19951L29.8548 5.75639C29.8591 5.78135 29.8552 5.80712 29.8439 5.82986C29.8325 5.8526 29.8141 5.87111 29.7915 5.88265C29.7295 5.915 29.6673 5.95087 29.608 5.98838C29.5863 6.00164 29.561 6.00768 29.5357 6.00563C29.5105 6.00358 29.4866 5.99354 29.4675 5.97697L29.047 5.60367C29.0076 5.56529 28.9554 5.54295 28.9004 5.5409C28.8453 5.53886 28.7913 5.55726 28.7486 5.59258L28.5532 5.75322C28.5103 5.78831 28.4815 5.83789 28.4724 5.89257C28.4633 5.94725 28.4744 6.00323 28.5037 6.0499L28.7876 6.53838C28.8004 6.56028 28.8058 6.58583 28.8028 6.61117C28.7999 6.63652 28.7888 6.66028 28.7713 6.67887L28.7527 6.70011C28.712 6.74687 28.6738 6.79124 28.634 6.83904C28.6183 6.85882 28.5969 6.87317 28.5727 6.88004C28.5485 6.8869 28.5228 6.88593 28.4994 6.87725L27.9747 6.67275C27.9245 6.65092 27.8679 6.64827 27.8155 6.66529C27.7632 6.68232 27.7186 6.71786 27.6902 6.76527L27.5616 6.98307C27.5331 7.0307 27.5232 7.0871 27.5336 7.14136C27.5441 7.19563 27.5743 7.24388 27.6183 7.27679L28.0508 7.6371C28.0702 7.65333 28.0838 7.67547 28.0896 7.70023C28.0953 7.72499 28.093 7.75102 28.0828 7.77443C28.0568 7.83926 28.0301 7.90618 28.0087 7.97218C28.0004 7.99587 27.985 8.01642 27.9645 8.03096C27.9441 8.0455 27.9197 8.05331 27.8948 8.05329L27.3299 8.04115C27.2749 8.03795 27.2206 8.05517 27.1771 8.08953C27.1337 8.12388 27.1042 8.17297 27.0943 8.22746L27.0478 8.47647C27.0374 8.5309 27.0474 8.58708 27.0758 8.63427C27.1041 8.68147 27.1489 8.71637 27.2015 8.73232L27.7324 8.92024C27.756 8.92891 27.7762 8.94489 27.7901 8.96589C27.804 8.98689 27.8108 9.01182 27.8097 9.0371C27.8065 9.10626 27.8051 9.1772 27.8056 9.24826C27.806 9.27372 27.7985 9.29875 27.7841 9.31982C27.7697 9.34089 27.7491 9.35693 27.7252 9.36568L27.1905 9.5479C27.1375 9.56329 27.0918 9.59755 27.062 9.64423C27.0321 9.69091 27.0201 9.7468 27.0283 9.80139L27.0674 10.0505C27.0757 10.105 27.104 10.1544 27.1466 10.1889C27.1893 10.2235 27.2433 10.2408 27.2982 10.2375L27.8641 10.2309C27.8892 10.2306 27.9136 10.2385 27.9338 10.2533C27.954 10.268 27.9688 10.289 27.9762 10.313C27.9983 10.3811 28.022 10.4481 28.0447 10.5105C28.0537 10.534 28.055 10.5598 28.0484 10.5843C28.0417 10.6087 28.0276 10.6304 28.008 10.6463L27.5644 11.0033C27.5197 11.036 27.4885 11.0839 27.4765 11.138C27.4646 11.192 27.4728 11.2485 27.4995 11.2965L27.623 11.5176C27.6499 11.5656 27.6935 11.6018 27.7455 11.6193C27.7975 11.6368 27.8543 11.6344 27.9049 11.6125L28.4392 11.4117C28.4845 11.3946 28.5341 11.4043 28.5571 11.4347C28.6059 11.5 28.6403 11.5409 28.702 11.6123C28.7185 11.6311 28.7285 11.6548 28.7306 11.6799C28.7328 11.705 28.7268 11.7302 28.7138 11.7519L28.4171 12.2374C28.3863 12.2838 28.3733 12.3397 28.3804 12.3947C28.3876 12.4497 28.4144 12.5 28.4559 12.5363L28.647 12.6999C28.6887 12.7355 28.7419 12.7546 28.7969 12.7536C28.8518 12.7525 28.9046 12.7314 28.9455 12.6943L29.3789 12.3219C29.3983 12.3054 29.4225 12.2955 29.4477 12.2938C29.473 12.292 29.4981 12.2985 29.5193 12.3122L29.701 12.4194C29.7228 12.4317 29.7402 12.4506 29.7506 12.4734C29.761 12.4963 29.7639 12.522 29.759 12.5467L29.6428 13.1039C29.6313 13.1514 29.6351 13.2012 29.6538 13.2461C29.6726 13.291 29.7052 13.3285 29.7468 13.3532C29.7579 13.3598 29.7696 13.3654 29.7818 13.3698L30.0177 13.4583C30.0692 13.4771 30.1259 13.4765 30.1772 13.4565C30.2286 13.4365 30.2711 13.3985 30.297 13.3495L30.58 12.8531C30.5926 12.8314 30.6118 12.8142 30.6348 12.804C30.6577 12.7938 30.6832 12.7912 30.7076 12.7966C30.7935 12.8145 30.8553 12.8247 30.9097 12.8334L30.9234 12.8357C30.993 12.8497 31.0065 12.8906 31.0108 12.9205L31.0937 13.4928C31.0991 13.5477 31.1243 13.5985 31.1648 13.6355C31.2052 13.6726 31.2579 13.6933 31.3128 13.6936L31.5652 13.6947C31.6203 13.695 31.6738 13.6749 31.7155 13.6382C31.7571 13.6015 31.784 13.5508 31.7909 13.4957L31.889 12.9363C31.8935 12.9114 31.9056 12.8885 31.9237 12.8708C31.9417 12.8531 31.9648 12.8416 31.9897 12.8377C32.0572 12.8268 32.1258 12.8166 32.1966 12.8021C32.2212 12.797 32.2466 12.8 32.2693 12.8105C32.2919 12.821 32.3105 12.8386 32.3224 12.8606L32.5907 13.3589C32.6149 13.4083 32.6563 13.4469 32.7071 13.4676C32.7578 13.4882 32.8145 13.4894 32.8665 13.471L33.1032 13.385C33.1552 13.3667 33.1989 13.3297 33.2258 13.2812C33.2527 13.2328 33.261 13.1762 33.249 13.1223L33.1495 12.5647C33.1452 12.5398 33.1491 12.514 33.1604 12.4913C33.1718 12.4685 33.1902 12.45 33.2128 12.4385C33.2747 12.4063 33.3368 12.3704 33.3963 12.3327C33.418 12.3195 33.4433 12.3135 33.4686 12.3156C33.4938 12.3176 33.5177 12.3276 33.5368 12.3442L33.9563 12.7179C33.9957 12.7563 34.0479 12.7786 34.1029 12.7806C34.158 12.7827 34.212 12.7643 34.2547 12.729L34.4491 12.5678C34.492 12.5327 34.5208 12.4831 34.5299 12.4285C34.539 12.3738 34.5278 12.3179 34.4986 12.2713L34.2145 11.7822C34.202 11.7604 34.1969 11.735 34.1999 11.7099C34.2029 11.6847 34.2139 11.6612 34.2313 11.6427L34.2498 11.6215C34.2905 11.5747 34.3288 11.5303 34.3685 11.4826C34.3842 11.4628 34.4057 11.4484 34.4298 11.4416C34.454 11.4347 34.4797 11.4357 34.5031 11.4443L35.0277 11.649C35.078 11.671 35.1347 11.6738 35.1872 11.6568C35.2397 11.6398 35.2844 11.6042 35.3129 11.5566L35.4429 11.3364ZM29.1371 9.9978C29.0898 10.0248 29.0369 10.0403 28.9827 10.0429C28.9285 10.0454 28.8746 10.0351 28.8254 10.0126C28.7762 9.99015 28.7331 9.95624 28.6997 9.91366C28.6662 9.87109 28.6434 9.82106 28.633 9.76769C28.4899 9.05139 28.618 8.305 28.9924 7.67416C29.3668 7.04332 29.9605 6.57329 30.6578 6.35579C30.7097 6.3392 30.7647 6.33521 30.8182 6.34413C30.8717 6.35306 30.9223 6.37465 30.9657 6.40712C31.0091 6.4396 31.0441 6.48204 31.0678 6.53093C31.0915 6.57983 31.1033 6.63378 31.1021 6.68836L31.0604 8.70169C31.0594 8.76184 31.0427 8.82079 31.012 8.87272C30.9814 8.92464 30.9378 8.96774 30.8857 8.99773L29.1371 9.9978ZM30.0002 11.704C29.8229 11.5994 29.6573 11.4761 29.5061 11.3362C29.4669 11.2994 29.4371 11.2537 29.4189 11.2029C29.4007 11.1522 29.3947 11.0977 29.4014 11.0439C29.4081 10.9902 29.4273 10.9387 29.4574 10.8936C29.4876 10.8485 29.5278 10.8111 29.5749 10.7843L31.3202 9.78563C31.3727 9.75551 31.4321 9.73978 31.4924 9.74005C31.5527 9.74032 31.6117 9.75657 31.6635 9.78716L33.3801 10.8006C33.4263 10.8278 33.4655 10.8657 33.4943 10.9111C33.5232 10.9565 33.5409 11.0082 33.5461 11.0619C33.5513 11.1157 33.5438 11.1701 33.5243 11.2206C33.5047 11.2711 33.4735 11.3164 33.4334 11.3528C32.5044 12.1821 31.118 12.3639 30.0002 11.704ZM31.96 8.70395L32.002 6.69611C32.0029 6.64207 32.0165 6.5889 32.0416 6.54089C32.0667 6.49289 32.1027 6.4514 32.1465 6.41978C32.1904 6.38815 32.241 6.36729 32.2942 6.35886C32.3474 6.35043 32.4018 6.35469 32.4528 6.37127C32.6437 6.43533 32.8274 6.51924 33.0007 6.62166C34.1185 7.28158 34.629 8.58332 34.3508 9.79759C34.3383 9.8503 34.3137 9.89943 34.2789 9.94099C34.2442 9.98255 34.2002 10.0154 34.1506 10.0368C34.101 10.0582 34.0472 10.0677 33.9935 10.0643C33.9398 10.061 33.8877 10.045 33.8415 10.0176L32.1275 9.00576C32.0754 8.9751 32.0324 8.931 32.0029 8.87797C31.9735 8.82494 31.9587 8.76488 31.96 8.70395Z"/>
</mask>
<path d="M35.4429 11.3364C35.4681 11.288 35.4755 11.2323 35.4638 11.1793C35.4521 11.1262 35.422 11.0792 35.3789 11.0465L34.9473 10.6864C34.9279 10.6702 34.9143 10.6481 34.9086 10.6233C34.9028 10.5986 34.9052 10.5725 34.9153 10.5491C34.9412 10.4845 34.968 10.4174 34.9894 10.3514C34.9977 10.3277 35.0131 10.3071 35.0336 10.2926C35.054 10.278 35.0784 10.2702 35.1033 10.2703L35.6682 10.2829C35.7231 10.2861 35.7775 10.2689 35.8209 10.2345C35.8644 10.2002 35.8939 10.1511 35.9038 10.0966L35.9512 9.84811C35.9616 9.79368 35.9517 9.73748 35.9233 9.69027C35.8949 9.64306 35.8502 9.60817 35.7975 9.59226L35.266 9.40528C35.2425 9.39656 35.2223 9.38056 35.2084 9.35958C35.1946 9.33859 35.1877 9.31369 35.1888 9.28842C35.192 9.21956 35.1934 9.14832 35.1929 9.07726C35.1925 9.05181 35.2 9.02681 35.2144 9.00576C35.2288 8.98471 35.2494 8.96865 35.2732 8.95985L35.808 8.77743C35.8608 8.76155 35.9061 8.72695 35.9356 8.68011C35.965 8.63326 35.9766 8.57738 35.9681 8.52292L35.9288 8.27373C35.9204 8.21919 35.8922 8.16988 35.8496 8.13534C35.8069 8.1008 35.7529 8.08348 35.698 8.08675L35.1321 8.0933C35.107 8.09357 35.0826 8.08573 35.0624 8.07094C35.0422 8.05615 35.0274 8.0352 35.02 8.01117C34.9981 7.94319 34.9742 7.87605 34.9515 7.81369C34.9425 7.79018 34.9412 7.76435 34.9479 7.73995C34.9545 7.71554 34.9687 7.69383 34.9884 7.67797L35.4318 7.3209C35.4765 7.2882 35.5077 7.24027 35.5197 7.18621C35.5316 7.13215 35.5234 7.07573 35.4967 7.02767L35.3741 6.80591C35.3472 6.75792 35.3036 6.72172 35.2516 6.70424C35.1995 6.68677 35.1427 6.68925 35.0921 6.71121L34.5594 6.9177C34.5385 6.92802 34.5148 6.93075 34.4923 6.92541C34.4698 6.92008 34.4499 6.90701 34.436 6.88846C34.4274 6.87705 34.3547 6.78061 34.2949 6.7113C34.2784 6.69246 34.2683 6.66875 34.2662 6.64365C34.2641 6.61855 34.2701 6.59337 34.2833 6.5718L34.58 6.08576C34.6109 6.03941 34.6239 5.98349 34.6168 5.92847C34.6096 5.87345 34.5827 5.82311 34.5412 5.78686L34.35 5.62331C34.3084 5.58777 34.2551 5.56874 34.2002 5.56978C34.1453 5.57081 34.0925 5.59183 34.0515 5.62893L33.6177 6.00207C33.5983 6.01854 33.5741 6.02837 33.5489 6.03012C33.5236 6.03186 33.4985 6.02543 33.4773 6.01177L33.2957 5.90453C33.2738 5.89225 33.2565 5.87334 33.2461 5.85048C33.2357 5.82762 33.2327 5.80198 33.2377 5.77722L33.354 5.22017C33.3671 5.16621 33.3603 5.10946 33.3348 5.06053C33.3092 5.0116 33.2667 4.97385 33.2152 4.95435L32.9793 4.86581C32.9278 4.84701 32.8711 4.84767 32.8198 4.86768C32.7684 4.88769 32.7259 4.92568 32.7 4.97461L32.417 5.47103C32.4041 5.4932 32.3845 5.51066 32.361 5.5208C32.3376 5.53094 32.3115 5.53323 32.2868 5.52732C32.2342 5.51887 32.1206 5.49994 32.0691 5.49088C32.0239 5.48243 31.992 5.44359 31.9818 5.38605L31.9009 4.83105C31.896 4.77595 31.8709 4.7248 31.8305 4.68743C31.7902 4.65007 31.7374 4.62914 31.6823 4.62865L31.4301 4.62766C31.3746 4.62721 31.3207 4.64741 31.2789 4.68437C31.237 4.72134 31.2101 4.77244 31.2034 4.82785L31.1054 5.38738C31.1009 5.41224 31.0887 5.43511 31.0706 5.45277C31.0526 5.47044 31.0295 5.48201 31.0046 5.48586C30.9371 5.49675 30.8685 5.50697 30.7977 5.52145C30.7732 5.52658 30.7479 5.52373 30.7253 5.51333C30.7028 5.50293 30.6842 5.48552 30.6723 5.46365L30.4124 4.96298C30.3881 4.91366 30.3468 4.87505 30.296 4.85442C30.2452 4.83379 30.1885 4.83254 30.1366 4.85091L29.9002 4.93683C29.8481 4.95518 29.8045 4.99213 29.7776 5.0406C29.7507 5.08906 29.7424 5.14565 29.7544 5.19951L29.8548 5.75639C29.8591 5.78135 29.8552 5.80712 29.8439 5.82986C29.8325 5.8526 29.8141 5.87111 29.7915 5.88265C29.7295 5.915 29.6673 5.95087 29.608 5.98838C29.5863 6.00164 29.561 6.00768 29.5357 6.00563C29.5105 6.00358 29.4866 5.99354 29.4675 5.97697L29.047 5.60367C29.0076 5.56529 28.9554 5.54295 28.9004 5.5409C28.8453 5.53886 28.7913 5.55726 28.7486 5.59258L28.5532 5.75322C28.5103 5.78831 28.4815 5.83789 28.4724 5.89257C28.4633 5.94725 28.4744 6.00323 28.5037 6.0499L28.7876 6.53838C28.8004 6.56028 28.8058 6.58583 28.8028 6.61117C28.7999 6.63652 28.7888 6.66028 28.7713 6.67887L28.7527 6.70011C28.712 6.74687 28.6738 6.79124 28.634 6.83904C28.6183 6.85882 28.5969 6.87317 28.5727 6.88004C28.5485 6.8869 28.5228 6.88593 28.4994 6.87725L27.9747 6.67275C27.9245 6.65092 27.8679 6.64827 27.8155 6.66529C27.7632 6.68232 27.7186 6.71786 27.6902 6.76527L27.5616 6.98307C27.5331 7.0307 27.5232 7.0871 27.5336 7.14136C27.5441 7.19563 27.5743 7.24388 27.6183 7.27679L28.0508 7.6371C28.0702 7.65333 28.0838 7.67547 28.0896 7.70023C28.0953 7.72499 28.093 7.75102 28.0828 7.77443C28.0568 7.83926 28.0301 7.90618 28.0087 7.97218C28.0004 7.99587 27.985 8.01642 27.9645 8.03096C27.9441 8.0455 27.9197 8.05331 27.8948 8.05329L27.3299 8.04115C27.2749 8.03795 27.2206 8.05517 27.1771 8.08953C27.1337 8.12388 27.1042 8.17297 27.0943 8.22746L27.0478 8.47647C27.0374 8.5309 27.0474 8.58708 27.0758 8.63427C27.1041 8.68147 27.1489 8.71637 27.2015 8.73232L27.7324 8.92024C27.756 8.92891 27.7762 8.94489 27.7901 8.96589C27.804 8.98689 27.8108 9.01182 27.8097 9.0371C27.8065 9.10626 27.8051 9.1772 27.8056 9.24826C27.806 9.27372 27.7985 9.29875 27.7841 9.31982C27.7697 9.34089 27.7491 9.35693 27.7252 9.36568L27.1905 9.5479C27.1375 9.56329 27.0918 9.59755 27.062 9.64423C27.0321 9.69091 27.0201 9.7468 27.0283 9.80139L27.0674 10.0505C27.0757 10.105 27.104 10.1544 27.1466 10.1889C27.1893 10.2235 27.2433 10.2408 27.2982 10.2375L27.8641 10.2309C27.8892 10.2306 27.9136 10.2385 27.9338 10.2533C27.954 10.268 27.9688 10.289 27.9762 10.313C27.9983 10.3811 28.022 10.4481 28.0447 10.5105C28.0537 10.534 28.055 10.5598 28.0484 10.5843C28.0417 10.6087 28.0276 10.6304 28.008 10.6463L27.5644 11.0033C27.5197 11.036 27.4885 11.0839 27.4765 11.138C27.4646 11.192 27.4728 11.2485 27.4995 11.2965L27.623 11.5176C27.6499 11.5656 27.6935 11.6018 27.7455 11.6193C27.7975 11.6368 27.8543 11.6344 27.9049 11.6125L28.4392 11.4117C28.4845 11.3946 28.5341 11.4043 28.5571 11.4347C28.6059 11.5 28.6403 11.5409 28.702 11.6123C28.7185 11.6311 28.7285 11.6548 28.7306 11.6799C28.7328 11.705 28.7268 11.7302 28.7138 11.7519L28.4171 12.2374C28.3863 12.2838 28.3733 12.3397 28.3804 12.3947C28.3876 12.4497 28.4144 12.5 28.4559 12.5363L28.647 12.6999C28.6887 12.7355 28.7419 12.7546 28.7969 12.7536C28.8518 12.7525 28.9046 12.7314 28.9455 12.6943L29.3789 12.3219C29.3983 12.3054 29.4225 12.2955 29.4477 12.2938C29.473 12.292 29.4981 12.2985 29.5193 12.3122L29.701 12.4194C29.7228 12.4317 29.7402 12.4506 29.7506 12.4734C29.761 12.4963 29.7639 12.522 29.759 12.5467L29.6428 13.1039C29.6313 13.1514 29.6351 13.2012 29.6538 13.2461C29.6726 13.291 29.7052 13.3285 29.7468 13.3532C29.7579 13.3598 29.7696 13.3654 29.7818 13.3698L30.0177 13.4583C30.0692 13.4771 30.1259 13.4765 30.1772 13.4565C30.2286 13.4365 30.2711 13.3985 30.297 13.3495L30.58 12.8531C30.5926 12.8314 30.6118 12.8142 30.6348 12.804C30.6577 12.7938 30.6832 12.7912 30.7076 12.7966C30.7935 12.8145 30.8553 12.8247 30.9097 12.8334L30.9234 12.8357C30.993 12.8497 31.0065 12.8906 31.0108 12.9205L31.0937 13.4928C31.0991 13.5477 31.1243 13.5985 31.1648 13.6355C31.2052 13.6726 31.2579 13.6933 31.3128 13.6936L31.5652 13.6947C31.6203 13.695 31.6738 13.6749 31.7155 13.6382C31.7571 13.6015 31.784 13.5508 31.7909 13.4957L31.889 12.9363C31.8935 12.9114 31.9056 12.8885 31.9237 12.8708C31.9417 12.8531 31.9648 12.8416 31.9897 12.8377C32.0572 12.8268 32.1258 12.8166 32.1966 12.8021C32.2212 12.797 32.2466 12.8 32.2693 12.8105C32.2919 12.821 32.3105 12.8386 32.3224 12.8606L32.5907 13.3589C32.6149 13.4083 32.6563 13.4469 32.7071 13.4676C32.7578 13.4882 32.8145 13.4894 32.8665 13.471L33.1032 13.385C33.1552 13.3667 33.1989 13.3297 33.2258 13.2812C33.2527 13.2328 33.261 13.1762 33.249 13.1223L33.1495 12.5647C33.1452 12.5398 33.1491 12.514 33.1604 12.4913C33.1718 12.4685 33.1902 12.45 33.2128 12.4385C33.2747 12.4063 33.3368 12.3704 33.3963 12.3327C33.418 12.3195 33.4433 12.3135 33.4686 12.3156C33.4938 12.3176 33.5177 12.3276 33.5368 12.3442L33.9563 12.7179C33.9957 12.7563 34.0479 12.7786 34.1029 12.7806C34.158 12.7827 34.212 12.7643 34.2547 12.729L34.4491 12.5678C34.492 12.5327 34.5208 12.4831 34.5299 12.4285C34.539 12.3738 34.5278 12.3179 34.4986 12.2713L34.2145 11.7822C34.202 11.7604 34.1969 11.735 34.1999 11.7099C34.2029 11.6847 34.2139 11.6612 34.2313 11.6427L34.2498 11.6215C34.2905 11.5747 34.3288 11.5303 34.3685 11.4826C34.3842 11.4628 34.4057 11.4484 34.4298 11.4416C34.454 11.4347 34.4797 11.4357 34.5031 11.4443L35.0277 11.649C35.078 11.671 35.1347 11.6738 35.1872 11.6568C35.2397 11.6398 35.2844 11.6042 35.3129 11.5566L35.4429 11.3364ZM29.1371 9.9978C29.0898 10.0248 29.0369 10.0403 28.9827 10.0429C28.9285 10.0454 28.8746 10.0351 28.8254 10.0126C28.7762 9.99015 28.7331 9.95624 28.6997 9.91366C28.6662 9.87109 28.6434 9.82106 28.633 9.76769C28.4899 9.05139 28.618 8.305 28.9924 7.67416C29.3668 7.04332 29.9605 6.57329 30.6578 6.35579C30.7097 6.3392 30.7647 6.33521 30.8182 6.34413C30.8717 6.35306 30.9223 6.37465 30.9657 6.40712C31.0091 6.4396 31.0441 6.48204 31.0678 6.53093C31.0915 6.57983 31.1033 6.63378 31.1021 6.68836L31.0604 8.70169C31.0594 8.76184 31.0427 8.82079 31.012 8.87272C30.9814 8.92464 30.9378 8.96774 30.8857 8.99773L29.1371 9.9978ZM30.0002 11.704C29.8229 11.5994 29.6573 11.4761 29.5061 11.3362C29.4669 11.2994 29.4371 11.2537 29.4189 11.2029C29.4007 11.1522 29.3947 11.0977 29.4014 11.0439C29.4081 10.9902 29.4273 10.9387 29.4574 10.8936C29.4876 10.8485 29.5278 10.8111 29.5749 10.7843L31.3202 9.78563C31.3727 9.75551 31.4321 9.73978 31.4924 9.74005C31.5527 9.74032 31.6117 9.75657 31.6635 9.78716L33.3801 10.8006C33.4263 10.8278 33.4655 10.8657 33.4943 10.9111C33.5232 10.9565 33.5409 11.0082 33.5461 11.0619C33.5513 11.1157 33.5438 11.1701 33.5243 11.2206C33.5047 11.2711 33.4735 11.3164 33.4334 11.3528C32.5044 12.1821 31.118 12.3639 30.0002 11.704ZM31.96 8.70395L32.002 6.69611C32.0029 6.64207 32.0165 6.5889 32.0416 6.54089C32.0667 6.49289 32.1027 6.4514 32.1465 6.41978C32.1904 6.38815 32.241 6.36729 32.2942 6.35886C32.3474 6.35043 32.4018 6.35469 32.4528 6.37127C32.6437 6.43533 32.8274 6.51924 33.0007 6.62166C34.1185 7.28158 34.629 8.58332 34.3508 9.79759C34.3383 9.8503 34.3137 9.89943 34.2789 9.94099C34.2442 9.98255 34.2002 10.0154 34.1506 10.0368C34.101 10.0582 34.0472 10.0677 33.9935 10.0643C33.9398 10.061 33.8877 10.045 33.8415 10.0176L32.1275 9.00576C32.0754 8.9751 32.0324 8.931 32.0029 8.87797C31.9735 8.82494 31.9587 8.76488 31.96 8.70395Z" fill="#ffffff"/>
<path d="M35.4429 11.3364C35.4681 11.288 35.4755 11.2323 35.4638 11.1793C35.4521 11.1262 35.422 11.0792 35.3789 11.0465L34.9473 10.6864C34.9279 10.6702 34.9143 10.6481 34.9086 10.6233C34.9028 10.5986 34.9052 10.5725 34.9153 10.5491C34.9412 10.4845 34.968 10.4174 34.9894 10.3514C34.9977 10.3277 35.0131 10.3071 35.0336 10.2926C35.054 10.278 35.0784 10.2702 35.1033 10.2703L35.6682 10.2829C35.7231 10.2861 35.7775 10.2689 35.8209 10.2345C35.8644 10.2002 35.8939 10.1511 35.9038 10.0966L35.9512 9.84811C35.9616 9.79368 35.9517 9.73748 35.9233 9.69027C35.8949 9.64306 35.8502 9.60817 35.7975 9.59226L35.266 9.40528C35.2425 9.39656 35.2223 9.38056 35.2084 9.35958C35.1946 9.33859 35.1877 9.31369 35.1888 9.28842C35.192 9.21956 35.1934 9.14832 35.1929 9.07726C35.1925 9.05181 35.2 9.02681 35.2144 9.00576C35.2288 8.98471 35.2494 8.96865 35.2732 8.95985L35.808 8.77743C35.8608 8.76155 35.9061 8.72695 35.9356 8.68011C35.965 8.63326 35.9766 8.57738 35.9681 8.52292L35.9288 8.27373C35.9204 8.21919 35.8922 8.16988 35.8496 8.13534C35.8069 8.1008 35.7529 8.08348 35.698 8.08675L35.1321 8.0933C35.107 8.09357 35.0826 8.08573 35.0624 8.07094C35.0422 8.05615 35.0274 8.0352 35.02 8.01117C34.9981 7.94319 34.9742 7.87605 34.9515 7.81369C34.9425 7.79018 34.9412 7.76435 34.9479 7.73995C34.9545 7.71554 34.9687 7.69383 34.9884 7.67797L35.4318 7.3209C35.4765 7.2882 35.5077 7.24027 35.5197 7.18621C35.5316 7.13215 35.5234 7.07573 35.4967 7.02767L35.3741 6.80591C35.3472 6.75792 35.3036 6.72172 35.2516 6.70424C35.1995 6.68677 35.1427 6.68925 35.0921 6.71121L34.5594 6.9177C34.5385 6.92802 34.5148 6.93075 34.4923 6.92541C34.4698 6.92008 34.4499 6.90701 34.436 6.88846C34.4274 6.87705 34.3547 6.78061 34.2949 6.7113C34.2784 6.69246 34.2683 6.66875 34.2662 6.64365C34.2641 6.61855 34.2701 6.59337 34.2833 6.5718L34.58 6.08576C34.6109 6.03941 34.6239 5.98349 34.6168 5.92847C34.6096 5.87345 34.5827 5.82311 34.5412 5.78686L34.35 5.62331C34.3084 5.58777 34.2551 5.56874 34.2002 5.56978C34.1453 5.57081 34.0925 5.59183 34.0515 5.62893L33.6177 6.00207C33.5983 6.01854 33.5741 6.02837 33.5489 6.03012C33.5236 6.03186 33.4985 6.02543 33.4773 6.01177L33.2957 5.90453C33.2738 5.89225 33.2565 5.87334 33.2461 5.85048C33.2357 5.82762 33.2327 5.80198 33.2377 5.77722L33.354 5.22017C33.3671 5.16621 33.3603 5.10946 33.3348 5.06053C33.3092 5.0116 33.2667 4.97385 33.2152 4.95435L32.9793 4.86581C32.9278 4.84701 32.8711 4.84767 32.8198 4.86768C32.7684 4.88769 32.7259 4.92568 32.7 4.97461L32.417 5.47103C32.4041 5.4932 32.3845 5.51066 32.361 5.5208C32.3376 5.53094 32.3115 5.53323 32.2868 5.52732C32.2342 5.51887 32.1206 5.49994 32.0691 5.49088C32.0239 5.48243 31.992 5.44359 31.9818 5.38605L31.9009 4.83105C31.896 4.77595 31.8709 4.7248 31.8305 4.68743C31.7902 4.65007 31.7374 4.62914 31.6823 4.62865L31.4301 4.62766C31.3746 4.62721 31.3207 4.64741 31.2789 4.68437C31.237 4.72134 31.2101 4.77244 31.2034 4.82785L31.1054 5.38738C31.1009 5.41224 31.0887 5.43511 31.0706 5.45277C31.0526 5.47044 31.0295 5.48201 31.0046 5.48586C30.9371 5.49675 30.8685 5.50697 30.7977 5.52145C30.7732 5.52658 30.7479 5.52373 30.7253 5.51333C30.7028 5.50293 30.6842 5.48552 30.6723 5.46365L30.4124 4.96298C30.3881 4.91366 30.3468 4.87505 30.296 4.85442C30.2452 4.83379 30.1885 4.83254 30.1366 4.85091L29.9002 4.93683C29.8481 4.95518 29.8045 4.99213 29.7776 5.0406C29.7507 5.08906 29.7424 5.14565 29.7544 5.19951L29.8548 5.75639C29.8591 5.78135 29.8552 5.80712 29.8439 5.82986C29.8325 5.8526 29.8141 5.87111 29.7915 5.88265C29.7295 5.915 29.6673 5.95087 29.608 5.98838C29.5863 6.00164 29.561 6.00768 29.5357 6.00563C29.5105 6.00358 29.4866 5.99354 29.4675 5.97697L29.047 5.60367C29.0076 5.56529 28.9554 5.54295 28.9004 5.5409C28.8453 5.53886 28.7913 5.55726 28.7486 5.59258L28.5532 5.75322C28.5103 5.78831 28.4815 5.83789 28.4724 5.89257C28.4633 5.94725 28.4744 6.00323 28.5037 6.0499L28.7876 6.53838C28.8004 6.56028 28.8058 6.58583 28.8028 6.61117C28.7999 6.63652 28.7888 6.66028 28.7713 6.67887L28.7527 6.70011C28.712 6.74687 28.6738 6.79124 28.634 6.83904C28.6183 6.85882 28.5969 6.87317 28.5727 6.88004C28.5485 6.8869 28.5228 6.88593 28.4994 6.87725L27.9747 6.67275C27.9245 6.65092 27.8679 6.64827 27.8155 6.66529C27.7632 6.68232 27.7186 6.71786 27.6902 6.76527L27.5616 6.98307C27.5331 7.0307 27.5232 7.0871 27.5336 7.14136C27.5441 7.19563 27.5743 7.24388 27.6183 7.27679L28.0508 7.6371C28.0702 7.65333 28.0838 7.67547 28.0896 7.70023C28.0953 7.72499 28.093 7.75102 28.0828 7.77443C28.0568 7.83926 28.0301 7.90618 28.0087 7.97218C28.0004 7.99587 27.985 8.01642 27.9645 8.03096C27.9441 8.0455 27.9197 8.05331 27.8948 8.05329L27.3299 8.04115C27.2749 8.03795 27.2206 8.05517 27.1771 8.08953C27.1337 8.12388 27.1042 8.17297 27.0943 8.22746L27.0478 8.47647C27.0374 8.5309 27.0474 8.58708 27.0758 8.63427C27.1041 8.68147 27.1489 8.71637 27.2015 8.73232L27.7324 8.92024C27.756 8.92891 27.7762 8.94489 27.7901 8.96589C27.804 8.98689 27.8108 9.01182 27.8097 9.0371C27.8065 9.10626 27.8051 9.1772 27.8056 9.24826C27.806 9.27372 27.7985 9.29875 27.7841 9.31982C27.7697 9.34089 27.7491 9.35693 27.7252 9.36568L27.1905 9.5479C27.1375 9.56329 27.0918 9.59755 27.062 9.64423C27.0321 9.69091 27.0201 9.7468 27.0283 9.80139L27.0674 10.0505C27.0757 10.105 27.104 10.1544 27.1466 10.1889C27.1893 10.2235 27.2433 10.2408 27.2982 10.2375L27.8641 10.2309C27.8892 10.2306 27.9136 10.2385 27.9338 10.2533C27.954 10.268 27.9688 10.289 27.9762 10.313C27.9983 10.3811 28.022 10.4481 28.0447 10.5105C28.0537 10.534 28.055 10.5598 28.0484 10.5843C28.0417 10.6087 28.0276 10.6304 28.008 10.6463L27.5644 11.0033C27.5197 11.036 27.4885 11.0839 27.4765 11.138C27.4646 11.192 27.4728 11.2485 27.4995 11.2965L27.623 11.5176C27.6499 11.5656 27.6935 11.6018 27.7455 11.6193C27.7975 11.6368 27.8543 11.6344 27.9049 11.6125L28.4392 11.4117C28.4845 11.3946 28.5341 11.4043 28.5571 11.4347C28.6059 11.5 28.6403 11.5409 28.702 11.6123C28.7185 11.6311 28.7285 11.6548 28.7306 11.6799C28.7328 11.705 28.7268 11.7302 28.7138 11.7519L28.4171 12.2374C28.3863 12.2838 28.3733 12.3397 28.3804 12.3947C28.3876 12.4497 28.4144 12.5 28.4559 12.5363L28.647 12.6999C28.6887 12.7355 28.7419 12.7546 28.7969 12.7536C28.8518 12.7525 28.9046 12.7314 28.9455 12.6943L29.3789 12.3219C29.3983 12.3054 29.4225 12.2955 29.4477 12.2938C29.473 12.292 29.4981 12.2985 29.5193 12.3122L29.701 12.4194C29.7228 12.4317 29.7402 12.4506 29.7506 12.4734C29.761 12.4963 29.7639 12.522 29.759 12.5467L29.6428 13.1039C29.6313 13.1514 29.6351 13.2012 29.6538 13.2461C29.6726 13.291 29.7052 13.3285 29.7468 13.3532C29.7579 13.3598 29.7696 13.3654 29.7818 13.3698L30.0177 13.4583C30.0692 13.4771 30.1259 13.4765 30.1772 13.4565C30.2286 13.4365 30.2711 13.3985 30.297 13.3495L30.58 12.8531C30.5926 12.8314 30.6118 12.8142 30.6348 12.804C30.6577 12.7938 30.6832 12.7912 30.7076 12.7966C30.7935 12.8145 30.8553 12.8247 30.9097 12.8334L30.9234 12.8357C30.993 12.8497 31.0065 12.8906 31.0108 12.9205L31.0937 13.4928C31.0991 13.5477 31.1243 13.5985 31.1648 13.6355C31.2052 13.6726 31.2579 13.6933 31.3128 13.6936L31.5652 13.6947C31.6203 13.695 31.6738 13.6749 31.7155 13.6382C31.7571 13.6015 31.784 13.5508 31.7909 13.4957L31.889 12.9363C31.8935 12.9114 31.9056 12.8885 31.9237 12.8708C31.9417 12.8531 31.9648 12.8416 31.9897 12.8377C32.0572 12.8268 32.1258 12.8166 32.1966 12.8021C32.2212 12.797 32.2466 12.8 32.2693 12.8105C32.2919 12.821 32.3105 12.8386 32.3224 12.8606L32.5907 13.3589C32.6149 13.4083 32.6563 13.4469 32.7071 13.4676C32.7578 13.4882 32.8145 13.4894 32.8665 13.471L33.1032 13.385C33.1552 13.3667 33.1989 13.3297 33.2258 13.2812C33.2527 13.2328 33.261 13.1762 33.249 13.1223L33.1495 12.5647C33.1452 12.5398 33.1491 12.514 33.1604 12.4913C33.1718 12.4685 33.1902 12.45 33.2128 12.4385C33.2747 12.4063 33.3368 12.3704 33.3963 12.3327C33.418 12.3195 33.4433 12.3135 33.4686 12.3156C33.4938 12.3176 33.5177 12.3276 33.5368 12.3442L33.9563 12.7179C33.9957 12.7563 34.0479 12.7786 34.1029 12.7806C34.158 12.7827 34.212 12.7643 34.2547 12.729L34.4491 12.5678C34.492 12.5327 34.5208 12.4831 34.5299 12.4285C34.539 12.3738 34.5278 12.3179 34.4986 12.2713L34.2145 11.7822C34.202 11.7604 34.1969 11.735 34.1999 11.7099C34.2029 11.6847 34.2139 11.6612 34.2313 11.6427L34.2498 11.6215C34.2905 11.5747 34.3288 11.5303 34.3685 11.4826C34.3842 11.4628 34.4057 11.4484 34.4298 11.4416C34.454 11.4347 34.4797 11.4357 34.5031 11.4443L35.0277 11.649C35.078 11.671 35.1347 11.6738 35.1872 11.6568C35.2397 11.6398 35.2844 11.6042 35.3129 11.5566L35.4429 11.3364ZM29.1371 9.9978C29.0898 10.0248 29.0369 10.0403 28.9827 10.0429C28.9285 10.0454 28.8746 10.0351 28.8254 10.0126C28.7762 9.99015 28.7331 9.95624 28.6997 9.91366C28.6662 9.87109 28.6434 9.82106 28.633 9.76769C28.4899 9.05139 28.618 8.305 28.9924 7.67416C29.3668 7.04332 29.9605 6.57329 30.6578 6.35579C30.7097 6.3392 30.7647 6.33521 30.8182 6.34413C30.8717 6.35306 30.9223 6.37465 30.9657 6.40712C31.0091 6.4396 31.0441 6.48204 31.0678 6.53093C31.0915 6.57983 31.1033 6.63378 31.1021 6.68836L31.0604 8.70169C31.0594 8.76184 31.0427 8.82079 31.012 8.87272C30.9814 8.92464 30.9378 8.96774 30.8857 8.99773L29.1371 9.9978ZM30.0002 11.704C29.8229 11.5994 29.6573 11.4761 29.5061 11.3362C29.4669 11.2994 29.4371 11.2537 29.4189 11.2029C29.4007 11.1522 29.3947 11.0977 29.4014 11.0439C29.4081 10.9902 29.4273 10.9387 29.4574 10.8936C29.4876 10.8485 29.5278 10.8111 29.5749 10.7843L31.3202 9.78563C31.3727 9.75551 31.4321 9.73978 31.4924 9.74005C31.5527 9.74032 31.6117 9.75657 31.6635 9.78716L33.3801 10.8006C33.4263 10.8278 33.4655 10.8657 33.4943 10.9111C33.5232 10.9565 33.5409 11.0082 33.5461 11.0619C33.5513 11.1157 33.5438 11.1701 33.5243 11.2206C33.5047 11.2711 33.4735 11.3164 33.4334 11.3528C32.5044 12.1821 31.118 12.3639 30.0002 11.704ZM31.96 8.70395L32.002 6.69611C32.0029 6.64207 32.0165 6.5889 32.0416 6.54089C32.0667 6.49289 32.1027 6.4514 32.1465 6.41978C32.1904 6.38815 32.241 6.36729 32.2942 6.35886C32.3474 6.35043 32.4018 6.35469 32.4528 6.37127C32.6437 6.43533 32.8274 6.51924 33.0007 6.62166C34.1185 7.28158 34.629 8.58332 34.3508 9.79759C34.3383 9.8503 34.3137 9.89943 34.2789 9.94099C34.2442 9.98255 34.2002 10.0154 34.1506 10.0368C34.101 10.0582 34.0472 10.0677 33.9935 10.0643C33.9398 10.061 33.8877 10.045 33.8415 10.0176L32.1275 9.00576C32.0754 8.9751 32.0324 8.931 32.0029 8.87797C31.9735 8.82494 31.9587 8.76488 31.96 8.70395Z" stroke="#ffffff" stroke-width="0.6" mask="url(#path-6-outside-2_685_874)"/>
</svg>
