<svg width="74" height="77" viewBox="0 0 74 77" fill="none" xmlns="http://www.w3.org/2000/svg">
<path d="M44.1663 49C43.5147 47.0179 42.9131 45.1749 42.2614 43.2043L38.641 46.4209C36.725 48.1596 34.0236 47.3714 33.3274 44.8329C32.581 42.0974 31.9182 39.3386 31.2944 36.5683C31.1792 36.1334 31.1504 35.6787 31.2097 35.2318C31.269 34.785 31.4152 34.3554 31.6393 33.9692C31.8634 33.5831 32.1607 33.2485 32.5132 32.9859C32.8657 32.7233 33.2659 32.5381 33.6894 32.4418C35.3604 31.9839 36.9311 32.9286 37.5326 34.818C37.8223 35.7395 38.0339 36.6842 38.3235 37.7796C39.1813 36.9798 39.9332 36.2959 40.6685 35.5946C42.8129 33.543 45.5087 32.662 48.2156 31.9607C49.6749 31.5782 51.0006 32.4128 51.8862 33.6994C52.3245 34.3634 52.6643 35.0921 52.8943 35.8612C54.3369 40.4688 55.7405 45.0821 57.1497 49.7013C58.2358 53.2714 55.9912 56.5576 52.3763 56.6097C48.9286 56.6561 45.4752 56.6097 42.0275 56.6097C40.3565 56.6097 39.9611 57.0038 39.9611 58.7831C39.9611 63.2863 39.9611 67.7895 39.9611 72.2928C39.9611 74.3676 38.8471 75.8397 37.1093 76.2396C36.5916 76.3756 36.0512 76.3895 35.5277 76.2802C35.0042 76.1708 34.5108 75.9411 34.0836 75.6077C33.6564 75.2744 33.3063 74.8458 33.0589 74.3535C32.8114 73.8611 32.6729 73.3174 32.6534 72.7622C32.5754 71.0757 32.62 69.3833 32.62 67.6968C32.62 63.5123 32.62 59.3259 32.62 55.1376C32.62 51.2024 34.7421 49.0232 38.5352 49.0116C40.3733 48.9942 42.189 49 44.1663 49Z" fill="black"/>
<path d="M51.0166 58.7449C52.9338 58.7449 54.851 58.7449 56.7683 58.7449C58.5469 58.7449 59.4945 59.7689 59.5 61.6704C59.5 65.4033 59.5 69.1343 59.5 72.8633C59.5 74.6771 58.6411 75.6893 56.9345 75.7069C52.9671 75.7537 48.9978 75.7537 45.0267 75.7069C43.3145 75.7069 42.5111 74.7707 42.5 72.9862C42.5 69.1479 42.5 65.3117 42.5 61.4773C42.5 59.6869 43.4254 58.7683 45.1597 58.7566C47.1102 58.7332 49.0662 58.7449 51.0166 58.7449Z" fill="black"/>
<path d="M40.7584 17.68C41.655 17.6632 42.5459 17.8269 43.3778 18.1613C44.2097 18.4958 44.9656 18.9942 45.6005 19.6267C46.2354 20.2593 46.7362 21.0131 47.073 21.8431C47.4099 22.6732 47.5759 23.5625 47.5612 24.458C47.5612 28.3884 44.5257 31.3388 40.5145 31.328C36.9044 31.328 33.9014 28.1772 33.9123 24.3984C33.9062 23.5044 34.08 22.6182 34.4234 21.7925C34.7668 20.9668 35.2728 20.2185 35.9114 19.5919C36.5499 18.9652 37.308 18.4731 38.1406 18.1447C38.9733 17.8163 39.8635 17.6582 40.7584 17.68Z" fill="black"/>
<mask id="path-6-outside-1_1193_1345" maskUnits="userSpaceOnUse" x="14.3242" y="12.2065" width="18" height="18" fill="black">
<rect fill="white" x="14.3242" y="12.2065" width="18" height="18"/>
<path d="M31.3242 20.9709C31.319 20.874 31.28 20.7821 31.2141 20.7114C31.1482 20.6408 31.0597 20.596 30.9642 20.5849L29.9781 20.4238C29.9337 20.4165 29.8929 20.3948 29.8617 20.3621C29.8305 20.3295 29.8106 20.2875 29.805 20.2425C29.7861 20.1202 29.7665 19.9932 29.7396 19.8728C29.7309 19.829 29.736 19.7836 29.7541 19.7429C29.7723 19.7022 29.8026 19.6682 29.8408 19.6457L30.7169 19.1545C30.8039 19.1097 30.8716 19.0342 30.907 18.9424C30.9425 18.8505 30.9433 18.7487 30.9092 18.6563L30.7573 18.2331C30.724 18.1404 30.658 18.0633 30.5719 18.0167C30.4858 17.97 30.3857 17.9571 30.2908 17.9803L29.3081 18.1744C29.2641 18.1824 29.2188 18.1761 29.1786 18.1565C29.1384 18.1369 29.1054 18.105 29.0842 18.0653C29.0269 17.957 28.9646 17.8467 28.8996 17.7384C28.876 17.6998 28.8649 17.6547 28.868 17.6094C28.871 17.5642 28.888 17.521 28.9165 17.486L29.5704 16.7234C29.6368 16.6514 29.6749 16.5574 29.6777 16.4591C29.6805 16.3608 29.6476 16.2648 29.5854 16.1891L29.3 15.8431C29.2379 15.7672 29.1501 15.7172 29.0536 15.7029C28.9571 15.6885 28.8588 15.7108 28.7777 15.7655L27.9173 16.287C27.8792 16.31 27.8347 16.3201 27.7904 16.3157C27.7462 16.3113 27.7045 16.2926 27.6715 16.2625C27.5765 16.1782 27.4792 16.0971 27.3881 16.0221C27.3531 15.9943 27.3278 15.9559 27.3159 15.9125C27.304 15.8691 27.3061 15.8231 27.3219 15.781L27.6781 14.8336C27.7169 14.7432 27.7214 14.6415 27.6908 14.548C27.6603 14.4544 27.5967 14.3755 27.5123 14.3261L27.1242 14.0974C27.0397 14.0482 26.9402 14.0322 26.8448 14.0525C26.7493 14.0728 26.6646 14.1279 26.6069 14.2073L25.9781 15.0048C25.9554 15.0395 25.9216 15.0651 25.8823 15.0773C25.843 15.0895 25.8007 15.0875 25.7627 15.0716C25.7392 15.0619 25.5408 14.98 25.3865 14.9279C25.3442 14.914 25.3074 14.8868 25.2816 14.8503C25.2557 14.8137 25.2421 14.7698 25.2427 14.7249L25.2577 13.7126C25.263 13.6137 25.2325 13.5163 25.1719 13.4386C25.1112 13.3608 25.0245 13.308 24.9281 13.2901L24.4877 13.2125C24.3917 13.1957 24.293 13.2147 24.2099 13.2659C24.1268 13.3171 24.0649 13.3971 24.0358 13.4909L23.7088 14.4542C23.694 14.497 23.666 14.5338 23.6289 14.5593C23.5918 14.5848 23.5475 14.5977 23.5027 14.5959H23.1277C23.0832 14.5969 23.0395 14.5836 23.0029 14.558C22.9663 14.5324 22.9386 14.4958 22.9238 14.4534L22.5985 13.4955C22.5698 13.401 22.5081 13.3203 22.4247 13.2685C22.3414 13.2167 22.2422 13.1973 22.1458 13.214L21.7046 13.2917C21.6088 13.3094 21.5226 13.3617 21.462 13.4387C21.4015 13.5158 21.3707 13.6124 21.3754 13.7106L21.3908 14.7264C21.3911 14.772 21.3768 14.8165 21.35 14.8532C21.3233 14.8899 21.2855 14.917 21.2423 14.9303C21.1542 14.9648 20.9631 15.0386 20.8761 15.0712C20.7992 15.0992 20.7154 15.0685 20.6477 14.9897L20.0223 14.2131C19.9649 14.1332 19.8803 14.0776 19.7848 14.0568C19.6892 14.0361 19.5894 14.0518 19.5046 14.1009L19.1177 14.3272C19.0323 14.3767 18.9681 14.4563 18.9374 14.5508C18.9067 14.6452 18.9118 14.7477 18.9515 14.8386L19.3073 15.7837C19.3228 15.8259 19.3249 15.8719 19.3131 15.9153C19.3014 15.9587 19.2765 15.9973 19.2419 16.0256C19.1485 16.1033 19.0527 16.1809 18.9573 16.2671C18.9245 16.2971 18.8832 16.3156 18.8392 16.3201C18.7953 16.3246 18.7511 16.3147 18.7131 16.292L17.8627 15.7604C17.781 15.7068 17.6828 15.6851 17.5864 15.6994C17.49 15.7137 17.4021 15.763 17.3392 15.8381L17.055 16.1833C16.9919 16.2584 16.9584 16.3545 16.961 16.453C16.9637 16.5515 17.0022 16.6456 17.0692 16.7172L17.7261 17.479C17.7553 17.5133 17.7727 17.5562 17.7758 17.6013C17.779 17.6464 17.7676 17.6914 17.7435 17.7295C17.6777 17.8351 17.615 17.9461 17.5581 18.0572C17.5368 18.0971 17.5035 18.1292 17.463 18.1489C17.4225 18.1686 17.3769 18.1748 17.3327 18.1667L16.3515 17.9752C16.2565 17.9521 16.1564 17.9651 16.0703 18.0117C15.9842 18.0583 15.9181 18.1353 15.8846 18.228L15.7308 18.6505C15.6968 18.743 15.6976 18.8449 15.733 18.9368C15.7684 19.0288 15.8361 19.1044 15.9231 19.1494L16.7992 19.6406C16.8386 19.6626 16.8699 19.6969 16.8883 19.7383C16.9067 19.7798 16.9112 19.8262 16.9011 19.8705L16.8919 19.9198C16.8719 20.0281 16.8535 20.1306 16.8358 20.2397C16.8296 20.2842 16.8098 20.3256 16.779 20.3579C16.7481 20.3903 16.708 20.412 16.6642 20.4199L15.6761 20.5811C15.5795 20.593 15.4905 20.6401 15.4258 20.7135C15.361 20.7869 15.3249 20.8815 15.3242 20.9798V21.4295C15.3237 21.5281 15.3594 21.6235 15.4245 21.6971C15.4895 21.7707 15.5794 21.8173 15.6765 21.8279L16.6642 21.9886C16.7086 21.9959 16.7495 22.0175 16.7807 22.0502C16.8119 22.0829 16.8317 22.1249 16.8373 22.1699C16.8561 22.2926 16.8758 22.4192 16.9027 22.5396C16.9114 22.5834 16.9063 22.6288 16.8881 22.6695C16.87 22.7102 16.8397 22.7442 16.8015 22.7667L15.9258 23.2587C15.8388 23.3035 15.7711 23.379 15.7356 23.4708C15.7002 23.5627 15.6994 23.6645 15.7335 23.7569L15.8873 24.1801C15.9207 24.2728 15.9867 24.3498 16.0728 24.3964C16.1588 24.443 16.2589 24.456 16.3538 24.4329L17.3365 24.2407C17.3805 24.2326 17.4258 24.2389 17.466 24.2585C17.5063 24.2781 17.5393 24.3101 17.5604 24.3498C17.6181 24.4585 17.68 24.5684 17.745 24.6767C17.7687 24.7153 17.7798 24.7604 17.7768 24.8057C17.7738 24.851 17.7567 24.8942 17.7281 24.9291L17.0742 25.6913C17.007 25.7628 16.968 25.8566 16.9644 25.955C16.9609 26.0535 16.9931 26.1498 17.055 26.226L17.34 26.572C17.402 26.648 17.4898 26.698 17.5863 26.7124C17.6828 26.7267 17.7812 26.7044 17.8623 26.6496L18.7227 26.1282C18.7608 26.1051 18.8053 26.095 18.8496 26.0994C18.8938 26.1038 18.9355 26.1225 18.9685 26.1526C19.0638 26.2369 19.1608 26.318 19.2519 26.393C19.2869 26.4209 19.3121 26.4593 19.3241 26.5026C19.3361 26.5459 19.3341 26.592 19.3185 26.6341L18.9619 27.5815C18.9231 27.6719 18.9186 27.7736 18.9491 27.8671C18.9797 27.9607 19.0432 28.0397 19.1277 28.089L19.5165 28.3158C19.601 28.365 19.7005 28.3811 19.7959 28.3609C19.8914 28.3407 19.9761 28.2856 20.0338 28.2063L20.6704 27.4161C20.7242 27.349 20.8088 27.3191 20.8715 27.3447C21.0054 27.4006 21.095 27.4321 21.2538 27.4856C21.2961 27.4996 21.3329 27.5268 21.3589 27.5633C21.3848 27.5999 21.3986 27.6438 21.3981 27.6887L21.3827 28.7002C21.3775 28.799 21.4081 28.8964 21.4687 28.9741C21.5294 29.0518 21.6159 29.1046 21.7123 29.1227L22.1527 29.2003C22.2487 29.2172 22.3474 29.1983 22.4306 29.1471C22.5138 29.0958 22.5756 29.0158 22.6046 28.9219L22.9315 27.9601C22.9463 27.9173 22.9743 27.8805 23.0115 27.8549C23.0486 27.8294 23.0928 27.8166 23.1377 27.8184H23.5127C23.5572 27.8174 23.6009 27.8307 23.6375 27.8563C23.6741 27.8819 23.7018 27.9185 23.7165 27.9609L24.0423 28.9188C24.0675 29.002 24.1185 29.0748 24.1877 29.1266C24.2569 29.1783 24.3408 29.2064 24.4269 29.2065C24.4499 29.2066 24.4728 29.2045 24.4954 29.2003L24.9365 29.1227C25.0324 29.1049 25.1185 29.0527 25.1791 28.9756C25.2396 28.8986 25.2704 28.8019 25.2658 28.7037L25.2504 27.6879C25.2501 27.6432 25.2639 27.5995 25.2898 27.5632C25.3158 27.5269 25.3525 27.4999 25.3946 27.486C25.5423 27.4359 25.6461 27.3956 25.7373 27.3598L25.7604 27.3509C25.8796 27.3094 25.9373 27.3598 25.9708 27.4018L26.615 28.2028C26.6727 28.282 26.7574 28.337 26.8527 28.3572C26.9481 28.3774 27.0475 28.3614 27.1319 28.3123L27.5192 28.0859C27.6039 28.0365 27.6677 27.9574 27.6982 27.8635C27.7288 27.7697 27.7241 27.6678 27.685 27.5773L27.3296 26.6322C27.3139 26.5901 27.3118 26.544 27.3234 26.5006C27.3351 26.4572 27.36 26.4186 27.3946 26.3903C27.4881 26.3126 27.5838 26.235 27.6792 26.1488C27.7122 26.1188 27.7538 26.1002 27.798 26.0959C27.8422 26.0916 27.8865 26.1016 27.9246 26.1247L28.7858 26.645C28.8674 26.6987 28.9656 26.7204 29.062 26.7061C29.1584 26.6918 29.2463 26.6425 29.3092 26.5673L29.5938 26.2218C29.657 26.1466 29.6904 26.0506 29.6878 25.9521C29.6852 25.8535 29.6467 25.7595 29.5796 25.6879L28.9234 24.9241C28.8943 24.8898 28.8769 24.8469 28.8738 24.8018C28.8706 24.7566 28.882 24.7117 28.9061 24.6736C28.9719 24.5684 29.0346 24.4574 29.0915 24.3459C29.1129 24.3061 29.1462 24.274 29.1867 24.2544C29.2271 24.2347 29.2727 24.2284 29.3169 24.2364L30.2969 24.4294C30.3919 24.4525 30.492 24.4396 30.5781 24.3929C30.6643 24.3463 30.7304 24.2693 30.7638 24.1766L30.9158 23.7542C30.9497 23.6617 30.9489 23.5599 30.9135 23.468C30.878 23.3761 30.8104 23.3005 30.7234 23.2556L29.8465 22.7636C29.8077 22.7415 29.7769 22.7072 29.7589 22.6661C29.7408 22.6249 29.7363 22.5789 29.7461 22.5349L29.7554 22.4856C29.7754 22.3773 29.7938 22.2748 29.8115 22.1657C29.8176 22.1212 29.8375 22.0798 29.8683 22.0475C29.8991 22.0151 29.9393 21.9934 29.9831 21.9855L30.9711 21.8248C31.068 21.8129 31.1573 21.7659 31.2223 21.6924C31.2873 21.619 31.3235 21.5241 31.3242 21.4256V20.9709ZM20.4608 24.6208C20.4128 24.705 20.3458 24.7764 20.2652 24.8293C20.1846 24.8822 20.0927 24.9151 19.9971 24.9252C19.9015 24.9352 19.8048 24.9223 19.7152 24.8873C19.6255 24.8524 19.5453 24.7964 19.4811 24.7241C18.6147 23.7569 18.1362 22.4984 18.1392 21.1943C18.1422 19.8902 18.6264 18.634 19.4973 17.6708C19.5617 17.5985 19.6423 17.5427 19.7323 17.508C19.8223 17.4733 19.9192 17.4607 20.015 17.4712C20.1107 17.4817 20.2027 17.515 20.2832 17.5684C20.3637 17.6218 20.4305 17.6938 20.4781 17.7784L22.2338 20.8983C22.2866 20.9913 22.3143 21.0967 22.3143 21.2039C22.3143 21.3111 22.2866 21.4164 22.2338 21.5095L20.4608 24.6208ZM23.3242 26.4528C22.9582 26.4529 22.5932 26.4138 22.2354 26.3363C22.1422 26.3153 22.0551 26.2724 21.9814 26.2111C21.9077 26.1498 21.8493 26.0718 21.811 25.9834C21.7726 25.8951 21.7555 25.7989 21.7608 25.7026C21.7662 25.6063 21.794 25.5127 21.8419 25.4293L23.6111 22.3229C23.6644 22.2293 23.7411 22.1516 23.8336 22.0975C23.9261 22.0434 24.0312 22.015 24.1381 22.015H27.6819C27.7774 22.0149 27.8715 22.0374 27.9567 22.0809C28.042 22.1243 28.1158 22.1874 28.1724 22.265C28.229 22.3426 28.2666 22.4326 28.2823 22.5277C28.298 22.6228 28.2913 22.7202 28.2627 22.8122C27.59 24.9214 25.6319 26.4528 23.3242 26.4528ZM23.6131 20.0887L21.8627 16.9769C21.8152 16.8934 21.788 16.7997 21.783 16.7035C21.778 16.6074 21.7956 16.5114 21.8342 16.4233C21.8728 16.3352 21.9314 16.2575 22.0052 16.1966C22.0791 16.1356 22.1661 16.093 22.2592 16.0722C22.6094 15.9977 22.9663 15.9602 23.3242 15.9604C25.6319 15.9604 27.59 17.4918 28.2615 19.6022C28.2901 19.6941 28.2968 19.7916 28.2811 19.8866C28.2655 19.9817 28.2278 20.0717 28.1712 20.1493C28.1147 20.227 28.0408 20.2901 27.9556 20.3335C27.8704 20.3769 27.7762 20.3995 27.6808 20.3993H24.1423C24.0347 20.3996 23.929 20.3709 23.836 20.3163C23.7431 20.2617 23.6661 20.1832 23.6131 20.0887Z"/>
</mask>
<path d="M31.3242 20.9709C31.319 20.874 31.28 20.7821 31.2141 20.7114C31.1482 20.6408 31.0597 20.596 30.9642 20.5849L29.9781 20.4238C29.9337 20.4165 29.8929 20.3948 29.8617 20.3621C29.8305 20.3295 29.8106 20.2875 29.805 20.2425C29.7861 20.1202 29.7665 19.9932 29.7396 19.8728C29.7309 19.829 29.736 19.7836 29.7541 19.7429C29.7723 19.7022 29.8026 19.6682 29.8408 19.6457L30.7169 19.1545C30.8039 19.1097 30.8716 19.0342 30.907 18.9424C30.9425 18.8505 30.9433 18.7487 30.9092 18.6563L30.7573 18.2331C30.724 18.1404 30.658 18.0633 30.5719 18.0167C30.4858 17.97 30.3857 17.9571 30.2908 17.9803L29.3081 18.1744C29.2641 18.1824 29.2188 18.1761 29.1786 18.1565C29.1384 18.1369 29.1054 18.105 29.0842 18.0653C29.0269 17.957 28.9646 17.8467 28.8996 17.7384C28.876 17.6998 28.8649 17.6547 28.868 17.6094C28.871 17.5642 28.888 17.521 28.9165 17.486L29.5704 16.7234C29.6368 16.6514 29.6749 16.5574 29.6777 16.4591C29.6805 16.3608 29.6476 16.2648 29.5854 16.1891L29.3 15.8431C29.2379 15.7672 29.1501 15.7172 29.0536 15.7029C28.9571 15.6885 28.8588 15.7108 28.7777 15.7655L27.9173 16.287C27.8792 16.31 27.8347 16.3201 27.7904 16.3157C27.7462 16.3113 27.7045 16.2926 27.6715 16.2625C27.5765 16.1782 27.4792 16.0971 27.3881 16.0221C27.3531 15.9943 27.3278 15.9559 27.3159 15.9125C27.304 15.8691 27.3061 15.8231 27.3219 15.781L27.6781 14.8336C27.7169 14.7432 27.7214 14.6415 27.6908 14.548C27.6603 14.4544 27.5967 14.3755 27.5123 14.3261L27.1242 14.0974C27.0397 14.0482 26.9402 14.0322 26.8448 14.0525C26.7493 14.0728 26.6646 14.1279 26.6069 14.2073L25.9781 15.0048C25.9554 15.0395 25.9216 15.0651 25.8823 15.0773C25.843 15.0895 25.8007 15.0875 25.7627 15.0716C25.7392 15.0619 25.5408 14.98 25.3865 14.9279C25.3442 14.914 25.3074 14.8868 25.2816 14.8503C25.2557 14.8137 25.2421 14.7698 25.2427 14.7249L25.2577 13.7126C25.263 13.6137 25.2325 13.5163 25.1719 13.4386C25.1112 13.3608 25.0245 13.308 24.9281 13.2901L24.4877 13.2125C24.3917 13.1957 24.293 13.2147 24.2099 13.2659C24.1268 13.3171 24.0649 13.3971 24.0358 13.4909L23.7088 14.4542C23.694 14.497 23.666 14.5338 23.6289 14.5593C23.5918 14.5848 23.5475 14.5977 23.5027 14.5959H23.1277C23.0832 14.5969 23.0395 14.5836 23.0029 14.558C22.9663 14.5324 22.9386 14.4958 22.9238 14.4534L22.5985 13.4955C22.5698 13.401 22.5081 13.3203 22.4247 13.2685C22.3414 13.2167 22.2422 13.1973 22.1458 13.214L21.7046 13.2917C21.6088 13.3094 21.5226 13.3617 21.462 13.4387C21.4015 13.5158 21.3707 13.6124 21.3754 13.7106L21.3908 14.7264C21.3911 14.772 21.3768 14.8165 21.35 14.8532C21.3233 14.8899 21.2855 14.917 21.2423 14.9303C21.1542 14.9648 20.9631 15.0386 20.8761 15.0712C20.7992 15.0992 20.7154 15.0685 20.6477 14.9897L20.0223 14.2131C19.9649 14.1332 19.8803 14.0776 19.7848 14.0568C19.6892 14.0361 19.5894 14.0518 19.5046 14.1009L19.1177 14.3272C19.0323 14.3767 18.9681 14.4563 18.9374 14.5508C18.9067 14.6452 18.9118 14.7477 18.9515 14.8386L19.3073 15.7837C19.3228 15.8259 19.3249 15.8719 19.3131 15.9153C19.3014 15.9587 19.2765 15.9973 19.2419 16.0256C19.1485 16.1033 19.0527 16.1809 18.9573 16.2671C18.9245 16.2971 18.8832 16.3156 18.8392 16.3201C18.7953 16.3246 18.7511 16.3147 18.7131 16.292L17.8627 15.7604C17.781 15.7068 17.6828 15.6851 17.5864 15.6994C17.49 15.7137 17.4021 15.763 17.3392 15.8381L17.055 16.1833C16.9919 16.2584 16.9584 16.3545 16.961 16.453C16.9637 16.5515 17.0022 16.6456 17.0692 16.7172L17.7261 17.479C17.7553 17.5133 17.7727 17.5562 17.7758 17.6013C17.779 17.6464 17.7676 17.6914 17.7435 17.7295C17.6777 17.8351 17.615 17.9461 17.5581 18.0572C17.5368 18.0971 17.5035 18.1292 17.463 18.1489C17.4225 18.1686 17.3769 18.1748 17.3327 18.1667L16.3515 17.9752C16.2565 17.9521 16.1564 17.9651 16.0703 18.0117C15.9842 18.0583 15.9181 18.1353 15.8846 18.228L15.7308 18.6505C15.6968 18.743 15.6976 18.8449 15.733 18.9368C15.7684 19.0288 15.8361 19.1044 15.9231 19.1494L16.7992 19.6406C16.8386 19.6626 16.8699 19.6969 16.8883 19.7383C16.9067 19.7798 16.9112 19.8262 16.9011 19.8705L16.8919 19.9198C16.8719 20.0281 16.8535 20.1306 16.8358 20.2397C16.8296 20.2842 16.8098 20.3256 16.779 20.3579C16.7481 20.3903 16.708 20.412 16.6642 20.4199L15.6761 20.5811C15.5795 20.593 15.4905 20.6401 15.4258 20.7135C15.361 20.7869 15.3249 20.8815 15.3242 20.9798V21.4295C15.3237 21.5281 15.3594 21.6235 15.4245 21.6971C15.4895 21.7707 15.5794 21.8173 15.6765 21.8279L16.6642 21.9886C16.7086 21.9959 16.7495 22.0175 16.7807 22.0502C16.8119 22.0829 16.8317 22.1249 16.8373 22.1699C16.8561 22.2926 16.8758 22.4192 16.9027 22.5396C16.9114 22.5834 16.9063 22.6288 16.8881 22.6695C16.87 22.7102 16.8397 22.7442 16.8015 22.7667L15.9258 23.2587C15.8388 23.3035 15.7711 23.379 15.7356 23.4708C15.7002 23.5627 15.6994 23.6645 15.7335 23.7569L15.8873 24.1801C15.9207 24.2728 15.9867 24.3498 16.0728 24.3964C16.1588 24.443 16.2589 24.456 16.3538 24.4329L17.3365 24.2407C17.3805 24.2326 17.4258 24.2389 17.466 24.2585C17.5063 24.2781 17.5393 24.3101 17.5604 24.3498C17.6181 24.4585 17.68 24.5684 17.745 24.6767C17.7687 24.7153 17.7798 24.7604 17.7768 24.8057C17.7738 24.851 17.7567 24.8942 17.7281 24.9291L17.0742 25.6913C17.007 25.7628 16.968 25.8566 16.9644 25.955C16.9609 26.0535 16.9931 26.1498 17.055 26.226L17.34 26.572C17.402 26.648 17.4898 26.698 17.5863 26.7124C17.6828 26.7267 17.7812 26.7044 17.8623 26.6496L18.7227 26.1282C18.7608 26.1051 18.8053 26.095 18.8496 26.0994C18.8938 26.1038 18.9355 26.1225 18.9685 26.1526C19.0638 26.2369 19.1608 26.318 19.2519 26.393C19.2869 26.4209 19.3121 26.4593 19.3241 26.5026C19.3361 26.5459 19.3341 26.592 19.3185 26.6341L18.9619 27.5815C18.9231 27.6719 18.9186 27.7736 18.9491 27.8671C18.9797 27.9607 19.0432 28.0397 19.1277 28.089L19.5165 28.3158C19.601 28.365 19.7005 28.3811 19.7959 28.3609C19.8914 28.3407 19.9761 28.2856 20.0338 28.2063L20.6704 27.4161C20.7242 27.349 20.8088 27.3191 20.8715 27.3447C21.0054 27.4006 21.095 27.4321 21.2538 27.4856C21.2961 27.4996 21.3329 27.5268 21.3589 27.5633C21.3848 27.5999 21.3986 27.6438 21.3981 27.6887L21.3827 28.7002C21.3775 28.799 21.4081 28.8964 21.4687 28.9741C21.5294 29.0518 21.6159 29.1046 21.7123 29.1227L22.1527 29.2003C22.2487 29.2172 22.3474 29.1983 22.4306 29.1471C22.5138 29.0958 22.5756 29.0158 22.6046 28.9219L22.9315 27.9601C22.9463 27.9173 22.9743 27.8805 23.0115 27.8549C23.0486 27.8294 23.0928 27.8166 23.1377 27.8184H23.5127C23.5572 27.8174 23.6009 27.8307 23.6375 27.8563C23.6741 27.8819 23.7018 27.9185 23.7165 27.9609L24.0423 28.9188C24.0675 29.002 24.1185 29.0748 24.1877 29.1266C24.2569 29.1783 24.3408 29.2064 24.4269 29.2065C24.4499 29.2066 24.4728 29.2045 24.4954 29.2003L24.9365 29.1227C25.0324 29.1049 25.1185 29.0527 25.1791 28.9756C25.2396 28.8986 25.2704 28.8019 25.2658 28.7037L25.2504 27.6879C25.2501 27.6432 25.2639 27.5995 25.2898 27.5632C25.3158 27.5269 25.3525 27.4999 25.3946 27.486C25.5423 27.4359 25.6461 27.3956 25.7373 27.3598L25.7604 27.3509C25.8796 27.3094 25.9373 27.3598 25.9708 27.4018L26.615 28.2028C26.6727 28.282 26.7574 28.337 26.8527 28.3572C26.9481 28.3774 27.0475 28.3614 27.1319 28.3123L27.5192 28.0859C27.6039 28.0365 27.6677 27.9574 27.6982 27.8635C27.7288 27.7697 27.7241 27.6678 27.685 27.5773L27.3296 26.6322C27.3139 26.5901 27.3118 26.544 27.3234 26.5006C27.3351 26.4572 27.36 26.4186 27.3946 26.3903C27.4881 26.3126 27.5838 26.235 27.6792 26.1488C27.7122 26.1188 27.7538 26.1002 27.798 26.0959C27.8422 26.0916 27.8865 26.1016 27.9246 26.1247L28.7858 26.645C28.8674 26.6987 28.9656 26.7204 29.062 26.7061C29.1584 26.6918 29.2463 26.6425 29.3092 26.5673L29.5938 26.2218C29.657 26.1466 29.6904 26.0506 29.6878 25.9521C29.6852 25.8535 29.6467 25.7595 29.5796 25.6879L28.9234 24.9241C28.8943 24.8898 28.8769 24.8469 28.8738 24.8018C28.8706 24.7566 28.882 24.7117 28.9061 24.6736C28.9719 24.5684 29.0346 24.4574 29.0915 24.3459C29.1129 24.3061 29.1462 24.274 29.1867 24.2544C29.2271 24.2347 29.2727 24.2284 29.3169 24.2364L30.2969 24.4294C30.3919 24.4525 30.492 24.4396 30.5781 24.3929C30.6643 24.3463 30.7304 24.2693 30.7638 24.1766L30.9158 23.7542C30.9497 23.6617 30.9489 23.5599 30.9135 23.468C30.878 23.3761 30.8104 23.3005 30.7234 23.2556L29.8465 22.7636C29.8077 22.7415 29.7769 22.7072 29.7589 22.6661C29.7408 22.6249 29.7363 22.5789 29.7461 22.5349L29.7554 22.4856C29.7754 22.3773 29.7938 22.2748 29.8115 22.1657C29.8176 22.1212 29.8375 22.0798 29.8683 22.0475C29.8991 22.0151 29.9393 21.9934 29.9831 21.9855L30.9711 21.8248C31.068 21.8129 31.1573 21.7659 31.2223 21.6924C31.2873 21.619 31.3235 21.5241 31.3242 21.4256V20.9709ZM20.4608 24.6208C20.4128 24.705 20.3458 24.7764 20.2652 24.8293C20.1846 24.8822 20.0927 24.9151 19.9971 24.9252C19.9015 24.9352 19.8048 24.9223 19.7152 24.8873C19.6255 24.8524 19.5453 24.7964 19.4811 24.7241C18.6147 23.7569 18.1362 22.4984 18.1392 21.1943C18.1422 19.8902 18.6264 18.634 19.4973 17.6708C19.5617 17.5985 19.6423 17.5427 19.7323 17.508C19.8223 17.4733 19.9192 17.4607 20.015 17.4712C20.1107 17.4817 20.2027 17.515 20.2832 17.5684C20.3637 17.6218 20.4305 17.6938 20.4781 17.7784L22.2338 20.8983C22.2866 20.9913 22.3143 21.0967 22.3143 21.2039C22.3143 21.3111 22.2866 21.4164 22.2338 21.5095L20.4608 24.6208ZM23.3242 26.4528C22.9582 26.4529 22.5932 26.4138 22.2354 26.3363C22.1422 26.3153 22.0551 26.2724 21.9814 26.2111C21.9077 26.1498 21.8493 26.0718 21.811 25.9834C21.7726 25.8951 21.7555 25.7989 21.7608 25.7026C21.7662 25.6063 21.794 25.5127 21.8419 25.4293L23.6111 22.3229C23.6644 22.2293 23.7411 22.1516 23.8336 22.0975C23.9261 22.0434 24.0312 22.015 24.1381 22.015H27.6819C27.7774 22.0149 27.8715 22.0374 27.9567 22.0809C28.042 22.1243 28.1158 22.1874 28.1724 22.265C28.229 22.3426 28.2666 22.4326 28.2823 22.5277C28.298 22.6228 28.2913 22.7202 28.2627 22.8122C27.59 24.9214 25.6319 26.4528 23.3242 26.4528ZM23.6131 20.0887L21.8627 16.9769C21.8152 16.8934 21.788 16.7997 21.783 16.7035C21.778 16.6074 21.7956 16.5114 21.8342 16.4233C21.8728 16.3352 21.9314 16.2575 22.0052 16.1966C22.0791 16.1356 22.1661 16.093 22.2592 16.0722C22.6094 15.9977 22.9663 15.9602 23.3242 15.9604C25.6319 15.9604 27.59 17.4918 28.2615 19.6022C28.2901 19.6941 28.2968 19.7916 28.2811 19.8866C28.2655 19.9817 28.2278 20.0717 28.1712 20.1493C28.1147 20.227 28.0408 20.2901 27.9556 20.3335C27.8704 20.3769 27.7762 20.3995 27.6808 20.3993H24.1423C24.0347 20.3996 23.929 20.3709 23.836 20.3163C23.7431 20.2617 23.6661 20.1832 23.6131 20.0887Z" fill="black"/>
<path d="M31.3242 20.9709C31.319 20.874 31.28 20.7821 31.2141 20.7114C31.1482 20.6408 31.0597 20.596 30.9642 20.5849L29.9781 20.4238C29.9337 20.4165 29.8929 20.3948 29.8617 20.3621C29.8305 20.3295 29.8106 20.2875 29.805 20.2425C29.7861 20.1202 29.7665 19.9932 29.7396 19.8728C29.7309 19.829 29.736 19.7836 29.7541 19.7429C29.7723 19.7022 29.8026 19.6682 29.8408 19.6457L30.7169 19.1545C30.8039 19.1097 30.8716 19.0342 30.907 18.9424C30.9425 18.8505 30.9433 18.7487 30.9092 18.6563L30.7573 18.2331C30.724 18.1404 30.658 18.0633 30.5719 18.0167C30.4858 17.97 30.3857 17.9571 30.2908 17.9803L29.3081 18.1744C29.2641 18.1824 29.2188 18.1761 29.1786 18.1565C29.1384 18.1369 29.1054 18.105 29.0842 18.0653C29.0269 17.957 28.9646 17.8467 28.8996 17.7384C28.876 17.6998 28.8649 17.6547 28.868 17.6094C28.871 17.5642 28.888 17.521 28.9165 17.486L29.5704 16.7234C29.6368 16.6514 29.6749 16.5574 29.6777 16.4591C29.6805 16.3608 29.6476 16.2648 29.5854 16.1891L29.3 15.8431C29.2379 15.7672 29.1501 15.7172 29.0536 15.7029C28.9571 15.6885 28.8588 15.7108 28.7777 15.7655L27.9173 16.287C27.8792 16.31 27.8347 16.3201 27.7904 16.3157C27.7462 16.3113 27.7045 16.2926 27.6715 16.2625C27.5765 16.1782 27.4792 16.0971 27.3881 16.0221C27.3531 15.9943 27.3278 15.9559 27.3159 15.9125C27.304 15.8691 27.3061 15.8231 27.3219 15.781L27.6781 14.8336C27.7169 14.7432 27.7214 14.6415 27.6908 14.548C27.6603 14.4544 27.5967 14.3755 27.5123 14.3261L27.1242 14.0974C27.0397 14.0482 26.9402 14.0322 26.8448 14.0525C26.7493 14.0728 26.6646 14.1279 26.6069 14.2073L25.9781 15.0048C25.9554 15.0395 25.9216 15.0651 25.8823 15.0773C25.843 15.0895 25.8007 15.0875 25.7627 15.0716C25.7392 15.0619 25.5408 14.98 25.3865 14.9279C25.3442 14.914 25.3074 14.8868 25.2816 14.8503C25.2557 14.8137 25.2421 14.7698 25.2427 14.7249L25.2577 13.7126C25.263 13.6137 25.2325 13.5163 25.1719 13.4386C25.1112 13.3608 25.0245 13.308 24.9281 13.2901L24.4877 13.2125C24.3917 13.1957 24.293 13.2147 24.2099 13.2659C24.1268 13.3171 24.0649 13.3971 24.0358 13.4909L23.7088 14.4542C23.694 14.497 23.666 14.5338 23.6289 14.5593C23.5918 14.5848 23.5475 14.5977 23.5027 14.5959H23.1277C23.0832 14.5969 23.0395 14.5836 23.0029 14.558C22.9663 14.5324 22.9386 14.4958 22.9238 14.4534L22.5985 13.4955C22.5698 13.401 22.5081 13.3203 22.4247 13.2685C22.3414 13.2167 22.2422 13.1973 22.1458 13.214L21.7046 13.2917C21.6088 13.3094 21.5226 13.3617 21.462 13.4387C21.4015 13.5158 21.3707 13.6124 21.3754 13.7106L21.3908 14.7264C21.3911 14.772 21.3768 14.8165 21.35 14.8532C21.3233 14.8899 21.2855 14.917 21.2423 14.9303C21.1542 14.9648 20.9631 15.0386 20.8761 15.0712C20.7992 15.0992 20.7154 15.0685 20.6477 14.9897L20.0223 14.2131C19.9649 14.1332 19.8803 14.0776 19.7848 14.0568C19.6892 14.0361 19.5894 14.0518 19.5046 14.1009L19.1177 14.3272C19.0323 14.3767 18.9681 14.4563 18.9374 14.5508C18.9067 14.6452 18.9118 14.7477 18.9515 14.8386L19.3073 15.7837C19.3228 15.8259 19.3249 15.8719 19.3131 15.9153C19.3014 15.9587 19.2765 15.9973 19.2419 16.0256C19.1485 16.1033 19.0527 16.1809 18.9573 16.2671C18.9245 16.2971 18.8832 16.3156 18.8392 16.3201C18.7953 16.3246 18.7511 16.3147 18.7131 16.292L17.8627 15.7604C17.781 15.7068 17.6828 15.6851 17.5864 15.6994C17.49 15.7137 17.4021 15.763 17.3392 15.8381L17.055 16.1833C16.9919 16.2584 16.9584 16.3545 16.961 16.453C16.9637 16.5515 17.0022 16.6456 17.0692 16.7172L17.7261 17.479C17.7553 17.5133 17.7727 17.5562 17.7758 17.6013C17.779 17.6464 17.7676 17.6914 17.7435 17.7295C17.6777 17.8351 17.615 17.9461 17.5581 18.0572C17.5368 18.0971 17.5035 18.1292 17.463 18.1489C17.4225 18.1686 17.3769 18.1748 17.3327 18.1667L16.3515 17.9752C16.2565 17.9521 16.1564 17.9651 16.0703 18.0117C15.9842 18.0583 15.9181 18.1353 15.8846 18.228L15.7308 18.6505C15.6968 18.743 15.6976 18.8449 15.733 18.9368C15.7684 19.0288 15.8361 19.1044 15.9231 19.1494L16.7992 19.6406C16.8386 19.6626 16.8699 19.6969 16.8883 19.7383C16.9067 19.7798 16.9112 19.8262 16.9011 19.8705L16.8919 19.9198C16.8719 20.0281 16.8535 20.1306 16.8358 20.2397C16.8296 20.2842 16.8098 20.3256 16.779 20.3579C16.7481 20.3903 16.708 20.412 16.6642 20.4199L15.6761 20.5811C15.5795 20.593 15.4905 20.6401 15.4258 20.7135C15.361 20.7869 15.3249 20.8815 15.3242 20.9798V21.4295C15.3237 21.5281 15.3594 21.6235 15.4245 21.6971C15.4895 21.7707 15.5794 21.8173 15.6765 21.8279L16.6642 21.9886C16.7086 21.9959 16.7495 22.0175 16.7807 22.0502C16.8119 22.0829 16.8317 22.1249 16.8373 22.1699C16.8561 22.2926 16.8758 22.4192 16.9027 22.5396C16.9114 22.5834 16.9063 22.6288 16.8881 22.6695C16.87 22.7102 16.8397 22.7442 16.8015 22.7667L15.9258 23.2587C15.8388 23.3035 15.7711 23.379 15.7356 23.4708C15.7002 23.5627 15.6994 23.6645 15.7335 23.7569L15.8873 24.1801C15.9207 24.2728 15.9867 24.3498 16.0728 24.3964C16.1588 24.443 16.2589 24.456 16.3538 24.4329L17.3365 24.2407C17.3805 24.2326 17.4258 24.2389 17.466 24.2585C17.5063 24.2781 17.5393 24.3101 17.5604 24.3498C17.6181 24.4585 17.68 24.5684 17.745 24.6767C17.7687 24.7153 17.7798 24.7604 17.7768 24.8057C17.7738 24.851 17.7567 24.8942 17.7281 24.9291L17.0742 25.6913C17.007 25.7628 16.968 25.8566 16.9644 25.955C16.9609 26.0535 16.9931 26.1498 17.055 26.226L17.34 26.572C17.402 26.648 17.4898 26.698 17.5863 26.7124C17.6828 26.7267 17.7812 26.7044 17.8623 26.6496L18.7227 26.1282C18.7608 26.1051 18.8053 26.095 18.8496 26.0994C18.8938 26.1038 18.9355 26.1225 18.9685 26.1526C19.0638 26.2369 19.1608 26.318 19.2519 26.393C19.2869 26.4209 19.3121 26.4593 19.3241 26.5026C19.3361 26.5459 19.3341 26.592 19.3185 26.6341L18.9619 27.5815C18.9231 27.6719 18.9186 27.7736 18.9491 27.8671C18.9797 27.9607 19.0432 28.0397 19.1277 28.089L19.5165 28.3158C19.601 28.365 19.7005 28.3811 19.7959 28.3609C19.8914 28.3407 19.9761 28.2856 20.0338 28.2063L20.6704 27.4161C20.7242 27.349 20.8088 27.3191 20.8715 27.3447C21.0054 27.4006 21.095 27.4321 21.2538 27.4856C21.2961 27.4996 21.3329 27.5268 21.3589 27.5633C21.3848 27.5999 21.3986 27.6438 21.3981 27.6887L21.3827 28.7002C21.3775 28.799 21.4081 28.8964 21.4687 28.9741C21.5294 29.0518 21.6159 29.1046 21.7123 29.1227L22.1527 29.2003C22.2487 29.2172 22.3474 29.1983 22.4306 29.1471C22.5138 29.0958 22.5756 29.0158 22.6046 28.9219L22.9315 27.9601C22.9463 27.9173 22.9743 27.8805 23.0115 27.8549C23.0486 27.8294 23.0928 27.8166 23.1377 27.8184H23.5127C23.5572 27.8174 23.6009 27.8307 23.6375 27.8563C23.6741 27.8819 23.7018 27.9185 23.7165 27.9609L24.0423 28.9188C24.0675 29.002 24.1185 29.0748 24.1877 29.1266C24.2569 29.1783 24.3408 29.2064 24.4269 29.2065C24.4499 29.2066 24.4728 29.2045 24.4954 29.2003L24.9365 29.1227C25.0324 29.1049 25.1185 29.0527 25.1791 28.9756C25.2396 28.8986 25.2704 28.8019 25.2658 28.7037L25.2504 27.6879C25.2501 27.6432 25.2639 27.5995 25.2898 27.5632C25.3158 27.5269 25.3525 27.4999 25.3946 27.486C25.5423 27.4359 25.6461 27.3956 25.7373 27.3598L25.7604 27.3509C25.8796 27.3094 25.9373 27.3598 25.9708 27.4018L26.615 28.2028C26.6727 28.282 26.7574 28.337 26.8527 28.3572C26.9481 28.3774 27.0475 28.3614 27.1319 28.3123L27.5192 28.0859C27.6039 28.0365 27.6677 27.9574 27.6982 27.8635C27.7288 27.7697 27.7241 27.6678 27.685 27.5773L27.3296 26.6322C27.3139 26.5901 27.3118 26.544 27.3234 26.5006C27.3351 26.4572 27.36 26.4186 27.3946 26.3903C27.4881 26.3126 27.5838 26.235 27.6792 26.1488C27.7122 26.1188 27.7538 26.1002 27.798 26.0959C27.8422 26.0916 27.8865 26.1016 27.9246 26.1247L28.7858 26.645C28.8674 26.6987 28.9656 26.7204 29.062 26.7061C29.1584 26.6918 29.2463 26.6425 29.3092 26.5673L29.5938 26.2218C29.657 26.1466 29.6904 26.0506 29.6878 25.9521C29.6852 25.8535 29.6467 25.7595 29.5796 25.6879L28.9234 24.9241C28.8943 24.8898 28.8769 24.8469 28.8738 24.8018C28.8706 24.7566 28.882 24.7117 28.9061 24.6736C28.9719 24.5684 29.0346 24.4574 29.0915 24.3459C29.1129 24.3061 29.1462 24.274 29.1867 24.2544C29.2271 24.2347 29.2727 24.2284 29.3169 24.2364L30.2969 24.4294C30.3919 24.4525 30.492 24.4396 30.5781 24.3929C30.6643 24.3463 30.7304 24.2693 30.7638 24.1766L30.9158 23.7542C30.9497 23.6617 30.9489 23.5599 30.9135 23.468C30.878 23.3761 30.8104 23.3005 30.7234 23.2556L29.8465 22.7636C29.8077 22.7415 29.7769 22.7072 29.7589 22.6661C29.7408 22.6249 29.7363 22.5789 29.7461 22.5349L29.7554 22.4856C29.7754 22.3773 29.7938 22.2748 29.8115 22.1657C29.8176 22.1212 29.8375 22.0798 29.8683 22.0475C29.8991 22.0151 29.9393 21.9934 29.9831 21.9855L30.9711 21.8248C31.068 21.8129 31.1573 21.7659 31.2223 21.6924C31.2873 21.619 31.3235 21.5241 31.3242 21.4256V20.9709ZM20.4608 24.6208C20.4128 24.705 20.3458 24.7764 20.2652 24.8293C20.1846 24.8822 20.0927 24.9151 19.9971 24.9252C19.9015 24.9352 19.8048 24.9223 19.7152 24.8873C19.6255 24.8524 19.5453 24.7964 19.4811 24.7241C18.6147 23.7569 18.1362 22.4984 18.1392 21.1943C18.1422 19.8902 18.6264 18.634 19.4973 17.6708C19.5617 17.5985 19.6423 17.5427 19.7323 17.508C19.8223 17.4733 19.9192 17.4607 20.015 17.4712C20.1107 17.4817 20.2027 17.515 20.2832 17.5684C20.3637 17.6218 20.4305 17.6938 20.4781 17.7784L22.2338 20.8983C22.2866 20.9913 22.3143 21.0967 22.3143 21.2039C22.3143 21.3111 22.2866 21.4164 22.2338 21.5095L20.4608 24.6208ZM23.3242 26.4528C22.9582 26.4529 22.5932 26.4138 22.2354 26.3363C22.1422 26.3153 22.0551 26.2724 21.9814 26.2111C21.9077 26.1498 21.8493 26.0718 21.811 25.9834C21.7726 25.8951 21.7555 25.7989 21.7608 25.7026C21.7662 25.6063 21.794 25.5127 21.8419 25.4293L23.6111 22.3229C23.6644 22.2293 23.7411 22.1516 23.8336 22.0975C23.9261 22.0434 24.0312 22.015 24.1381 22.015H27.6819C27.7774 22.0149 27.8715 22.0374 27.9567 22.0809C28.042 22.1243 28.1158 22.1874 28.1724 22.265C28.229 22.3426 28.2666 22.4326 28.2823 22.5277C28.298 22.6228 28.2913 22.7202 28.2627 22.8122C27.59 24.9214 25.6319 26.4528 23.3242 26.4528ZM23.6131 20.0887L21.8627 16.9769C21.8152 16.8934 21.788 16.7997 21.783 16.7035C21.778 16.6074 21.7956 16.5114 21.8342 16.4233C21.8728 16.3352 21.9314 16.2575 22.0052 16.1966C22.0791 16.1356 22.1661 16.093 22.2592 16.0722C22.6094 15.9977 22.9663 15.9602 23.3242 15.9604C25.6319 15.9604 27.59 17.4918 28.2615 19.6022C28.2901 19.6941 28.2968 19.7916 28.2811 19.8866C28.2655 19.9817 28.2278 20.0717 28.1712 20.1493C28.1147 20.227 28.0408 20.2901 27.9556 20.3335C27.8704 20.3769 27.7762 20.3995 27.6808 20.3993H24.1423C24.0347 20.3996 23.929 20.3709 23.836 20.3163C23.7431 20.2617 23.6661 20.1832 23.6131 20.0887Z" stroke="black" stroke-width="0.6" mask="url(#path-6-outside-1_1193_1345)"/>
<mask id="path-7-outside-2_1193_1345" maskUnits="userSpaceOnUse" x="26.2725" y="2.00378" width="16.1465" height="16.7183" fill="black">
<rect fill="white" x="26.2725" y="2.00378" width="16.1465" height="16.7183"/>
<path d="M38.6787 12.852C38.7059 12.7976 38.7134 12.7349 38.7001 12.6749C38.6868 12.615 38.6535 12.5616 38.6061 12.5244L38.1306 12.1142C38.1092 12.0957 38.0942 12.0706 38.0876 12.0426C38.0811 12.0146 38.0835 11.9853 38.0943 11.959C38.122 11.8863 38.1507 11.8109 38.1735 11.7366C38.1824 11.71 38.1991 11.687 38.2214 11.6708C38.2436 11.6546 38.2702 11.646 38.2975 11.6463L38.9155 11.6659C38.9757 11.67 39.035 11.6511 39.0822 11.6128C39.1294 11.5744 39.1612 11.5193 39.1716 11.458L39.2212 11.1782C39.2321 11.1169 39.2207 11.0534 39.1892 10.9999C39.1578 10.9464 39.1085 10.9066 39.0507 10.8882L38.4675 10.6722C38.4417 10.6622 38.4195 10.6439 38.4041 10.6201C38.3888 10.5963 38.381 10.5682 38.382 10.5397C38.3849 10.4621 38.3857 10.3817 38.3845 10.3016C38.3838 10.2729 38.3918 10.2447 38.4074 10.2211C38.423 10.1975 38.4454 10.1796 38.4714 10.1699L39.0548 9.96926C39.1123 9.95185 39.1616 9.91326 39.1934 9.86071C39.2252 9.80815 39.2374 9.74523 39.2275 9.68373L39.1823 9.4023C39.1726 9.34071 39.1413 9.28482 39.0943 9.24546C39.0474 9.20609 38.9881 9.18605 38.9281 9.18921L38.309 9.19122C38.2816 9.19128 38.2548 9.18221 38.2326 9.16534C38.2104 9.14846 38.1939 9.12469 38.1857 9.09752C38.1611 9.02064 38.1343 8.94469 38.1089 8.87413C38.0988 8.84754 38.0972 8.81839 38.1043 8.79093C38.1113 8.76346 38.1266 8.73911 38.148 8.72141L38.6299 8.3229C38.6784 8.28645 38.7122 8.23269 38.7248 8.17183C38.7373 8.11098 38.7279 8.04726 38.6981 7.9928L38.562 7.74152C38.5322 7.68713 38.4841 7.64589 38.427 7.62568C38.3699 7.60548 38.3078 7.60773 38.2526 7.63202L37.6717 7.85984C37.649 7.87129 37.6231 7.87414 37.5984 7.86791C37.5737 7.86167 37.5518 7.84674 37.5364 7.82569C37.5269 7.81274 37.4465 7.70327 37.3804 7.62453C37.3622 7.60313 37.351 7.5763 37.3485 7.54797C37.346 7.51964 37.3523 7.49129 37.3665 7.46708L37.6867 6.92172C37.72 6.86974 37.7338 6.8068 37.7255 6.74468C37.7171 6.68255 37.6873 6.62551 37.6414 6.58424L37.4309 6.39795C37.3849 6.35747 37.3265 6.3355 37.2664 6.33615C37.2064 6.33679 37.1488 6.36 37.1043 6.40145L36.6331 6.81818C36.612 6.83657 36.5857 6.84742 36.5581 6.84915C36.5305 6.85088 36.503 6.84339 36.4796 6.82778L36.2799 6.7051C36.2559 6.69104 36.2368 6.66954 36.2252 6.64366C36.2136 6.61778 36.2101 6.58883 36.2153 6.56095L36.3375 5.93378C36.3513 5.87305 36.3433 5.80898 36.315 5.75355C36.2866 5.69812 36.2397 5.65514 36.1832 5.63266L35.9243 5.53055C35.8678 5.50885 35.8058 5.50906 35.7498 5.53114C35.6938 5.55322 35.6476 5.59566 35.6198 5.65059L35.3147 6.2078C35.3008 6.23268 35.2795 6.25218 35.2539 6.2634C35.2283 6.27462 35.1998 6.27695 35.1727 6.27005C35.1152 6.26002 34.9906 6.23759 34.9343 6.22688C34.8847 6.21691 34.8495 6.17281 34.8378 6.10782L34.7442 5.48108C34.7383 5.41888 34.7104 5.36095 34.6659 5.31843C34.6214 5.2759 34.5634 5.25179 34.5031 5.25072L34.2273 5.24719C34.1666 5.24616 34.1078 5.26843 34.0623 5.30972C34.0169 5.35101 33.9879 5.4084 33.9811 5.47082L33.879 6.10097C33.8743 6.12896 33.8612 6.15464 33.8416 6.17439C33.8219 6.19414 33.7968 6.20697 33.7696 6.21108C33.6959 6.22272 33.6209 6.2336 33.5436 6.24926C33.5169 6.2548 33.4891 6.25135 33.4643 6.2394C33.4396 6.22746 33.4191 6.20765 33.4058 6.18287L33.1169 5.61571C33.09 5.55984 33.0443 5.51591 32.9886 5.49216C32.9329 5.4684 32.8709 5.46645 32.8142 5.48668L32.5564 5.58134C32.4996 5.60154 32.4521 5.64279 32.4231 5.6972C32.3942 5.75161 32.3857 5.81535 32.3993 5.87622L32.5141 6.50526C32.5191 6.53346 32.5151 6.56247 32.5029 6.58802C32.4906 6.61356 32.4707 6.63426 32.4461 6.64706C32.3785 6.68296 32.3109 6.72282 32.2463 6.76456C32.2227 6.77931 32.195 6.78588 32.1674 6.78333C32.1398 6.78078 32.1136 6.76923 32.0925 6.75035L31.6291 6.32532C31.5856 6.28166 31.5283 6.25596 31.468 6.25313C31.4078 6.2503 31.3489 6.27054 31.3024 6.30997L31.0902 6.48929C31.0436 6.52846 31.0126 6.58411 31.0031 6.6457C30.9936 6.70728 31.0063 6.77052 31.0387 6.82344L31.3538 7.37707C31.368 7.4019 31.3741 7.43077 31.3711 7.45933C31.3681 7.48789 31.3562 7.51458 31.3372 7.53537L31.3171 7.55916C31.273 7.61151 31.2316 7.66119 31.1885 7.71472C31.1715 7.73688 31.1482 7.75286 31.1218 7.76038C31.0954 7.76789 31.0673 7.76654 31.0416 7.75654L30.4657 7.52089C30.4105 7.49579 30.3486 7.49226 30.2915 7.51097C30.2344 7.52967 30.186 7.56933 30.1553 7.62254L30.0166 7.86696C29.9859 7.92041 29.9755 7.98393 29.9875 8.04523C29.9994 8.10653 30.0329 8.16124 30.0814 8.19878L30.5578 8.60928C30.5792 8.62776 30.5942 8.65287 30.6008 8.68085C30.6073 8.70882 30.6049 8.73816 30.594 8.76447C30.5662 8.83734 30.5376 8.91257 30.5148 8.98681C30.5059 9.01344 30.4892 9.03647 30.467 9.05268C30.4448 9.06888 30.4182 9.07745 30.3909 9.07719L29.7728 9.05812C29.7126 9.054 29.6533 9.0729 29.6061 9.11123C29.5589 9.14957 29.5271 9.20466 29.5167 9.26602L29.4681 9.54642C29.4573 9.60772 29.4687 9.67117 29.5002 9.72467C29.5316 9.77817 29.5809 9.81797 29.6386 9.83646L30.2212 10.0535C30.2471 10.0635 30.2693 10.0817 30.2847 10.1055C30.3001 10.1293 30.3078 10.1575 30.3068 10.186C30.304 10.264 30.303 10.344 30.3042 10.4241C30.305 10.4528 30.297 10.481 30.2814 10.5046C30.2658 10.5282 30.2434 10.5461 30.2174 10.5558L29.6341 10.7562C29.5763 10.7731 29.5266 10.8113 29.4943 10.8636C29.4621 10.916 29.4495 10.9789 29.459 11.0406L29.504 11.3219C29.5136 11.3835 29.5449 11.4394 29.5919 11.4788C29.6389 11.5182 29.6982 11.5382 29.7582 11.535L30.3773 11.533C30.4047 11.5329 30.4315 11.542 30.4537 11.5588C30.4759 11.5757 30.4924 11.5995 30.5006 11.6267C30.5254 11.7037 30.552 11.7795 30.5774 11.85C30.5874 11.8766 30.5891 11.9058 30.5821 11.9333C30.5751 11.9607 30.5598 11.9851 30.5385 12.0029L30.0564 12.4013C30.0079 12.4377 29.9741 12.4915 29.9615 12.5523C29.9489 12.6132 29.9584 12.6769 29.9882 12.7314L30.1253 12.9819C30.1551 13.0362 30.2031 13.0775 30.2602 13.0978C30.3173 13.118 30.3793 13.1158 30.4346 13.0916L31.0173 12.8703C31.0666 12.8514 31.1209 12.8628 31.1464 12.8972C31.2004 12.9714 31.2385 13.0178 31.3065 13.0989C31.3248 13.1204 31.336 13.1472 31.3385 13.1755C31.3411 13.2039 31.3348 13.2322 31.3207 13.2565L31.0006 13.8013C30.9673 13.8533 30.9536 13.9162 30.9619 13.9783C30.9702 14.0404 31 14.0975 31.0458 14.1388L31.2564 14.3251C31.3023 14.3657 31.3607 14.3877 31.4208 14.3871C31.4809 14.3864 31.5385 14.3631 31.5829 14.3216L32.0536 13.9057C32.0747 13.8873 32.101 13.8764 32.1286 13.8747C32.1563 13.8729 32.1838 13.8805 32.2071 13.8961L32.4068 14.0188C32.4309 14.0328 32.45 14.0543 32.4616 14.0802C32.4732 14.1061 32.4767 14.135 32.4714 14.1629L32.3495 14.7902C32.3373 14.8437 32.342 14.8999 32.3629 14.9507C32.3838 15.0015 32.4197 15.0442 32.4656 15.0725C32.4778 15.08 32.4906 15.0864 32.504 15.0915L32.7628 15.1936C32.8193 15.2153 32.8814 15.2151 32.9374 15.193C32.9934 15.1709 33.0396 15.1285 33.0674 15.0735L33.3725 14.5163C33.3861 14.4919 33.407 14.4727 33.432 14.4614C33.457 14.4502 33.4848 14.4475 33.5116 14.4538C33.6057 14.4748 33.6734 14.4869 33.733 14.4973L33.748 14.5C33.8243 14.5164 33.8395 14.5627 33.8444 14.5964L33.9404 15.2426C33.9467 15.3046 33.9748 15.3622 34.0194 15.4044C34.0639 15.4465 34.1218 15.4704 34.1819 15.4713L34.458 15.4749C34.5183 15.4758 34.5767 15.4536 34.6219 15.4126C34.6671 15.3716 34.696 15.3147 34.7031 15.2526L34.8054 14.6226C34.81 14.5946 34.8231 14.5689 34.8427 14.5491C34.8623 14.5293 34.8874 14.5165 34.9146 14.5124C34.9883 14.5008 35.0633 14.4899 35.1407 14.4742C35.1675 14.4687 35.1953 14.4722 35.2202 14.4843C35.2451 14.4964 35.2656 14.5164 35.2788 14.5414L35.5769 15.106C35.6038 15.1619 35.6494 15.2058 35.7052 15.2296C35.7609 15.2534 35.8229 15.2553 35.8796 15.235L36.1378 15.1402C36.1946 15.12 36.242 15.0788 36.271 15.0244C36.3 14.97 36.3085 14.9062 36.2948 14.8454L36.181 14.2155C36.176 14.1873 36.18 14.1583 36.1922 14.1328C36.2045 14.1072 36.2244 14.0865 36.249 14.0737C36.3165 14.038 36.3841 13.9982 36.4488 13.9562C36.4725 13.9415 36.5001 13.935 36.5277 13.9376C36.5553 13.9401 36.5815 13.9516 36.6026 13.9704L37.065 14.3959C37.1084 14.4396 37.1657 14.4653 37.226 14.4681C37.2862 14.4709 37.3452 14.4507 37.3916 14.4113L37.6028 14.2313C37.6494 14.1922 37.6804 14.1366 37.6899 14.075C37.6993 14.0135 37.6866 13.9503 37.6542 13.8974L37.3389 13.3431C37.325 13.3183 37.3192 13.2897 37.3223 13.2614C37.3254 13.233 37.3372 13.2066 37.356 13.1859L37.3761 13.1621C37.4201 13.1098 37.4616 13.0601 37.5047 13.0066C37.5216 12.9844 37.545 12.9684 37.5714 12.9609C37.5978 12.9534 37.6258 12.9547 37.6516 12.9648L38.2274 13.2006C38.2826 13.2259 38.3446 13.2295 38.4019 13.2108C38.4592 13.1922 38.5077 13.1525 38.5385 13.0991L38.6787 12.852ZM31.7678 11.2822C31.7163 11.3122 31.6586 11.3291 31.5993 11.3315C31.5401 11.3339 31.481 11.3217 31.427 11.2959C31.3729 11.2701 31.3255 11.2315 31.2885 11.1831C31.2515 11.1348 31.2261 11.0781 31.2142 11.0178C31.0511 10.2086 31.1844 9.36798 31.5882 8.66004C31.9921 7.95209 32.6373 7.42762 33.3982 7.18895C33.4548 7.17073 33.5149 7.16675 33.5736 7.17732C33.6322 7.1879 33.6877 7.21273 33.7354 7.24977C33.7832 7.28682 33.8219 7.33501 33.8483 7.39038C33.8747 7.44576 33.8881 7.50673 33.8873 7.56827L33.8601 9.83864C33.8595 9.90647 33.8418 9.9728 33.8087 10.0311C33.7756 10.0893 33.7284 10.1375 33.6716 10.1709L31.7678 11.2822ZM32.7277 13.2148C32.5327 13.0951 32.3504 12.9545 32.1837 12.7952C32.1406 12.7533 32.1075 12.7015 32.0871 12.6441C32.0667 12.5866 32.0597 12.5251 32.0665 12.4646C32.0734 12.404 32.0939 12.3461 32.1265 12.2955C32.159 12.245 32.2027 12.2031 32.2539 12.1735L34.1542 11.0637C34.2114 11.0302 34.2763 11.013 34.3422 11.0139C34.4082 11.0148 34.4729 11.0337 34.5298 11.0686L36.417 12.228C36.4679 12.2591 36.5111 12.3022 36.5431 12.3537C36.5751 12.4052 36.5949 12.4636 36.6011 12.5243C36.6073 12.5851 36.5996 12.6463 36.5786 12.7031C36.5577 12.7599 36.524 12.8107 36.4804 12.8513C35.4717 13.7778 33.9566 13.9697 32.7277 13.2148ZM34.8443 9.84976L34.8719 7.58558C34.8724 7.52463 34.8867 7.46479 34.9138 7.41089C34.9408 7.35699 34.9797 7.31053 35.0275 7.27528C35.0752 7.24004 35.1303 7.21698 35.1885 7.20798C35.2466 7.19899 35.3061 7.2043 35.3621 7.2235C35.5716 7.29756 35.7732 7.39395 35.9637 7.51111C37.1927 8.26606 37.7631 9.73911 37.4699 11.106C37.4567 11.1653 37.4302 11.2205 37.3926 11.267C37.3549 11.3136 37.3071 11.3502 37.253 11.3739C37.199 11.3976 37.1402 11.4077 37.0814 11.4034C37.0226 11.3992 36.9655 11.3806 36.9147 11.3493L35.0303 10.1917C34.973 10.1567 34.9255 10.1065 34.8928 10.0464C34.8602 9.98634 34.8434 9.91846 34.8443 9.84976Z"/>
</mask>
<path d="M38.6787 12.852C38.7059 12.7976 38.7134 12.7349 38.7001 12.6749C38.6868 12.615 38.6535 12.5616 38.6061 12.5244L38.1306 12.1142C38.1092 12.0957 38.0942 12.0706 38.0876 12.0426C38.0811 12.0146 38.0835 11.9853 38.0943 11.959C38.122 11.8863 38.1507 11.8109 38.1735 11.7366C38.1824 11.71 38.1991 11.687 38.2214 11.6708C38.2436 11.6546 38.2702 11.646 38.2975 11.6463L38.9155 11.6659C38.9757 11.67 39.035 11.6511 39.0822 11.6128C39.1294 11.5744 39.1612 11.5193 39.1716 11.458L39.2212 11.1782C39.2321 11.1169 39.2207 11.0534 39.1892 10.9999C39.1578 10.9464 39.1085 10.9066 39.0507 10.8882L38.4675 10.6722C38.4417 10.6622 38.4195 10.6439 38.4041 10.6201C38.3888 10.5963 38.381 10.5682 38.382 10.5397C38.3849 10.4621 38.3857 10.3817 38.3845 10.3016C38.3838 10.2729 38.3918 10.2447 38.4074 10.2211C38.423 10.1975 38.4454 10.1796 38.4714 10.1699L39.0548 9.96926C39.1123 9.95185 39.1616 9.91326 39.1934 9.86071C39.2252 9.80815 39.2374 9.74523 39.2275 9.68373L39.1823 9.4023C39.1726 9.34071 39.1413 9.28482 39.0943 9.24546C39.0474 9.20609 38.9881 9.18605 38.9281 9.18921L38.309 9.19122C38.2816 9.19128 38.2548 9.18221 38.2326 9.16534C38.2104 9.14846 38.1939 9.12469 38.1857 9.09752C38.1611 9.02064 38.1343 8.94469 38.1089 8.87413C38.0988 8.84754 38.0972 8.81839 38.1043 8.79093C38.1113 8.76346 38.1266 8.73911 38.148 8.72141L38.6299 8.3229C38.6784 8.28645 38.7122 8.23269 38.7248 8.17183C38.7373 8.11098 38.7279 8.04726 38.6981 7.9928L38.562 7.74152C38.5322 7.68713 38.4841 7.64589 38.427 7.62568C38.3699 7.60548 38.3078 7.60773 38.2526 7.63202L37.6717 7.85984C37.649 7.87129 37.6231 7.87414 37.5984 7.86791C37.5737 7.86167 37.5518 7.84674 37.5364 7.82569C37.5269 7.81274 37.4465 7.70327 37.3804 7.62453C37.3622 7.60313 37.351 7.5763 37.3485 7.54797C37.346 7.51964 37.3523 7.49129 37.3665 7.46708L37.6867 6.92172C37.72 6.86974 37.7338 6.8068 37.7255 6.74468C37.7171 6.68255 37.6873 6.62551 37.6414 6.58424L37.4309 6.39795C37.3849 6.35747 37.3265 6.3355 37.2664 6.33615C37.2064 6.33679 37.1488 6.36 37.1043 6.40145L36.6331 6.81818C36.612 6.83657 36.5857 6.84742 36.5581 6.84915C36.5305 6.85088 36.503 6.84339 36.4796 6.82778L36.2799 6.7051C36.2559 6.69104 36.2368 6.66954 36.2252 6.64366C36.2136 6.61778 36.2101 6.58883 36.2153 6.56095L36.3375 5.93378C36.3513 5.87305 36.3433 5.80898 36.315 5.75355C36.2866 5.69812 36.2397 5.65514 36.1832 5.63266L35.9243 5.53055C35.8678 5.50885 35.8058 5.50906 35.7498 5.53114C35.6938 5.55322 35.6476 5.59566 35.6198 5.65059L35.3147 6.2078C35.3008 6.23268 35.2795 6.25218 35.2539 6.2634C35.2283 6.27462 35.1998 6.27695 35.1727 6.27005C35.1152 6.26002 34.9906 6.23759 34.9343 6.22688C34.8847 6.21691 34.8495 6.17281 34.8378 6.10782L34.7442 5.48108C34.7383 5.41888 34.7104 5.36095 34.6659 5.31843C34.6214 5.2759 34.5634 5.25179 34.5031 5.25072L34.2273 5.24719C34.1666 5.24616 34.1078 5.26843 34.0623 5.30972C34.0169 5.35101 33.9879 5.4084 33.9811 5.47082L33.879 6.10097C33.8743 6.12896 33.8612 6.15464 33.8416 6.17439C33.8219 6.19414 33.7968 6.20697 33.7696 6.21108C33.6959 6.22272 33.6209 6.2336 33.5436 6.24926C33.5169 6.2548 33.4891 6.25135 33.4643 6.2394C33.4396 6.22746 33.4191 6.20765 33.4058 6.18287L33.1169 5.61571C33.09 5.55984 33.0443 5.51591 32.9886 5.49216C32.9329 5.4684 32.8709 5.46645 32.8142 5.48668L32.5564 5.58134C32.4996 5.60154 32.4521 5.64279 32.4231 5.6972C32.3942 5.75161 32.3857 5.81535 32.3993 5.87622L32.5141 6.50526C32.5191 6.53346 32.5151 6.56247 32.5029 6.58802C32.4906 6.61356 32.4707 6.63426 32.4461 6.64706C32.3785 6.68296 32.3109 6.72282 32.2463 6.76456C32.2227 6.77931 32.195 6.78588 32.1674 6.78333C32.1398 6.78078 32.1136 6.76923 32.0925 6.75035L31.6291 6.32532C31.5856 6.28166 31.5283 6.25596 31.468 6.25313C31.4078 6.2503 31.3489 6.27054 31.3024 6.30997L31.0902 6.48929C31.0436 6.52846 31.0126 6.58411 31.0031 6.6457C30.9936 6.70728 31.0063 6.77052 31.0387 6.82344L31.3538 7.37707C31.368 7.4019 31.3741 7.43077 31.3711 7.45933C31.3681 7.48789 31.3562 7.51458 31.3372 7.53537L31.3171 7.55916C31.273 7.61151 31.2316 7.66119 31.1885 7.71472C31.1715 7.73688 31.1482 7.75286 31.1218 7.76038C31.0954 7.76789 31.0673 7.76654 31.0416 7.75654L30.4657 7.52089C30.4105 7.49579 30.3486 7.49226 30.2915 7.51097C30.2344 7.52967 30.186 7.56933 30.1553 7.62254L30.0166 7.86696C29.9859 7.92041 29.9755 7.98393 29.9875 8.04523C29.9994 8.10653 30.0329 8.16124 30.0814 8.19878L30.5578 8.60928C30.5792 8.62776 30.5942 8.65287 30.6008 8.68085C30.6073 8.70882 30.6049 8.73816 30.594 8.76447C30.5662 8.83734 30.5376 8.91257 30.5148 8.98681C30.5059 9.01344 30.4892 9.03647 30.467 9.05268C30.4448 9.06888 30.4182 9.07745 30.3909 9.07719L29.7728 9.05812C29.7126 9.054 29.6533 9.0729 29.6061 9.11123C29.5589 9.14957 29.5271 9.20466 29.5167 9.26602L29.4681 9.54642C29.4573 9.60772 29.4687 9.67117 29.5002 9.72467C29.5316 9.77817 29.5809 9.81797 29.6386 9.83646L30.2212 10.0535C30.2471 10.0635 30.2693 10.0817 30.2847 10.1055C30.3001 10.1293 30.3078 10.1575 30.3068 10.186C30.304 10.264 30.303 10.344 30.3042 10.4241C30.305 10.4528 30.297 10.481 30.2814 10.5046C30.2658 10.5282 30.2434 10.5461 30.2174 10.5558L29.6341 10.7562C29.5763 10.7731 29.5266 10.8113 29.4943 10.8636C29.4621 10.916 29.4495 10.9789 29.459 11.0406L29.504 11.3219C29.5136 11.3835 29.5449 11.4394 29.5919 11.4788C29.6389 11.5182 29.6982 11.5382 29.7582 11.535L30.3773 11.533C30.4047 11.5329 30.4315 11.542 30.4537 11.5588C30.4759 11.5757 30.4924 11.5995 30.5006 11.6267C30.5254 11.7037 30.552 11.7795 30.5774 11.85C30.5874 11.8766 30.5891 11.9058 30.5821 11.9333C30.5751 11.9607 30.5598 11.9851 30.5385 12.0029L30.0564 12.4013C30.0079 12.4377 29.9741 12.4915 29.9615 12.5523C29.9489 12.6132 29.9584 12.6769 29.9882 12.7314L30.1253 12.9819C30.1551 13.0362 30.2031 13.0775 30.2602 13.0978C30.3173 13.118 30.3793 13.1158 30.4346 13.0916L31.0173 12.8703C31.0666 12.8514 31.1209 12.8628 31.1464 12.8972C31.2004 12.9714 31.2385 13.0178 31.3065 13.0989C31.3248 13.1204 31.336 13.1472 31.3385 13.1755C31.3411 13.2039 31.3348 13.2322 31.3207 13.2565L31.0006 13.8013C30.9673 13.8533 30.9536 13.9162 30.9619 13.9783C30.9702 14.0404 31 14.0975 31.0458 14.1388L31.2564 14.3251C31.3023 14.3657 31.3607 14.3877 31.4208 14.3871C31.4809 14.3864 31.5385 14.3631 31.5829 14.3216L32.0536 13.9057C32.0747 13.8873 32.101 13.8764 32.1286 13.8747C32.1563 13.8729 32.1838 13.8805 32.2071 13.8961L32.4068 14.0188C32.4309 14.0328 32.45 14.0543 32.4616 14.0802C32.4732 14.1061 32.4767 14.135 32.4714 14.1629L32.3495 14.7902C32.3373 14.8437 32.342 14.8999 32.3629 14.9507C32.3838 15.0015 32.4197 15.0442 32.4656 15.0725C32.4778 15.08 32.4906 15.0864 32.504 15.0915L32.7628 15.1936C32.8193 15.2153 32.8814 15.2151 32.9374 15.193C32.9934 15.1709 33.0396 15.1285 33.0674 15.0735L33.3725 14.5163C33.3861 14.4919 33.407 14.4727 33.432 14.4614C33.457 14.4502 33.4848 14.4475 33.5116 14.4538C33.6057 14.4748 33.6734 14.4869 33.733 14.4973L33.748 14.5C33.8243 14.5164 33.8395 14.5627 33.8444 14.5964L33.9404 15.2426C33.9467 15.3046 33.9748 15.3622 34.0194 15.4044C34.0639 15.4465 34.1218 15.4704 34.1819 15.4713L34.458 15.4749C34.5183 15.4758 34.5767 15.4536 34.6219 15.4126C34.6671 15.3716 34.696 15.3147 34.7031 15.2526L34.8054 14.6226C34.81 14.5946 34.8231 14.5689 34.8427 14.5491C34.8623 14.5293 34.8874 14.5165 34.9146 14.5124C34.9883 14.5008 35.0633 14.4899 35.1407 14.4742C35.1675 14.4687 35.1953 14.4722 35.2202 14.4843C35.2451 14.4964 35.2656 14.5164 35.2788 14.5414L35.5769 15.106C35.6038 15.1619 35.6494 15.2058 35.7052 15.2296C35.7609 15.2534 35.8229 15.2553 35.8796 15.235L36.1378 15.1402C36.1946 15.12 36.242 15.0788 36.271 15.0244C36.3 14.97 36.3085 14.9062 36.2948 14.8454L36.181 14.2155C36.176 14.1873 36.18 14.1583 36.1922 14.1328C36.2045 14.1072 36.2244 14.0865 36.249 14.0737C36.3165 14.038 36.3841 13.9982 36.4488 13.9562C36.4725 13.9415 36.5001 13.935 36.5277 13.9376C36.5553 13.9401 36.5815 13.9516 36.6026 13.9704L37.065 14.3959C37.1084 14.4396 37.1657 14.4653 37.226 14.4681C37.2862 14.4709 37.3452 14.4507 37.3916 14.4113L37.6028 14.2313C37.6494 14.1922 37.6804 14.1366 37.6899 14.075C37.6993 14.0135 37.6866 13.9503 37.6542 13.8974L37.3389 13.3431C37.325 13.3183 37.3192 13.2897 37.3223 13.2614C37.3254 13.233 37.3372 13.2066 37.356 13.1859L37.3761 13.1621C37.4201 13.1098 37.4616 13.0601 37.5047 13.0066C37.5216 12.9844 37.545 12.9684 37.5714 12.9609C37.5978 12.9534 37.6258 12.9547 37.6516 12.9648L38.2274 13.2006C38.2826 13.2259 38.3446 13.2295 38.4019 13.2108C38.4592 13.1922 38.5077 13.1525 38.5385 13.0991L38.6787 12.852ZM31.7678 11.2822C31.7163 11.3122 31.6586 11.3291 31.5993 11.3315C31.5401 11.3339 31.481 11.3217 31.427 11.2959C31.3729 11.2701 31.3255 11.2315 31.2885 11.1831C31.2515 11.1348 31.2261 11.0781 31.2142 11.0178C31.0511 10.2086 31.1844 9.36798 31.5882 8.66004C31.9921 7.95209 32.6373 7.42762 33.3982 7.18895C33.4548 7.17073 33.5149 7.16675 33.5736 7.17732C33.6322 7.1879 33.6877 7.21273 33.7354 7.24977C33.7832 7.28682 33.8219 7.33501 33.8483 7.39038C33.8747 7.44576 33.8881 7.50673 33.8873 7.56827L33.8601 9.83864C33.8595 9.90647 33.8418 9.9728 33.8087 10.0311C33.7756 10.0893 33.7284 10.1375 33.6716 10.1709L31.7678 11.2822ZM32.7277 13.2148C32.5327 13.0951 32.3504 12.9545 32.1837 12.7952C32.1406 12.7533 32.1075 12.7015 32.0871 12.6441C32.0667 12.5866 32.0597 12.5251 32.0665 12.4646C32.0734 12.404 32.0939 12.3461 32.1265 12.2955C32.159 12.245 32.2027 12.2031 32.2539 12.1735L34.1542 11.0637C34.2114 11.0302 34.2763 11.013 34.3422 11.0139C34.4082 11.0148 34.4729 11.0337 34.5298 11.0686L36.417 12.228C36.4679 12.2591 36.5111 12.3022 36.5431 12.3537C36.5751 12.4052 36.5949 12.4636 36.6011 12.5243C36.6073 12.5851 36.5996 12.6463 36.5786 12.7031C36.5577 12.7599 36.524 12.8107 36.4804 12.8513C35.4717 13.7778 33.9566 13.9697 32.7277 13.2148ZM34.8443 9.84976L34.8719 7.58558C34.8724 7.52463 34.8867 7.46479 34.9138 7.41089C34.9408 7.35699 34.9797 7.31053 35.0275 7.27528C35.0752 7.24004 35.1303 7.21698 35.1885 7.20798C35.2466 7.19899 35.3061 7.2043 35.3621 7.2235C35.5716 7.29756 35.7732 7.39395 35.9637 7.51111C37.1927 8.26606 37.7631 9.73911 37.4699 11.106C37.4567 11.1653 37.4302 11.2205 37.3926 11.267C37.3549 11.3136 37.3071 11.3502 37.253 11.3739C37.199 11.3976 37.1402 11.4077 37.0814 11.4034C37.0226 11.3992 36.9655 11.3806 36.9147 11.3493L35.0303 10.1917C34.973 10.1567 34.9255 10.1065 34.8928 10.0464C34.8602 9.98634 34.8434 9.91846 34.8443 9.84976Z" fill="black"/>
<path d="M38.6787 12.852C38.7059 12.7976 38.7134 12.7349 38.7001 12.6749C38.6868 12.615 38.6535 12.5616 38.6061 12.5244L38.1306 12.1142C38.1092 12.0957 38.0942 12.0706 38.0876 12.0426C38.0811 12.0146 38.0835 11.9853 38.0943 11.959C38.122 11.8863 38.1507 11.8109 38.1735 11.7366C38.1824 11.71 38.1991 11.687 38.2214 11.6708C38.2436 11.6546 38.2702 11.646 38.2975 11.6463L38.9155 11.6659C38.9757 11.67 39.035 11.6511 39.0822 11.6128C39.1294 11.5744 39.1612 11.5193 39.1716 11.458L39.2212 11.1782C39.2321 11.1169 39.2207 11.0534 39.1892 10.9999C39.1578 10.9464 39.1085 10.9066 39.0507 10.8882L38.4675 10.6722C38.4417 10.6622 38.4195 10.6439 38.4041 10.6201C38.3888 10.5963 38.381 10.5682 38.382 10.5397C38.3849 10.4621 38.3857 10.3817 38.3845 10.3016C38.3838 10.2729 38.3918 10.2447 38.4074 10.2211C38.423 10.1975 38.4454 10.1796 38.4714 10.1699L39.0548 9.96926C39.1123 9.95185 39.1616 9.91326 39.1934 9.86071C39.2252 9.80815 39.2374 9.74523 39.2275 9.68373L39.1823 9.4023C39.1726 9.34071 39.1413 9.28482 39.0943 9.24546C39.0474 9.20609 38.9881 9.18605 38.9281 9.18921L38.309 9.19122C38.2816 9.19128 38.2548 9.18221 38.2326 9.16534C38.2104 9.14846 38.1939 9.12469 38.1857 9.09752C38.1611 9.02064 38.1343 8.94469 38.1089 8.87413C38.0988 8.84754 38.0972 8.81839 38.1043 8.79093C38.1113 8.76346 38.1266 8.73911 38.148 8.72141L38.6299 8.3229C38.6784 8.28645 38.7122 8.23269 38.7248 8.17183C38.7373 8.11098 38.7279 8.04726 38.6981 7.9928L38.562 7.74152C38.5322 7.68713 38.4841 7.64589 38.427 7.62568C38.3699 7.60548 38.3078 7.60773 38.2526 7.63202L37.6717 7.85984C37.649 7.87129 37.6231 7.87414 37.5984 7.86791C37.5737 7.86167 37.5518 7.84674 37.5364 7.82569C37.5269 7.81274 37.4465 7.70327 37.3804 7.62453C37.3622 7.60313 37.351 7.5763 37.3485 7.54797C37.346 7.51964 37.3523 7.49129 37.3665 7.46708L37.6867 6.92172C37.72 6.86974 37.7338 6.8068 37.7255 6.74468C37.7171 6.68255 37.6873 6.62551 37.6414 6.58424L37.4309 6.39795C37.3849 6.35747 37.3265 6.3355 37.2664 6.33615C37.2064 6.33679 37.1488 6.36 37.1043 6.40145L36.6331 6.81818C36.612 6.83657 36.5857 6.84742 36.5581 6.84915C36.5305 6.85088 36.503 6.84339 36.4796 6.82778L36.2799 6.7051C36.2559 6.69104 36.2368 6.66954 36.2252 6.64366C36.2136 6.61778 36.2101 6.58883 36.2153 6.56095L36.3375 5.93378C36.3513 5.87305 36.3433 5.80898 36.315 5.75355C36.2866 5.69812 36.2397 5.65514 36.1832 5.63266L35.9243 5.53055C35.8678 5.50885 35.8058 5.50906 35.7498 5.53114C35.6938 5.55322 35.6476 5.59566 35.6198 5.65059L35.3147 6.2078C35.3008 6.23268 35.2795 6.25218 35.2539 6.2634C35.2283 6.27462 35.1998 6.27695 35.1727 6.27005C35.1152 6.26002 34.9906 6.23759 34.9343 6.22688C34.8847 6.21691 34.8495 6.17281 34.8378 6.10782L34.7442 5.48108C34.7383 5.41888 34.7104 5.36095 34.6659 5.31843C34.6214 5.2759 34.5634 5.25179 34.5031 5.25072L34.2273 5.24719C34.1666 5.24616 34.1078 5.26843 34.0623 5.30972C34.0169 5.35101 33.9879 5.4084 33.9811 5.47082L33.879 6.10097C33.8743 6.12896 33.8612 6.15464 33.8416 6.17439C33.8219 6.19414 33.7968 6.20697 33.7696 6.21108C33.6959 6.22272 33.6209 6.2336 33.5436 6.24926C33.5169 6.2548 33.4891 6.25135 33.4643 6.2394C33.4396 6.22746 33.4191 6.20765 33.4058 6.18287L33.1169 5.61571C33.09 5.55984 33.0443 5.51591 32.9886 5.49216C32.9329 5.4684 32.8709 5.46645 32.8142 5.48668L32.5564 5.58134C32.4996 5.60154 32.4521 5.64279 32.4231 5.6972C32.3942 5.75161 32.3857 5.81535 32.3993 5.87622L32.5141 6.50526C32.5191 6.53346 32.5151 6.56247 32.5029 6.58802C32.4906 6.61356 32.4707 6.63426 32.4461 6.64706C32.3785 6.68296 32.3109 6.72282 32.2463 6.76456C32.2227 6.77931 32.195 6.78588 32.1674 6.78333C32.1398 6.78078 32.1136 6.76923 32.0925 6.75035L31.6291 6.32532C31.5856 6.28166 31.5283 6.25596 31.468 6.25313C31.4078 6.2503 31.3489 6.27054 31.3024 6.30997L31.0902 6.48929C31.0436 6.52846 31.0126 6.58411 31.0031 6.6457C30.9936 6.70728 31.0063 6.77052 31.0387 6.82344L31.3538 7.37707C31.368 7.4019 31.3741 7.43077 31.3711 7.45933C31.3681 7.48789 31.3562 7.51458 31.3372 7.53537L31.3171 7.55916C31.273 7.61151 31.2316 7.66119 31.1885 7.71472C31.1715 7.73688 31.1482 7.75286 31.1218 7.76038C31.0954 7.76789 31.0673 7.76654 31.0416 7.75654L30.4657 7.52089C30.4105 7.49579 30.3486 7.49226 30.2915 7.51097C30.2344 7.52967 30.186 7.56933 30.1553 7.62254L30.0166 7.86696C29.9859 7.92041 29.9755 7.98393 29.9875 8.04523C29.9994 8.10653 30.0329 8.16124 30.0814 8.19878L30.5578 8.60928C30.5792 8.62776 30.5942 8.65287 30.6008 8.68085C30.6073 8.70882 30.6049 8.73816 30.594 8.76447C30.5662 8.83734 30.5376 8.91257 30.5148 8.98681C30.5059 9.01344 30.4892 9.03647 30.467 9.05268C30.4448 9.06888 30.4182 9.07745 30.3909 9.07719L29.7728 9.05812C29.7126 9.054 29.6533 9.0729 29.6061 9.11123C29.5589 9.14957 29.5271 9.20466 29.5167 9.26602L29.4681 9.54642C29.4573 9.60772 29.4687 9.67117 29.5002 9.72467C29.5316 9.77817 29.5809 9.81797 29.6386 9.83646L30.2212 10.0535C30.2471 10.0635 30.2693 10.0817 30.2847 10.1055C30.3001 10.1293 30.3078 10.1575 30.3068 10.186C30.304 10.264 30.303 10.344 30.3042 10.4241C30.305 10.4528 30.297 10.481 30.2814 10.5046C30.2658 10.5282 30.2434 10.5461 30.2174 10.5558L29.6341 10.7562C29.5763 10.7731 29.5266 10.8113 29.4943 10.8636C29.4621 10.916 29.4495 10.9789 29.459 11.0406L29.504 11.3219C29.5136 11.3835 29.5449 11.4394 29.5919 11.4788C29.6389 11.5182 29.6982 11.5382 29.7582 11.535L30.3773 11.533C30.4047 11.5329 30.4315 11.542 30.4537 11.5588C30.4759 11.5757 30.4924 11.5995 30.5006 11.6267C30.5254 11.7037 30.552 11.7795 30.5774 11.85C30.5874 11.8766 30.5891 11.9058 30.5821 11.9333C30.5751 11.9607 30.5598 11.9851 30.5385 12.0029L30.0564 12.4013C30.0079 12.4377 29.9741 12.4915 29.9615 12.5523C29.9489 12.6132 29.9584 12.6769 29.9882 12.7314L30.1253 12.9819C30.1551 13.0362 30.2031 13.0775 30.2602 13.0978C30.3173 13.118 30.3793 13.1158 30.4346 13.0916L31.0173 12.8703C31.0666 12.8514 31.1209 12.8628 31.1464 12.8972C31.2004 12.9714 31.2385 13.0178 31.3065 13.0989C31.3248 13.1204 31.336 13.1472 31.3385 13.1755C31.3411 13.2039 31.3348 13.2322 31.3207 13.2565L31.0006 13.8013C30.9673 13.8533 30.9536 13.9162 30.9619 13.9783C30.9702 14.0404 31 14.0975 31.0458 14.1388L31.2564 14.3251C31.3023 14.3657 31.3607 14.3877 31.4208 14.3871C31.4809 14.3864 31.5385 14.3631 31.5829 14.3216L32.0536 13.9057C32.0747 13.8873 32.101 13.8764 32.1286 13.8747C32.1563 13.8729 32.1838 13.8805 32.2071 13.8961L32.4068 14.0188C32.4309 14.0328 32.45 14.0543 32.4616 14.0802C32.4732 14.1061 32.4767 14.135 32.4714 14.1629L32.3495 14.7902C32.3373 14.8437 32.342 14.8999 32.3629 14.9507C32.3838 15.0015 32.4197 15.0442 32.4656 15.0725C32.4778 15.08 32.4906 15.0864 32.504 15.0915L32.7628 15.1936C32.8193 15.2153 32.8814 15.2151 32.9374 15.193C32.9934 15.1709 33.0396 15.1285 33.0674 15.0735L33.3725 14.5163C33.3861 14.4919 33.407 14.4727 33.432 14.4614C33.457 14.4502 33.4848 14.4475 33.5116 14.4538C33.6057 14.4748 33.6734 14.4869 33.733 14.4973L33.748 14.5C33.8243 14.5164 33.8395 14.5627 33.8444 14.5964L33.9404 15.2426C33.9467 15.3046 33.9748 15.3622 34.0194 15.4044C34.0639 15.4465 34.1218 15.4704 34.1819 15.4713L34.458 15.4749C34.5183 15.4758 34.5767 15.4536 34.6219 15.4126C34.6671 15.3716 34.696 15.3147 34.7031 15.2526L34.8054 14.6226C34.81 14.5946 34.8231 14.5689 34.8427 14.5491C34.8623 14.5293 34.8874 14.5165 34.9146 14.5124C34.9883 14.5008 35.0633 14.4899 35.1407 14.4742C35.1675 14.4687 35.1953 14.4722 35.2202 14.4843C35.2451 14.4964 35.2656 14.5164 35.2788 14.5414L35.5769 15.106C35.6038 15.1619 35.6494 15.2058 35.7052 15.2296C35.7609 15.2534 35.8229 15.2553 35.8796 15.235L36.1378 15.1402C36.1946 15.12 36.242 15.0788 36.271 15.0244C36.3 14.97 36.3085 14.9062 36.2948 14.8454L36.181 14.2155C36.176 14.1873 36.18 14.1583 36.1922 14.1328C36.2045 14.1072 36.2244 14.0865 36.249 14.0737C36.3165 14.038 36.3841 13.9982 36.4488 13.9562C36.4725 13.9415 36.5001 13.935 36.5277 13.9376C36.5553 13.9401 36.5815 13.9516 36.6026 13.9704L37.065 14.3959C37.1084 14.4396 37.1657 14.4653 37.226 14.4681C37.2862 14.4709 37.3452 14.4507 37.3916 14.4113L37.6028 14.2313C37.6494 14.1922 37.6804 14.1366 37.6899 14.075C37.6993 14.0135 37.6866 13.9503 37.6542 13.8974L37.3389 13.3431C37.325 13.3183 37.3192 13.2897 37.3223 13.2614C37.3254 13.233 37.3372 13.2066 37.356 13.1859L37.3761 13.1621C37.4201 13.1098 37.4616 13.0601 37.5047 13.0066C37.5216 12.9844 37.545 12.9684 37.5714 12.9609C37.5978 12.9534 37.6258 12.9547 37.6516 12.9648L38.2274 13.2006C38.2826 13.2259 38.3446 13.2295 38.4019 13.2108C38.4592 13.1922 38.5077 13.1525 38.5385 13.0991L38.6787 12.852ZM31.7678 11.2822C31.7163 11.3122 31.6586 11.3291 31.5993 11.3315C31.5401 11.3339 31.481 11.3217 31.427 11.2959C31.3729 11.2701 31.3255 11.2315 31.2885 11.1831C31.2515 11.1348 31.2261 11.0781 31.2142 11.0178C31.0511 10.2086 31.1844 9.36798 31.5882 8.66004C31.9921 7.95209 32.6373 7.42762 33.3982 7.18895C33.4548 7.17073 33.5149 7.16675 33.5736 7.17732C33.6322 7.1879 33.6877 7.21273 33.7354 7.24977C33.7832 7.28682 33.8219 7.33501 33.8483 7.39038C33.8747 7.44576 33.8881 7.50673 33.8873 7.56827L33.8601 9.83864C33.8595 9.90647 33.8418 9.9728 33.8087 10.0311C33.7756 10.0893 33.7284 10.1375 33.6716 10.1709L31.7678 11.2822ZM32.7277 13.2148C32.5327 13.0951 32.3504 12.9545 32.1837 12.7952C32.1406 12.7533 32.1075 12.7015 32.0871 12.6441C32.0667 12.5866 32.0597 12.5251 32.0665 12.4646C32.0734 12.404 32.0939 12.3461 32.1265 12.2955C32.159 12.245 32.2027 12.2031 32.2539 12.1735L34.1542 11.0637C34.2114 11.0302 34.2763 11.013 34.3422 11.0139C34.4082 11.0148 34.4729 11.0337 34.5298 11.0686L36.417 12.228C36.4679 12.2591 36.5111 12.3022 36.5431 12.3537C36.5751 12.4052 36.5949 12.4636 36.6011 12.5243C36.6073 12.5851 36.5996 12.6463 36.5786 12.7031C36.5577 12.7599 36.524 12.8107 36.4804 12.8513C35.4717 13.7778 33.9566 13.9697 32.7277 13.2148ZM34.8443 9.84976L34.8719 7.58558C34.8724 7.52463 34.8867 7.46479 34.9138 7.41089C34.9408 7.35699 34.9797 7.31053 35.0275 7.27528C35.0752 7.24004 35.1303 7.21698 35.1885 7.20798C35.2466 7.19899 35.3061 7.2043 35.3621 7.2235C35.5716 7.29756 35.7732 7.39395 35.9637 7.51111C37.1927 8.26606 37.7631 9.73911 37.4699 11.106C37.4567 11.1653 37.4302 11.2205 37.3926 11.267C37.3549 11.3136 37.3071 11.3502 37.253 11.3739C37.199 11.3976 37.1402 11.4077 37.0814 11.4034C37.0226 11.3992 36.9655 11.3806 36.9147 11.3493L35.0303 10.1917C34.973 10.1567 34.9255 10.1065 34.8928 10.0464C34.8602 9.98634 34.8434 9.91846 34.8443 9.84976Z" stroke="black" stroke-width="0.6" mask="url(#path-7-outside-2_1193_1345)"/>
</svg>
