<svg width="73" height="73" viewBox="0 0 73 73" fill="none" xmlns="http://www.w3.org/2000/svg">
<path d="M43.5871 29.2781V29.8712C43.5871 34.3644 43.5871 38.8576 43.5871 43.3468C43.6016 43.713 43.7297 44.0656 43.9536 44.3558C47.8488 49.2538 52.4402 53.5552 57.5816 57.123C58.6112 57.8437 59.1878 58.7704 58.9448 60.0759C58.8656 60.4986 58.6868 60.8964 58.4234 61.2364C58.16 61.5764 57.8194 61.8488 57.4299 62.0311C57.0403 62.2134 56.613 62.3003 56.1832 62.2848C55.7534 62.2692 55.3335 62.1516 54.9581 61.9416C54.01 61.3477 53.0957 60.7015 52.2194 60.0059C47.0431 56.1098 42.4426 51.5025 38.5543 46.3203C38.5018 46.2192 38.4289 46.1302 38.3402 46.0588C38.2515 45.9873 38.149 45.935 38.0391 45.9052C37.9291 45.8754 37.8142 45.8688 37.7016 45.8856C37.589 45.9025 37.4811 45.9425 37.3847 46.0032C34.1187 47.2799 30.8405 48.5154 27.5581 49.7468C27.4 49.7937 27.2573 49.8817 27.1444 50.0018C27.0315 50.1219 26.9525 50.2699 26.9156 50.4305C25.9642 53.6429 24.9676 56.8388 24.0327 60.0553C23.4314 62.1352 21.541 62.6953 20.0666 61.9992C19.52 61.739 19.0798 61.2984 18.8202 60.7515C18.5607 60.2046 18.4976 59.5849 18.6416 58.9969C19.5106 55.9698 20.4331 52.9592 21.3351 49.9363C21.5863 49.1126 21.8746 48.2642 22.097 47.4158C22.2244 46.8801 22.4887 46.3866 22.8642 45.9838C23.2396 45.5809 23.7132 45.2825 24.2386 45.1177C26.0548 44.4546 27.8546 43.7627 29.6544 43.0585C29.7584 43.0108 29.8499 42.9394 29.9214 42.85C29.9929 42.7606 30.0425 42.6557 30.0662 42.5437C30.0662 38.1699 30.0662 33.8002 30.0662 29.4264C30.0575 29.347 30.0424 29.2685 30.0209 29.1916L26.8744 28.9651C22.4284 28.6092 18.02 27.8818 13.6953 26.7906C12.3321 26.4529 11.5537 25.2709 11.8297 24.023C12.1221 22.6886 13.3082 21.9637 14.7332 22.2191C17.5296 22.7586 20.3137 23.3887 23.1266 23.8129C25.4945 24.1665 27.8798 24.3906 30.2721 24.4842C33.5216 24.616 36.7793 24.6078 40.0329 24.5996C46.4022 24.6066 52.7483 23.8306 58.9283 22.2891C59.2585 22.1734 59.6083 22.1244 59.9576 22.1449C60.3068 22.1654 60.6485 22.255 60.9628 22.4085C61.4071 22.6329 61.7672 22.9944 61.9897 23.4395C62.2123 23.8846 62.2854 24.3896 62.1984 24.8796C62.1445 25.3432 61.9435 25.7774 61.6248 26.1184C61.306 26.4593 60.8864 26.6892 60.4274 26.7741C57.1327 27.4207 53.8585 28.0714 50.5432 28.5821C48.2533 28.9157 45.9593 29.0434 43.5871 29.2781Z" fill="#AFAFAF"/>
<path d="M36.9972 10.5968C38.0886 10.6025 39.1538 10.9312 40.0586 11.5414C40.9635 12.1516 41.6674 13.016 42.0817 14.0257C42.4959 15.0354 42.602 16.1452 42.3865 17.2151C42.171 18.2849 41.6436 19.2671 40.8707 20.0376C40.0978 20.8082 39.1141 21.3327 38.0436 21.5451C36.9731 21.7574 35.8637 21.648 34.8552 21.2308C33.8468 20.8135 32.9844 20.107 32.3769 19.2004C31.7694 18.2937 31.4439 17.2275 31.4414 16.1361C31.449 14.6665 32.0373 13.2595 33.0781 12.2218C34.1188 11.1842 35.5276 10.6 36.9972 10.5968Z" fill="#AFAFAF"/>
</svg>
