<svg width="22" height="23" viewBox="0 0 22 23" fill="none" xmlns="http://www.w3.org/2000/svg">
<path d="M9.5 1C7.81886 1 6.17547 1.49852 4.77766 2.43251C3.37984 3.3665 2.29037 4.69402 1.64703 6.24719C1.00368 7.80036 0.835355 9.50943 1.16333 11.1583C1.4913 12.8071 2.30085 14.3217 3.4896 15.5104C4.67834 16.6992 6.1929 17.5087 7.84173 17.8367C9.49057 18.1646 11.1996 17.9963 12.7528 17.353C14.306 16.7096 15.6335 15.6202 16.5675 14.2223C17.5015 12.8245 18 11.1811 18 9.5C17.9999 7.2457 17.1043 5.08378 15.5102 3.48975C13.9162 1.89572 11.7543 1.00014 9.5 1Z" stroke="black" stroke-width="0.8" stroke-miterlimit="10"/>
<path d="M15 16L21 22" stroke="black" stroke-width="0.8" stroke-miterlimit="10" stroke-linecap="round"/>
</svg>
