<svg width="96" height="96" viewBox="0 0 96 96" fill="none" xmlns="http://www.w3.org/2000/svg">
<path d="M65.0357 64.2367C64.5724 64.8493 64.2172 65.3641 63.826 65.8429C62.225 67.8042 60.5056 68.3293 58.0757 67.588C56.1802 66.9563 54.4448 65.9199 52.9896 64.5507C52.1917 63.8455 51.4452 63.099 50.6833 62.332C49.5868 61.1994 49.5456 59.6036 50.5546 58.6203C51.5636 57.6371 53.1646 57.6731 54.3435 58.7542C55.5224 59.8352 56.8505 60.9626 58.1118 62.0591C58.2462 62.1636 58.3891 62.2566 58.5391 62.3371C59.651 63.0115 59.7849 62.9961 60.4283 61.8635C61.4219 60.1132 62.364 58.332 63.3472 56.5766C63.6845 55.9572 64.1566 55.4215 64.7286 55.009C65.3007 54.5965 65.958 54.3176 66.6522 54.1931C68.7577 53.7401 70.8426 53.1635 72.9584 52.7826C74.7962 52.4377 76.3766 53.2562 76.9532 55.0322C77.6202 57.0783 78.1364 59.1706 78.4976 61.2921C79.1974 65.5766 79.5691 69.9083 79.6095 74.2494C79.6095 75.3459 79.3109 75.7166 78.2247 75.732C74.7928 75.7835 71.3454 75.8299 67.8825 75.871C66.9096 75.871 66.5647 75.5673 66.436 74.6252C65.9675 71.2173 65.5145 67.8094 65.0357 64.2367Z" fill="black"/>
<path d="M28.4184 64.7566C27.9705 68.0049 27.5329 71.2172 27.0799 74.4295C26.9409 75.4025 26.6063 75.6959 25.6436 75.6856C22.1465 75.6513 18.6493 75.6084 15.1522 75.5569C14.2925 75.5569 13.9064 75.1296 13.9373 74.1927C14.0196 71.8144 14.0093 69.4257 14.2873 67.0731C14.6786 63.7115 15.286 60.3808 15.8317 57.0347C15.9547 56.4665 16.1269 55.9102 16.3465 55.3719C17.1341 53.0656 18.8587 52.3449 20.9796 52.7465C23.2859 53.184 25.551 53.8378 27.8212 54.4195C28.2892 54.563 28.7223 54.8023 29.0927 55.1223C29.4632 55.4422 29.763 55.8358 29.973 56.2779C30.704 57.5855 31.3269 58.9549 31.9962 60.2985C32.2845 60.8853 32.6036 61.4568 32.8559 62.0591C32.9601 62.3988 33.1887 62.6868 33.496 62.8652C33.8034 63.0437 34.1668 63.0996 34.5135 63.0217C36.2792 62.7334 38.0398 62.4194 39.8004 62.1054C40.1556 62.0385 40.5005 61.9046 40.83 61.8171C41.4488 61.6218 42.1192 61.6735 42.7007 61.9614C43.2822 62.2493 43.7298 62.751 43.9497 63.3615C44.0524 63.674 44.0917 64.0039 44.0652 64.3318C44.0387 64.6598 43.947 64.9791 43.7955 65.2711C43.644 65.5631 43.4357 65.8219 43.1828 66.0324C42.9299 66.2428 42.6376 66.4006 42.3229 66.4966C40.738 67.0124 39.1195 67.4184 37.4787 67.7115C36.0891 67.9056 34.6856 67.9814 33.2832 67.938C31.3887 67.938 29.9936 66.9084 28.9692 65.364C28.8354 65.1633 28.6912 64.9728 28.5471 64.7772C28.5368 64.772 28.5059 64.7772 28.4184 64.7566Z" fill="black"/>
<path d="M74.8835 44.7415C74.8062 48.7311 71.7947 51.5934 67.7124 51.5213C64.1088 51.4595 61.1539 48.2318 61.2208 44.4841C61.255 42.6723 62.0074 40.9483 63.3127 39.6913C64.6179 38.4343 66.3691 37.7474 68.1808 37.7815C69.9926 37.8156 71.7166 38.5681 72.9736 39.8733C74.2306 41.1786 74.9176 42.9297 74.8835 44.7415Z" fill="black"/>
<path d="M18.5763 44.7518C18.5671 43.4149 18.9506 42.1047 19.6793 40.9838C20.408 39.8629 21.4499 38.9806 22.6756 38.4466C23.9012 37.9125 25.2567 37.7501 26.5739 37.9796C27.891 38.209 29.1117 38.8202 30.0846 39.7373C31.0575 40.6544 31.7396 41.8369 32.0464 43.1382C32.3531 44.4395 32.271 45.8023 31.8102 47.0573C31.3493 48.3123 30.5301 49.4044 29.4541 50.198C28.3782 50.9916 27.0928 51.4517 25.7577 51.5213C21.7063 51.5986 18.6536 48.726 18.5763 44.7518Z" fill="black"/>
<path d="M39.5502 37.1088C39.6046 36.9083 39.4842 36.6294 39.3693 36.4285C39.3335 36.3685 39.2947 36.3105 39.253 36.2545C38.2675 34.7598 37.7422 33.0088 37.7422 31.2185C37.7262 26.0794 41.9876 21.9091 47.2571 21.9091C51.8527 21.9091 55.6888 25.0928 56.5852 29.319C56.7195 29.9455 56.7873 30.5845 56.7876 31.2253C56.7876 36.3717 52.6905 40.6075 47.421 40.6075C46.5832 40.6075 45.4524 40.3969 44.8357 40.2243C44.219 40.0517 43.6032 39.8228 43.4444 39.7614C43.2819 39.699 43.1094 39.6668 42.9353 39.6666C42.7452 39.6659 42.5569 39.7038 42.3818 39.7779L39.2764 40.8986C39.2084 40.928 39.1363 40.9468 39.0626 40.9545C39.0044 40.9543 38.9469 40.9426 38.8933 40.92C38.8397 40.8975 38.7912 40.8645 38.7504 40.823C38.7097 40.7815 38.6775 40.7324 38.6559 40.6784C38.6343 40.6244 38.6236 40.5667 38.6245 40.5086C38.6283 40.4575 38.6375 40.407 38.6519 40.3579L39.5502 37.1088Z" fill="black"/>
</svg>
