<svg width="88" height="88" viewBox="0 0 88 88" fill="none" xmlns="http://www.w3.org/2000/svg">
<path d="M59.6171 58.8837C59.1924 59.4452 58.8668 59.9171 58.5081 60.356C57.0405 62.1539 55.4644 62.6352 53.2371 61.9557C51.4995 61.3766 49.9087 60.4266 48.5748 59.1715C47.8433 58.525 47.1591 57.8408 46.4607 57.1377C45.4556 56.0995 45.4178 54.6366 46.3427 53.7353C47.2676 52.834 48.7352 52.867 49.8159 53.858C50.8965 54.849 52.114 55.8824 53.2701 56.8876C53.3933 56.9833 53.5243 57.0685 53.6618 57.1424C54.6811 57.7606 54.8038 57.7464 55.3936 56.7082C56.3044 55.1038 57.1679 53.471 58.0693 51.8619C58.3785 51.2941 58.8112 50.8031 59.3356 50.4249C59.8599 50.0468 60.4625 49.7912 61.0988 49.677C63.0289 49.2618 64.94 48.7332 66.8795 48.384C68.5642 48.0679 70.0129 48.8182 70.5414 50.4462C71.1528 52.3218 71.626 54.2397 71.9571 56.1844C72.5986 60.1119 72.9393 64.0826 72.9764 68.062C72.9764 69.0671 72.7027 69.4069 71.707 69.421C68.561 69.4682 65.4009 69.5107 62.2266 69.5484C61.3348 69.5484 61.0186 69.27 60.9006 68.4065C60.4712 65.2825 60.0559 62.1586 59.6171 58.8837Z" fill="#AFAFAF"/>
<path d="M26.0503 59.3602C25.6398 62.3378 25.2387 65.2824 24.8234 68.2271C24.696 69.1189 24.3893 69.3879 23.5068 69.3785C20.3011 69.347 17.0954 69.3077 13.8897 69.2605C13.1016 69.2605 12.7477 68.8688 12.776 68.01C12.8515 65.8298 12.842 63.6403 13.0969 61.4837C13.4555 58.4022 14.0123 55.3491 14.5126 52.2818C14.6253 51.761 14.7832 51.251 14.9844 50.7576C15.7064 48.6435 17.2873 47.9828 19.2315 48.3509C21.3456 48.752 23.4219 49.3513 25.5029 49.8846C25.932 50.0161 26.3289 50.2354 26.6685 50.5287C27.0081 50.822 27.2829 51.1828 27.4755 51.5881C28.1455 52.7867 28.7165 54.042 29.33 55.2736C29.5943 55.8116 29.8868 56.3354 30.1181 56.8875C30.2136 57.1989 30.4232 57.4629 30.7049 57.6265C30.9866 57.7901 31.3197 57.8413 31.6375 57.7699C33.2561 57.5056 34.87 57.2178 36.4839 56.9299C36.8095 56.8686 37.1257 56.7459 37.4277 56.6657C37.9949 56.4867 38.6094 56.5341 39.1424 56.7979C39.6755 57.0618 40.0858 57.5217 40.2873 58.0814C40.3815 58.3678 40.4175 58.6703 40.3932 58.9708C40.369 59.2714 40.2849 59.5641 40.146 59.8318C40.0072 60.0995 39.8162 60.3368 39.5844 60.5297C39.3526 60.7226 39.0846 60.8672 38.7962 60.9552C37.3434 61.4281 35.8597 61.8002 34.3557 62.0689C33.0819 62.2468 31.7953 62.3162 30.5097 62.2765C28.7732 62.2765 27.4943 61.3327 26.5553 59.917C26.4326 59.733 26.3004 59.5584 26.1683 59.3791C26.1589 59.3743 26.1306 59.3791 26.0503 59.3602Z" fill="#AFAFAF"/>
<path d="M68.6432 41.013C68.5725 44.6702 65.8119 47.2939 62.0698 47.2278C58.7665 47.1712 56.0578 44.2124 56.1192 40.7771C56.1505 39.1163 56.8402 37.5359 58.0367 36.3837C59.2332 35.2315 60.8384 34.6017 62.4992 34.633C64.16 34.6643 65.7403 35.3541 66.8926 36.5505C68.0448 37.747 68.6745 39.3522 68.6432 41.013Z" fill="#AFAFAF"/>
<path d="M17.0285 41.0225C17.02 39.7969 17.3715 38.5959 18.0395 37.5684C18.7075 36.5409 19.6626 35.7322 20.7861 35.2427C21.9096 34.7531 23.1522 34.6043 24.3595 34.8146C25.5669 35.0249 26.6859 35.5852 27.5777 36.4258C28.4695 37.2665 29.0948 38.3505 29.376 39.5434C29.6572 40.7362 29.5819 41.9854 29.1595 43.1358C28.737 44.2863 27.9861 45.2874 26.9998 46.0148C26.0135 46.7423 24.8353 47.1641 23.6114 47.2279C19.8976 47.2987 17.0993 44.6655 17.0285 41.0225Z" fill="#AFAFAF"/>
<path d="M36.255 34.0164C36.3049 33.8326 36.1945 33.577 36.0892 33.3928C36.0564 33.3378 36.0208 33.2846 35.9826 33.2333C35.0792 31.8632 34.5976 30.2581 34.5977 28.6169C34.583 23.9061 38.4893 20.0834 43.3197 20.0834C47.5323 20.0834 51.0487 23.0018 51.8704 26.8757C51.9935 27.4501 52.0557 28.0358 52.0559 28.6232C52.0559 33.3407 48.3003 37.2235 43.4699 37.2235C42.7019 37.2235 41.6653 37.0305 41.1 36.8723C40.5347 36.714 39.9703 36.5042 39.8247 36.448C39.6757 36.3907 39.5176 36.3613 39.358 36.3611C39.1837 36.3604 39.0111 36.3951 38.8506 36.4631L36.004 37.4904C35.9416 37.5173 35.8756 37.5346 35.808 37.5416C35.7547 37.5415 35.702 37.5307 35.6529 37.51C35.6037 37.4894 35.5592 37.4591 35.5219 37.4211C35.4845 37.3831 35.4551 37.338 35.4352 37.2886C35.4154 37.2391 35.4056 37.1862 35.4064 37.1329C35.4099 37.0861 35.4183 37.0398 35.4316 36.9948L36.255 34.0164Z" fill="#AFAFAF"/>
</svg>
