<svg width="56" height="44" viewBox="0 0 56 44" fill="none" xmlns="http://www.w3.org/2000/svg">
<path d="M35.1751 7.88089V8.5273C35.1751 13.4248 35.1751 18.3224 35.1751 23.2154C35.191 23.6146 35.3307 23.9989 35.5747 24.3152C39.8204 29.654 44.8248 34.3424 50.4289 38.2312C51.5511 39.0168 52.1796 40.0268 51.9147 41.4498C51.8284 41.9106 51.6336 42.3442 51.3464 42.7148C51.0593 43.0853 50.6881 43.3822 50.2635 43.5809C49.8389 43.7796 49.3731 43.8744 48.9047 43.8574C48.4362 43.8405 47.9785 43.7123 47.5694 43.4834C46.5359 42.8361 45.5393 42.1317 44.5842 41.3735C38.9421 37.1268 33.9277 32.105 29.6896 26.4565C29.6323 26.3464 29.5528 26.2493 29.4562 26.1714C29.3595 26.0936 29.2477 26.0366 29.1279 26.0041C29.0081 25.9716 28.8829 25.9643 28.7601 25.9827C28.6373 26.0011 28.5197 26.0447 28.4147 26.1108C24.8549 27.5024 21.2816 28.8491 17.7038 30.1914C17.5316 30.2424 17.376 30.3383 17.2529 30.4693C17.1299 30.6002 17.0438 30.7615 17.0036 30.9365C15.9666 34.438 14.8802 37.9215 13.8612 41.4274C13.2058 43.6944 11.1454 44.3049 9.5383 43.5462C8.94251 43.2626 8.46272 42.7823 8.17979 42.1862C7.89687 41.5901 7.8281 40.9146 7.9851 40.2737C8.93228 36.9743 9.93782 33.6928 10.9209 30.3979C11.1947 29.5001 11.509 28.5753 11.7514 27.6506C11.8903 27.0667 12.1784 26.5288 12.5876 26.0897C12.9968 25.6506 13.513 25.3253 14.0857 25.1457C16.0654 24.423 18.0271 23.6688 19.9888 22.9012C20.1022 22.8492 20.2019 22.7714 20.2798 22.6739C20.3578 22.5765 20.4119 22.4621 20.4377 22.3401C20.4377 17.5727 20.4377 12.8098 20.4377 8.04249C20.4282 7.95599 20.4117 7.87041 20.3883 7.78662L16.9587 7.53972C12.1126 7.15174 7.30757 6.3589 2.59377 5.16951C1.1079 4.80141 0.259472 3.51306 0.560237 2.15288C0.878958 0.698436 2.1718 -0.0916334 3.725 0.186686C6.77306 0.774749 9.80764 1.46157 12.8736 1.92394C15.4546 2.30929 18.0546 2.55356 20.6621 2.65565C24.204 2.7993 27.7548 2.79033 31.3011 2.78135C38.2436 2.78901 45.1607 1.94322 51.8968 0.263001C52.2567 0.136916 52.638 0.0834979 53.0186 0.105844C53.3993 0.128191 53.7717 0.225857 54.1144 0.393183C54.5986 0.637695 54.9911 1.03176 55.2337 1.51693C55.4762 2.00209 55.556 2.55253 55.4611 3.0866C55.4024 3.59194 55.1833 4.06516 54.8358 4.43681C54.4884 4.80846 54.031 5.05896 53.5308 5.15155C49.9396 5.85633 46.3708 6.5656 42.7571 7.12224C40.2612 7.48585 37.7608 7.62501 35.1751 7.88089Z" fill="black"/>
</svg>
