<svg width="13" height="13" viewBox="0 0 13 13" fill="none" xmlns="http://www.w3.org/2000/svg">
<path d="M6.99221 0.518616C8.18177 0.524824 9.34286 0.883072 10.3291 1.5482C11.3154 2.21332 12.0826 3.15555 12.5342 4.25609C12.9857 5.35663 13.1013 6.56622 12.8664 7.73238C12.6315 8.89853 12.0567 9.96904 11.2142 10.8089C10.3718 11.6488 9.29964 12.2206 8.1328 12.452C6.96595 12.6834 5.75671 12.5642 4.65752 12.1094C3.55832 11.6546 2.61838 10.8845 1.95618 9.89631C1.29399 8.90809 0.939199 7.74593 0.936523 6.55636C0.944813 4.9545 1.58605 3.42087 2.72043 2.28985C3.85482 1.15883 5.39033 0.522149 6.99221 0.518616V0.518616Z" fill="black"/>
</svg>
